<?xml version="1.0" encoding="utf-8" standalone="no"?>
<!DOCTYPE svg PUBLIC "-//W3C//DTD SVG 1.1//EN"
  "http://www.w3.org/Graphics/SVG/1.1/DTD/svg11.dtd">
<svg xmlns:xlink="http://www.w3.org/1999/xlink" width="481.2pt" height="360pt" viewBox="0 0 481.2 360" xmlns="http://www.w3.org/2000/svg" version="1.1">
 <metadata>
  <rdf:RDF xmlns:dc="http://purl.org/dc/elements/1.1/" xmlns:cc="http://creativecommons.org/ns#" xmlns:rdf="http://www.w3.org/1999/02/22-rdf-syntax-ns#">
   <cc:Work>
    <dc:type rdf:resource="http://purl.org/dc/dcmitype/StillImage"/>
    <dc:date>2025-09-21T21:38:43.810999</dc:date>
    <dc:format>image/svg+xml</dc:format>
    <dc:creator>
     <cc:Agent>
      <dc:title>Matplotlib v3.9.2, https://matplotlib.org/</dc:title>
     </cc:Agent>
    </dc:creator>
   </cc:Work>
  </rdf:RDF>
 </metadata>
 <defs>
  <style type="text/css">*{stroke-linejoin: round; stroke-linecap: butt}</style>
 </defs>
 <g id="figure_1">
  <g id="patch_1">
   <path d="M 0 360 
L 481.2 360 
L 481.2 0 
L 0 0 
z
" style="fill: #ffffff"/>
  </g>
  <g id="axes_1">
   <g id="patch_2">
    <path d="M 71.24 300.3 
L 461.76 300.3 
L 461.76 63.12 
L 71.24 63.12 
z
" style="fill: #eaeaf2"/>
   </g>
   <g id="matplotlib.axis_1">
    <g id="xtick_1">
     <g id="text_1">
      <!-- 15-30 minutes -->
      <g style="fill: #262626" transform="translate(94.678125 318.7225) scale(0.08 -0.08)">
       <defs>
        <path id="SegoeUI-31" d="M 2263 0 
L 1750 0 
L 1750 3872 
Q 1691 3813 1577 3736 
Q 1463 3659 1320 3584 
Q 1178 3509 1020 3443 
Q 863 3378 713 3341 
L 713 3859 
Q 881 3906 1070 3986 
Q 1259 4066 1442 4164 
Q 1625 4263 1787 4370 
Q 1950 4478 2069 4581 
L 2263 4581 
L 2263 0 
z
" transform="scale(0.015625)"/>
        <path id="SegoeUI-35" d="M 3028 1369 
Q 3028 1041 2915 775 
Q 2803 509 2595 318 
Q 2388 128 2094 25 
Q 1800 -78 1441 -78 
Q 816 -78 513 109 
L 513 653 
Q 969 359 1447 359 
Q 1691 359 1886 431 
Q 2081 503 2218 631 
Q 2356 759 2429 940 
Q 2503 1122 2503 1338 
Q 2503 1775 2209 2023 
Q 1916 2272 1356 2272 
Q 1266 2272 1166 2269 
Q 1066 2266 966 2261 
Q 866 2256 770 2250 
Q 675 2244 597 2234 
L 750 4481 
L 2822 4481 
L 2822 4019 
L 1194 4019 
L 1103 2703 
Q 1203 2709 1315 2714 
Q 1428 2719 1516 2719 
Q 1872 2719 2153 2625 
Q 2434 2531 2629 2357 
Q 2825 2184 2926 1932 
Q 3028 1681 3028 1369 
z
" transform="scale(0.015625)"/>
        <path id="SegoeUI-2d" d="M 2156 1581 
L 450 1581 
L 450 1984 
L 2156 1984 
L 2156 1581 
z
" transform="scale(0.015625)"/>
        <path id="SegoeUI-33" d="M 2978 1269 
Q 2978 966 2864 717 
Q 2750 469 2542 292 
Q 2334 116 2043 19 
Q 1753 -78 1403 -78 
Q 763 -78 384 166 
L 384 716 
Q 838 359 1422 359 
Q 1656 359 1845 418 
Q 2034 478 2170 590 
Q 2306 703 2379 862 
Q 2453 1022 2453 1222 
Q 2453 2100 1203 2100 
L 831 2100 
L 831 2534 
L 1184 2534 
Q 2291 2534 2291 3359 
Q 2291 4122 1447 4122 
Q 972 4122 556 3803 
L 556 4300 
Q 984 4556 1575 4556 
Q 1856 4556 2084 4478 
Q 2313 4400 2475 4259 
Q 2638 4119 2727 3922 
Q 2816 3725 2816 3488 
Q 2816 2603 1922 2350 
L 1922 2338 
Q 2150 2313 2344 2227 
Q 2538 2141 2678 2003 
Q 2819 1866 2898 1680 
Q 2978 1494 2978 1269 
z
" transform="scale(0.015625)"/>
        <path id="SegoeUI-30" d="M 3188 2259 
Q 3188 1697 3086 1262 
Q 2984 828 2792 529 
Q 2600 231 2320 76 
Q 2041 -78 1684 -78 
Q 1347 -78 1083 70 
Q 819 219 637 503 
Q 456 788 362 1202 
Q 269 1616 269 2150 
Q 269 2738 367 3188 
Q 466 3638 656 3942 
Q 847 4247 1130 4401 
Q 1413 4556 1778 4556 
Q 3188 4556 3188 2259 
z
M 2663 2209 
Q 2663 4122 1753 4122 
Q 794 4122 794 2175 
Q 794 359 1734 359 
Q 2663 359 2663 2209 
z
" transform="scale(0.015625)"/>
        <path id="SegoeUI-20" transform="scale(0.015625)"/>
        <path id="SegoeUI-6d" d="M 5063 0 
L 4550 0 
L 4550 1838 
Q 4550 2369 4386 2606 
Q 4222 2844 3834 2844 
Q 3506 2844 3276 2544 
Q 3047 2244 3047 1825 
L 3047 0 
L 2534 0 
L 2534 1900 
Q 2534 2844 1806 2844 
Q 1469 2844 1250 2561 
Q 1031 2278 1031 1825 
L 1031 0 
L 519 0 
L 519 3200 
L 1031 3200 
L 1031 2694 
L 1044 2694 
Q 1384 3275 2038 3275 
Q 2366 3275 2609 3092 
Q 2853 2909 2944 2613 
Q 3300 3275 4006 3275 
Q 5063 3275 5063 1972 
L 5063 0 
z
" transform="scale(0.015625)"/>
        <path id="SegoeUI-69" d="M 781 4013 
Q 644 4013 547 4106 
Q 450 4200 450 4344 
Q 450 4488 547 4583 
Q 644 4678 781 4678 
Q 922 4678 1020 4583 
Q 1119 4488 1119 4344 
Q 1119 4206 1020 4109 
Q 922 4013 781 4013 
z
M 1031 0 
L 519 0 
L 519 3200 
L 1031 3200 
L 1031 0 
z
" transform="scale(0.015625)"/>
        <path id="SegoeUI-6e" d="M 3175 0 
L 2663 0 
L 2663 1825 
Q 2663 2844 1919 2844 
Q 1534 2844 1282 2555 
Q 1031 2266 1031 1825 
L 1031 0 
L 519 0 
L 519 3200 
L 1031 3200 
L 1031 2669 
L 1044 2669 
Q 1406 3275 2094 3275 
Q 2619 3275 2897 2936 
Q 3175 2597 3175 1956 
L 3175 0 
z
" transform="scale(0.015625)"/>
        <path id="SegoeUI-75" d="M 3106 0 
L 2594 0 
L 2594 506 
L 2581 506 
Q 2263 -75 1594 -75 
Q 450 -75 450 1288 
L 450 3200 
L 959 3200 
L 959 1369 
Q 959 356 1734 356 
Q 2109 356 2351 632 
Q 2594 909 2594 1356 
L 2594 3200 
L 3106 3200 
L 3106 0 
z
" transform="scale(0.015625)"/>
        <path id="SegoeUI-74" d="M 2003 31 
Q 1822 -69 1525 -69 
Q 684 -69 684 869 
L 684 2763 
L 134 2763 
L 134 3200 
L 684 3200 
L 684 3981 
L 1197 4147 
L 1197 3200 
L 2003 3200 
L 2003 2763 
L 1197 2763 
L 1197 959 
Q 1197 638 1306 500 
Q 1416 363 1669 363 
Q 1863 363 2003 469 
L 2003 31 
z
" transform="scale(0.015625)"/>
        <path id="SegoeUI-65" d="M 3091 1472 
L 831 1472 
Q 844 938 1119 647 
Q 1394 356 1875 356 
Q 2416 356 2869 713 
L 2869 231 
Q 2447 -75 1753 -75 
Q 1075 -75 687 361 
Q 300 797 300 1588 
Q 300 2334 723 2804 
Q 1147 3275 1775 3275 
Q 2403 3275 2747 2869 
Q 3091 2463 3091 1741 
L 3091 1472 
z
M 2566 1906 
Q 2563 2350 2352 2597 
Q 2141 2844 1766 2844 
Q 1403 2844 1150 2584 
Q 897 2325 838 1906 
L 2566 1906 
z
" transform="scale(0.015625)"/>
        <path id="SegoeUI-73" d="M 325 116 
L 325 666 
Q 744 356 1247 356 
Q 1922 356 1922 806 
Q 1922 934 1864 1023 
Q 1806 1113 1707 1181 
Q 1609 1250 1476 1304 
Q 1344 1359 1191 1419 
Q 978 1503 817 1589 
Q 656 1675 548 1783 
Q 441 1891 386 2028 
Q 331 2166 331 2350 
Q 331 2575 434 2748 
Q 538 2922 709 3039 
Q 881 3156 1101 3215 
Q 1322 3275 1556 3275 
Q 1972 3275 2300 3131 
L 2300 2613 
Q 1947 2844 1488 2844 
Q 1344 2844 1228 2811 
Q 1113 2778 1030 2718 
Q 947 2659 901 2576 
Q 856 2494 856 2394 
Q 856 2269 901 2184 
Q 947 2100 1034 2034 
Q 1122 1969 1247 1916 
Q 1372 1863 1531 1800 
Q 1744 1719 1912 1633 
Q 2081 1547 2200 1439 
Q 2319 1331 2383 1190 
Q 2447 1050 2447 856 
Q 2447 619 2342 444 
Q 2238 269 2063 153 
Q 1888 38 1659 -18 
Q 1431 -75 1181 -75 
Q 688 -75 325 116 
z
" transform="scale(0.015625)"/>
       </defs>
       <use xlink:href="#SegoeUI-31"/>
       <use xlink:href="#SegoeUI-35" x="53.90625"/>
       <use xlink:href="#SegoeUI-2d" x="107.8125"/>
       <use xlink:href="#SegoeUI-33" x="147.802734"/>
       <use xlink:href="#SegoeUI-30" x="201.708984"/>
       <use xlink:href="#SegoeUI-20" x="255.615234"/>
       <use xlink:href="#SegoeUI-6d" x="283.007812"/>
       <use xlink:href="#SegoeUI-69" x="369.140625"/>
       <use xlink:href="#SegoeUI-6e" x="393.359375"/>
       <use xlink:href="#SegoeUI-75" x="449.951172"/>
       <use xlink:href="#SegoeUI-74" x="506.542969"/>
       <use xlink:href="#SegoeUI-65" x="539.679688"/>
       <use xlink:href="#SegoeUI-73" x="591.974609"/>
      </g>
     </g>
    </g>
    <g id="xtick_2">
     <g id="text_2">
      <!-- 30-60 minutes -->
      <g style="fill: #262626" transform="translate(192.308125 318.7225) scale(0.08 -0.08)">
       <defs>
        <path id="SegoeUI-36" d="M 3194 1422 
Q 3194 1094 3087 819 
Q 2981 544 2793 344 
Q 2606 144 2347 33 
Q 2088 -78 1784 -78 
Q 1447 -78 1180 62 
Q 913 203 727 467 
Q 541 731 444 1112 
Q 347 1494 347 1972 
Q 347 2556 476 3032 
Q 606 3509 845 3848 
Q 1084 4188 1421 4372 
Q 1759 4556 2175 4556 
Q 2638 4556 2919 4428 
L 2919 3944 
Q 2572 4122 2188 4122 
Q 1888 4122 1647 3987 
Q 1406 3853 1234 3608 
Q 1063 3363 970 3016 
Q 878 2669 878 2244 
L 891 2244 
Q 1200 2803 1913 2803 
Q 2206 2803 2442 2703 
Q 2678 2603 2845 2420 
Q 3013 2238 3103 1984 
Q 3194 1731 3194 1422 
z
M 2669 1356 
Q 2669 1591 2609 1778 
Q 2550 1966 2439 2097 
Q 2328 2228 2165 2298 
Q 2003 2369 1797 2369 
Q 1606 2369 1443 2297 
Q 1281 2225 1162 2101 
Q 1044 1978 976 1814 
Q 909 1650 909 1466 
Q 909 1234 975 1032 
Q 1041 831 1159 681 
Q 1278 531 1442 445 
Q 1606 359 1806 359 
Q 2000 359 2159 432 
Q 2319 506 2431 637 
Q 2544 769 2606 951 
Q 2669 1134 2669 1356 
z
" transform="scale(0.015625)"/>
       </defs>
       <use xlink:href="#SegoeUI-33"/>
       <use xlink:href="#SegoeUI-30" x="53.90625"/>
       <use xlink:href="#SegoeUI-2d" x="107.8125"/>
       <use xlink:href="#SegoeUI-36" x="147.802734"/>
       <use xlink:href="#SegoeUI-30" x="201.708984"/>
       <use xlink:href="#SegoeUI-20" x="255.615234"/>
       <use xlink:href="#SegoeUI-6d" x="283.007812"/>
       <use xlink:href="#SegoeUI-69" x="369.140625"/>
       <use xlink:href="#SegoeUI-6e" x="393.359375"/>
       <use xlink:href="#SegoeUI-75" x="449.951172"/>
       <use xlink:href="#SegoeUI-74" x="506.542969"/>
       <use xlink:href="#SegoeUI-65" x="539.679688"/>
       <use xlink:href="#SegoeUI-73" x="591.974609"/>
      </g>
     </g>
    </g>
    <g id="xtick_3">
     <g id="text_3">
      <!-- 1-3 hours -->
      <g style="fill: #262626" transform="translate(298.323125 318.7225) scale(0.08 -0.08)">
       <defs>
        <path id="SegoeUI-68" d="M 3175 0 
L 2663 0 
L 2663 1844 
Q 2663 2844 1919 2844 
Q 1544 2844 1287 2555 
Q 1031 2266 1031 1813 
L 1031 0 
L 519 0 
L 519 4738 
L 1031 4738 
L 1031 2669 
L 1044 2669 
Q 1413 3275 2094 3275 
Q 3175 3275 3175 1972 
L 3175 0 
z
" transform="scale(0.015625)"/>
        <path id="SegoeUI-6f" d="M 1856 -75 
Q 1147 -75 723 373 
Q 300 822 300 1563 
Q 300 2369 740 2822 
Q 1181 3275 1931 3275 
Q 2647 3275 3048 2834 
Q 3450 2394 3450 1613 
Q 3450 847 3017 386 
Q 2584 -75 1856 -75 
z
M 1894 2844 
Q 1400 2844 1112 2508 
Q 825 2172 825 1581 
Q 825 1013 1115 684 
Q 1406 356 1894 356 
Q 2391 356 2658 678 
Q 2925 1000 2925 1594 
Q 2925 2194 2658 2519 
Q 2391 2844 1894 2844 
z
" transform="scale(0.015625)"/>
        <path id="SegoeUI-72" d="M 2188 2681 
Q 2053 2784 1800 2784 
Q 1472 2784 1251 2475 
Q 1031 2166 1031 1631 
L 1031 0 
L 519 0 
L 519 3200 
L 1031 3200 
L 1031 2541 
L 1044 2541 
Q 1153 2878 1378 3067 
Q 1603 3256 1881 3256 
Q 2081 3256 2188 3213 
L 2188 2681 
z
" transform="scale(0.015625)"/>
       </defs>
       <use xlink:href="#SegoeUI-31"/>
       <use xlink:href="#SegoeUI-2d" x="53.90625"/>
       <use xlink:href="#SegoeUI-33" x="93.896484"/>
       <use xlink:href="#SegoeUI-20" x="147.802734"/>
       <use xlink:href="#SegoeUI-68" x="175.195312"/>
       <use xlink:href="#SegoeUI-6f" x="231.787109"/>
       <use xlink:href="#SegoeUI-75" x="290.380859"/>
       <use xlink:href="#SegoeUI-72" x="346.972656"/>
       <use xlink:href="#SegoeUI-73" x="382.363281"/>
      </g>
     </g>
    </g>
    <g id="xtick_4">
     <g id="text_4">
      <!-- More than 3 hours -->
      <g style="fill: #262626" transform="translate(380.23625 318.7225) scale(0.08 -0.08)">
       <defs>
        <path id="SegoeUI-4d" d="M 5156 0 
L 4634 0 
L 4634 3006 
Q 4634 3363 4678 3878 
L 4666 3878 
Q 4591 3575 4531 3444 
L 3000 0 
L 2744 0 
L 1216 3419 
Q 1150 3569 1081 3878 
L 1069 3878 
Q 1094 3609 1094 3000 
L 1094 0 
L 588 0 
L 588 4481 
L 1281 4481 
L 2656 1356 
Q 2816 997 2863 819 
L 2881 819 
Q 3016 1188 3097 1369 
L 4500 4481 
L 5156 4481 
L 5156 0 
z
" transform="scale(0.015625)"/>
        <path id="SegoeUI-61" d="M 2809 0 
L 2297 0 
L 2297 500 
L 2284 500 
Q 1950 -75 1300 -75 
Q 822 -75 551 178 
Q 281 431 281 850 
Q 281 1747 1338 1894 
L 2297 2028 
Q 2297 2844 1638 2844 
Q 1059 2844 594 2450 
L 594 2975 
Q 1066 3275 1681 3275 
Q 2809 3275 2809 2081 
L 2809 0 
z
M 2297 1619 
L 1525 1513 
Q 1169 1463 987 1336 
Q 806 1209 806 888 
Q 806 653 973 504 
Q 1141 356 1419 356 
Q 1800 356 2048 623 
Q 2297 891 2297 1300 
L 2297 1619 
z
" transform="scale(0.015625)"/>
       </defs>
       <use xlink:href="#SegoeUI-4d"/>
       <use xlink:href="#SegoeUI-6f" x="89.794922"/>
       <use xlink:href="#SegoeUI-72" x="148.388672"/>
       <use xlink:href="#SegoeUI-65" x="181.779297"/>
       <use xlink:href="#SegoeUI-20" x="234.074219"/>
       <use xlink:href="#SegoeUI-74" x="261.466797"/>
       <use xlink:href="#SegoeUI-68" x="295.353516"/>
       <use xlink:href="#SegoeUI-61" x="351.945312"/>
       <use xlink:href="#SegoeUI-6e" x="402.824219"/>
       <use xlink:href="#SegoeUI-20" x="459.416016"/>
       <use xlink:href="#SegoeUI-33" x="486.808594"/>
       <use xlink:href="#SegoeUI-20" x="540.714844"/>
       <use xlink:href="#SegoeUI-68" x="568.107422"/>
       <use xlink:href="#SegoeUI-6f" x="624.699219"/>
       <use xlink:href="#SegoeUI-75" x="683.292969"/>
       <use xlink:href="#SegoeUI-72" x="739.884766"/>
       <use xlink:href="#SegoeUI-73" x="775.275391"/>
      </g>
     </g>
    </g>
    <g id="text_5">
     <!-- Time spent on personal duties per day -->
     <g style="fill: #262626" transform="translate(181.992969 337.965625) scale(0.1 -0.1)">
      <defs>
       <path id="SegoeUI-54" d="M 3238 4006 
L 1944 4006 
L 1944 0 
L 1419 0 
L 1419 4006 
L 128 4006 
L 128 4481 
L 3238 4481 
L 3238 4006 
z
" transform="scale(0.015625)"/>
       <path id="SegoeUI-70" d="M 1044 463 
L 1031 463 
L 1031 -1472 
L 519 -1472 
L 519 3200 
L 1031 3200 
L 1031 2638 
L 1044 2638 
Q 1422 3275 2150 3275 
Q 2769 3275 3116 2845 
Q 3463 2416 3463 1694 
Q 3463 891 3072 408 
Q 2681 -75 2003 -75 
Q 1381 -75 1044 463 
z
M 1031 1753 
L 1031 1306 
Q 1031 909 1289 632 
Q 1547 356 1944 356 
Q 2409 356 2673 712 
Q 2938 1069 2938 1703 
Q 2938 2238 2691 2541 
Q 2444 2844 2022 2844 
Q 1575 2844 1303 2533 
Q 1031 2222 1031 1753 
z
" transform="scale(0.015625)"/>
       <path id="SegoeUI-6c" d="M 1031 0 
L 519 0 
L 519 4738 
L 1031 4738 
L 1031 0 
z
" transform="scale(0.015625)"/>
       <path id="SegoeUI-64" d="M 3250 0 
L 2738 0 
L 2738 544 
L 2725 544 
Q 2369 -75 1625 -75 
Q 1022 -75 661 354 
Q 300 784 300 1525 
Q 300 2319 700 2797 
Q 1100 3275 1766 3275 
Q 2425 3275 2725 2756 
L 2738 2756 
L 2738 4738 
L 3250 4738 
L 3250 0 
z
M 2738 1447 
L 2738 1919 
Q 2738 2306 2481 2575 
Q 2225 2844 1831 2844 
Q 1363 2844 1094 2500 
Q 825 2156 825 1550 
Q 825 997 1083 676 
Q 1341 356 1775 356 
Q 2203 356 2470 665 
Q 2738 975 2738 1447 
z
" transform="scale(0.015625)"/>
       <path id="SegoeUI-79" d="M 3066 3200 
L 1594 -513 
Q 1200 -1506 488 -1506 
Q 288 -1506 153 -1466 
L 153 -1006 
Q 319 -1063 456 -1063 
Q 844 -1063 1038 -600 
L 1294 6 
L 44 3200 
L 613 3200 
L 1478 738 
Q 1494 691 1544 494 
L 1563 494 
Q 1578 569 1625 731 
L 2534 3200 
L 3066 3200 
z
" transform="scale(0.015625)"/>
      </defs>
      <use xlink:href="#SegoeUI-54"/>
      <use xlink:href="#SegoeUI-69" x="52.392578"/>
      <use xlink:href="#SegoeUI-6d" x="76.611328"/>
      <use xlink:href="#SegoeUI-65" x="162.744141"/>
      <use xlink:href="#SegoeUI-20" x="215.039062"/>
      <use xlink:href="#SegoeUI-73" x="242.431641"/>
      <use xlink:href="#SegoeUI-70" x="284.863281"/>
      <use xlink:href="#SegoeUI-65" x="343.652344"/>
      <use xlink:href="#SegoeUI-6e" x="395.947266"/>
      <use xlink:href="#SegoeUI-74" x="452.539062"/>
      <use xlink:href="#SegoeUI-20" x="486.425781"/>
      <use xlink:href="#SegoeUI-6f" x="513.818359"/>
      <use xlink:href="#SegoeUI-6e" x="572.412109"/>
      <use xlink:href="#SegoeUI-20" x="629.003906"/>
      <use xlink:href="#SegoeUI-70" x="656.396484"/>
      <use xlink:href="#SegoeUI-65" x="715.185547"/>
      <use xlink:href="#SegoeUI-72" x="767.480469"/>
      <use xlink:href="#SegoeUI-73" x="802.871094"/>
      <use xlink:href="#SegoeUI-6f" x="845.302734"/>
      <use xlink:href="#SegoeUI-6e" x="903.896484"/>
      <use xlink:href="#SegoeUI-61" x="960.488281"/>
      <use xlink:href="#SegoeUI-6c" x="1011.367188"/>
      <use xlink:href="#SegoeUI-20" x="1035.585938"/>
      <use xlink:href="#SegoeUI-64" x="1062.978516"/>
      <use xlink:href="#SegoeUI-75" x="1121.865234"/>
      <use xlink:href="#SegoeUI-74" x="1178.457031"/>
      <use xlink:href="#SegoeUI-69" x="1212.34375"/>
      <use xlink:href="#SegoeUI-65" x="1236.5625"/>
      <use xlink:href="#SegoeUI-73" x="1288.857422"/>
      <use xlink:href="#SegoeUI-20" x="1331.289062"/>
      <use xlink:href="#SegoeUI-70" x="1358.681641"/>
      <use xlink:href="#SegoeUI-65" x="1417.470703"/>
      <use xlink:href="#SegoeUI-72" x="1469.765625"/>
      <use xlink:href="#SegoeUI-20" x="1504.53125"/>
      <use xlink:href="#SegoeUI-64" x="1531.923828"/>
      <use xlink:href="#SegoeUI-61" x="1590.810547"/>
      <use xlink:href="#SegoeUI-79" x="1641.689453"/>
     </g>
    </g>
   </g>
   <g id="matplotlib.axis_2">
    <g id="ytick_1">
     <g id="line2d_1">
      <path d="M 71.24 300.3 
L 461.76 300.3 
" clip-path="url(#p3a99e4a42f)" style="fill: none; stroke: #ffffff; stroke-width: 1.5; stroke-linecap: round"/>
     </g>
     <g id="text_6">
      <!-- Never -->
      <g style="fill: #262626" transform="translate(37.82375 303.26125) scale(0.08 -0.08)">
       <defs>
        <path id="SegoeUI-4e" d="M 4200 0 
L 3556 0 
L 1250 3572 
Q 1163 3706 1106 3853 
L 1088 3853 
Q 1113 3709 1113 3238 
L 1113 0 
L 588 0 
L 588 4481 
L 1269 4481 
L 3513 966 
Q 3653 747 3694 666 
L 3706 666 
Q 3675 859 3675 1325 
L 3675 4481 
L 4200 4481 
L 4200 0 
z
" transform="scale(0.015625)"/>
        <path id="SegoeUI-76" d="M 3034 3200 
L 1759 0 
L 1256 0 
L 44 3200 
L 606 3200 
L 1419 875 
Q 1509 619 1531 428 
L 1544 428 
Q 1575 669 1644 863 
L 2494 3200 
L 3034 3200 
z
" transform="scale(0.015625)"/>
       </defs>
       <use xlink:href="#SegoeUI-4e"/>
       <use xlink:href="#SegoeUI-65" x="74.804688"/>
       <use xlink:href="#SegoeUI-76" x="127.099609"/>
       <use xlink:href="#SegoeUI-65" x="174.375"/>
       <use xlink:href="#SegoeUI-72" x="226.669922"/>
      </g>
     </g>
    </g>
    <g id="ytick_2">
     <g id="line2d_2">
      <path d="M 71.24 241.005 
L 461.76 241.005 
" clip-path="url(#p3a99e4a42f)" style="fill: none; stroke: #ffffff; stroke-width: 1.5; stroke-linecap: round"/>
     </g>
     <g id="text_7">
      <!-- Rarely -->
      <g style="fill: #262626" transform="translate(37.22125 243.96625) scale(0.08 -0.08)">
       <defs>
        <path id="SegoeUI-52" d="M 3800 0 
L 3175 0 
L 2425 1256 
Q 2322 1431 2225 1554 
Q 2128 1678 2026 1756 
Q 1925 1834 1808 1870 
Q 1691 1906 1544 1906 
L 1113 1906 
L 1113 0 
L 588 0 
L 588 4481 
L 1925 4481 
Q 2219 4481 2467 4407 
Q 2716 4334 2898 4184 
Q 3081 4034 3184 3811 
Q 3288 3588 3288 3288 
Q 3288 3053 3217 2858 
Q 3147 2663 3017 2509 
Q 2888 2356 2705 2248 
Q 2522 2141 2294 2081 
L 2294 2069 
Q 2406 2019 2489 1955 
Q 2572 1891 2647 1803 
Q 2722 1716 2795 1605 
Q 2869 1494 2959 1347 
L 3800 0 
z
M 1113 4006 
L 1113 2381 
L 1825 2381 
Q 2022 2381 2189 2440 
Q 2356 2500 2478 2611 
Q 2600 2722 2669 2883 
Q 2738 3044 2738 3244 
Q 2738 3603 2505 3804 
Q 2272 4006 1831 4006 
L 1113 4006 
z
" transform="scale(0.015625)"/>
       </defs>
       <use xlink:href="#SegoeUI-52"/>
       <use xlink:href="#SegoeUI-61" x="59.814453"/>
       <use xlink:href="#SegoeUI-72" x="110.693359"/>
       <use xlink:href="#SegoeUI-65" x="144.083984"/>
       <use xlink:href="#SegoeUI-6c" x="196.378906"/>
       <use xlink:href="#SegoeUI-79" x="220.597656"/>
      </g>
     </g>
    </g>
    <g id="ytick_3">
     <g id="line2d_3">
      <path d="M 71.24 181.71 
L 461.76 181.71 
" clip-path="url(#p3a99e4a42f)" style="fill: none; stroke: #ffffff; stroke-width: 1.5; stroke-linecap: round"/>
     </g>
     <g id="text_8">
      <!-- Sometimes -->
      <g style="fill: #262626" transform="translate(19.60875 184.67125) scale(0.08 -0.08)">
       <defs>
        <path id="SegoeUI-53" d="M 378 181 
L 378 800 
Q 484 706 632 631 
Q 781 556 945 504 
Q 1109 453 1275 425 
Q 1441 397 1581 397 
Q 2066 397 2305 576 
Q 2544 756 2544 1094 
Q 2544 1275 2464 1409 
Q 2384 1544 2243 1655 
Q 2103 1766 1911 1867 
Q 1719 1969 1497 2081 
Q 1263 2200 1059 2322 
Q 856 2444 706 2591 
Q 556 2738 470 2923 
Q 384 3109 384 3359 
Q 384 3666 518 3892 
Q 653 4119 872 4266 
Q 1091 4413 1370 4484 
Q 1650 4556 1941 4556 
Q 2603 4556 2906 4397 
L 2906 3806 
Q 2509 4081 1888 4081 
Q 1716 4081 1544 4045 
Q 1372 4009 1237 3928 
Q 1103 3847 1018 3719 
Q 934 3591 934 3406 
Q 934 3234 998 3109 
Q 1063 2984 1188 2881 
Q 1313 2778 1492 2681 
Q 1672 2584 1906 2469 
Q 2147 2350 2362 2219 
Q 2578 2088 2740 1928 
Q 2903 1769 2998 1575 
Q 3094 1381 3094 1131 
Q 3094 800 2964 570 
Q 2834 341 2614 197 
Q 2394 53 2106 -11 
Q 1819 -75 1500 -75 
Q 1394 -75 1237 -58 
Q 1081 -41 918 -8 
Q 756 25 611 73 
Q 466 122 378 181 
z
" transform="scale(0.015625)"/>
       </defs>
       <use xlink:href="#SegoeUI-53"/>
       <use xlink:href="#SegoeUI-6f" x="53.125"/>
       <use xlink:href="#SegoeUI-6d" x="111.71875"/>
       <use xlink:href="#SegoeUI-65" x="197.851562"/>
       <use xlink:href="#SegoeUI-74" x="250.146484"/>
       <use xlink:href="#SegoeUI-69" x="284.033203"/>
       <use xlink:href="#SegoeUI-6d" x="308.251953"/>
       <use xlink:href="#SegoeUI-65" x="394.384766"/>
       <use xlink:href="#SegoeUI-73" x="446.679688"/>
      </g>
     </g>
    </g>
    <g id="ytick_4">
     <g id="line2d_4">
      <path d="M 71.24 122.415 
L 461.76 122.415 
" clip-path="url(#p3a99e4a42f)" style="fill: none; stroke: #ffffff; stroke-width: 1.5; stroke-linecap: round"/>
     </g>
     <g id="text_9">
      <!-- Usually -->
      <g style="fill: #262626" transform="translate(33.505 125.37625) scale(0.08 -0.08)">
       <defs>
        <path id="SegoeUI-55" d="M 3866 1813 
Q 3866 -75 2163 -75 
Q 531 -75 531 1741 
L 531 4481 
L 1056 4481 
L 1056 1775 
Q 1056 397 2219 397 
Q 3341 397 3341 1728 
L 3341 4481 
L 3866 4481 
L 3866 1813 
z
" transform="scale(0.015625)"/>
       </defs>
       <use xlink:href="#SegoeUI-55"/>
       <use xlink:href="#SegoeUI-73" x="68.701172"/>
       <use xlink:href="#SegoeUI-75" x="111.132812"/>
       <use xlink:href="#SegoeUI-61" x="167.724609"/>
       <use xlink:href="#SegoeUI-6c" x="218.603516"/>
       <use xlink:href="#SegoeUI-6c" x="242.822266"/>
       <use xlink:href="#SegoeUI-79" x="267.041016"/>
      </g>
     </g>
    </g>
    <g id="ytick_5">
     <g id="line2d_5">
      <path d="M 71.24 63.12 
L 461.76 63.12 
" clip-path="url(#p3a99e4a42f)" style="fill: none; stroke: #ffffff; stroke-width: 1.5; stroke-linecap: round"/>
     </g>
     <g id="text_10">
      <!-- Always -->
      <g style="fill: #262626" transform="translate(34.525 66.08125) scale(0.08 -0.08)">
       <defs>
        <path id="SegoeUI-41" d="M 4056 0 
L 3475 0 
L 3000 1256 
L 1100 1256 
L 653 0 
L 69 0 
L 1788 4481 
L 2331 4481 
L 4056 0 
z
M 2828 1728 
L 2125 3638 
Q 2091 3731 2056 3938 
L 2044 3938 
Q 2013 3747 1972 3638 
L 1275 1728 
L 2828 1728 
z
" transform="scale(0.015625)"/>
        <path id="SegoeUI-77" d="M 4550 3200 
L 3591 0 
L 3059 0 
L 2400 2291 
Q 2363 2422 2350 2588 
L 2338 2588 
Q 2328 2475 2272 2297 
L 1556 0 
L 1044 0 
L 75 3200 
L 613 3200 
L 1275 794 
Q 1306 684 1319 506 
L 1344 506 
Q 1353 644 1400 800 
L 2138 3200 
L 2606 3200 
L 3269 788 
Q 3300 672 3316 500 
L 3341 500 
Q 3347 622 3394 788 
L 4044 3200 
L 4550 3200 
z
" transform="scale(0.015625)"/>
       </defs>
       <use xlink:href="#SegoeUI-41"/>
       <use xlink:href="#SegoeUI-6c" x="64.501953"/>
       <use xlink:href="#SegoeUI-77" x="88.720703"/>
       <use xlink:href="#SegoeUI-61" x="160.986328"/>
       <use xlink:href="#SegoeUI-79" x="211.865234"/>
       <use xlink:href="#SegoeUI-73" x="260.253906"/>
      </g>
     </g>
    </g>
   </g>
   <g id="line2d_6">
    <path d="M 120.055 161.945 
L 217.685 147.12125 
L 315.315 143.7612 
L 412.945 151.576475 
" clip-path="url(#p3a99e4a42f)" style="fill: none; stroke: #0173b2; stroke-width: 1.8; stroke-linecap: round"/>
    <defs>
     <path id="m28aaccbcea" d="M 0 2.255965 
C 0.598289 2.255965 1.172154 2.018263 1.595208 1.595208 
C 2.018263 1.172154 2.255965 0.598289 2.255965 0 
C 2.255965 -0.598289 2.018263 -1.172154 1.595208 -1.595208 
C 1.172154 -2.018263 0.598289 -2.255965 0 -2.255965 
C -0.598289 -2.255965 -1.172154 -2.018263 -1.595208 -1.595208 
C -2.018263 -1.172154 -2.255965 -0.598289 -2.255965 0 
C -2.255965 0.598289 -2.018263 1.172154 -1.595208 1.595208 
C -1.172154 2.018263 -0.598289 2.255965 0 2.255965 
z
" style="stroke: #0173b2; stroke-width: 1.35"/>
    </defs>
    <g clip-path="url(#p3a99e4a42f)">
     <use xlink:href="#m28aaccbcea" x="120.055" y="161.945" style="fill: #0173b2; stroke: #0173b2; stroke-width: 1.35"/>
     <use xlink:href="#m28aaccbcea" x="217.685" y="147.12125" style="fill: #0173b2; stroke: #0173b2; stroke-width: 1.35"/>
     <use xlink:href="#m28aaccbcea" x="315.315" y="143.7612" style="fill: #0173b2; stroke: #0173b2; stroke-width: 1.35"/>
     <use xlink:href="#m28aaccbcea" x="412.945" y="151.576475" style="fill: #0173b2; stroke: #0173b2; stroke-width: 1.35"/>
    </g>
   </g>
   <g id="line2d_7">
    <path d="M 110.292 210.359165 
L 129.818 210.359165 
M 120.055 210.359165 
L 120.055 113.530835 
M 110.292 113.530835 
L 129.818 113.530835 
" clip-path="url(#p3a99e4a42f)" style="fill: none; stroke: #0173b2; stroke-width: 1.8; stroke-linecap: round"/>
   </g>
   <g id="line2d_8">
    <path d="M 207.922 206.191221 
L 227.448 206.191221 
M 217.685 206.191221 
L 217.685 88.051279 
M 207.922 88.051279 
L 227.448 88.051279 
" clip-path="url(#p3a99e4a42f)" style="fill: none; stroke: #0173b2; stroke-width: 1.8; stroke-linecap: round"/>
   </g>
   <g id="line2d_9">
    <path d="M 305.552 191.810887 
L 325.078 191.810887 
M 315.315 191.810887 
L 315.315 95.711513 
M 305.552 95.711513 
L 325.078 95.711513 
" clip-path="url(#p3a99e4a42f)" style="fill: none; stroke: #0173b2; stroke-width: 1.8; stroke-linecap: round"/>
   </g>
   <g id="line2d_10">
    <path d="M 403.182 201.916674 
L 422.708 201.916674 
M 412.945 201.916674 
L 412.945 101.236277 
M 403.182 101.236277 
L 422.708 101.236277 
" clip-path="url(#p3a99e4a42f)" style="fill: none; stroke: #0173b2; stroke-width: 1.8; stroke-linecap: round"/>
   </g>
   <g id="patch_3">
    <path d="M 71.24 300.3 
L 71.24 63.12 
" style="fill: none; stroke: #ffffff; stroke-width: 1.875; stroke-linejoin: miter; stroke-linecap: square"/>
   </g>
   <g id="patch_4">
    <path d="M 71.24 300.3 
L 461.76 300.3 
" style="fill: none; stroke: #ffffff; stroke-width: 1.875; stroke-linejoin: miter; stroke-linecap: square"/>
   </g>
  </g>
  <g id="text_11">
   <!-- Daily personal duties vs meeting deadlines frequency -->
   <g style="fill: #262626" transform="translate(-12.231375 5.42025) scale(0.216 -0.216)">
    <defs>
     <path id="SegoeUI-44" d="M 588 0 
L 588 4481 
L 1825 4481 
Q 4194 4481 4194 2297 
Q 4194 1259 3536 629 
Q 2878 0 1775 0 
L 588 0 
z
M 1113 4006 
L 1113 475 
L 1781 475 
Q 2663 475 3153 947 
Q 3644 1419 3644 2284 
Q 3644 4006 1813 4006 
L 1113 4006 
z
" transform="scale(0.015625)"/>
     <path id="SegoeUI-67" d="M 3250 256 
Q 3250 -1506 1563 -1506 
Q 969 -1506 525 -1281 
L 525 -769 
Q 1066 -1069 1556 -1069 
Q 2738 -1069 2738 188 
L 2738 538 
L 2725 538 
Q 2359 -75 1625 -75 
Q 1028 -75 664 351 
Q 300 778 300 1497 
Q 300 2313 692 2794 
Q 1084 3275 1766 3275 
Q 2413 3275 2725 2756 
L 2738 2756 
L 2738 3200 
L 3250 3200 
L 3250 256 
z
M 2738 1447 
L 2738 1919 
Q 2738 2300 2480 2572 
Q 2222 2844 1838 2844 
Q 1363 2844 1094 2498 
Q 825 2153 825 1531 
Q 825 997 1083 676 
Q 1341 356 1766 356 
Q 2197 356 2467 662 
Q 2738 969 2738 1447 
z
" transform="scale(0.015625)"/>
     <path id="SegoeUI-66" d="M 2100 4288 
Q 1950 4372 1759 4372 
Q 1222 4372 1222 3694 
L 1222 3200 
L 1972 3200 
L 1972 2763 
L 1222 2763 
L 1222 0 
L 713 0 
L 713 2763 
L 166 2763 
L 166 3200 
L 713 3200 
L 713 3719 
Q 713 4222 1003 4514 
Q 1294 4806 1728 4806 
Q 1963 4806 2100 4750 
L 2100 4288 
z
" transform="scale(0.015625)"/>
     <path id="SegoeUI-71" d="M 3250 -1472 
L 2738 -1472 
L 2738 550 
L 2725 550 
Q 2391 -75 1631 -75 
Q 1028 -75 664 354 
Q 300 784 300 1525 
Q 300 2322 700 2798 
Q 1100 3275 1775 3275 
Q 2431 3275 2725 2756 
L 2738 2756 
L 2738 3200 
L 3250 3200 
L 3250 -1472 
z
M 2738 1441 
L 2738 1906 
Q 2738 2300 2480 2572 
Q 2222 2844 1825 2844 
Q 1363 2844 1094 2501 
Q 825 2159 825 1538 
Q 825 984 1084 670 
Q 1344 356 1753 356 
Q 2203 356 2470 664 
Q 2738 972 2738 1441 
z
" transform="scale(0.015625)"/>
     <path id="SegoeUI-63" d="M 2700 147 
Q 2331 -75 1825 -75 
Q 1141 -75 720 370 
Q 300 816 300 1525 
Q 300 2316 753 2795 
Q 1206 3275 1963 3275 
Q 2384 3275 2706 3119 
L 2706 2594 
Q 2350 2844 1944 2844 
Q 1453 2844 1139 2492 
Q 825 2141 825 1569 
Q 825 1006 1120 681 
Q 1416 356 1913 356 
Q 2331 356 2700 634 
L 2700 147 
z
" transform="scale(0.015625)"/>
    </defs>
    <use xlink:href="#SegoeUI-44"/>
    <use xlink:href="#SegoeUI-61" x="70.117188"/>
    <use xlink:href="#SegoeUI-69" x="120.996094"/>
    <use xlink:href="#SegoeUI-6c" x="145.214844"/>
    <use xlink:href="#SegoeUI-79" x="169.433594"/>
    <use xlink:href="#SegoeUI-20" x="217.822266"/>
    <use xlink:href="#SegoeUI-70" x="245.214844"/>
    <use xlink:href="#SegoeUI-65" x="304.003906"/>
    <use xlink:href="#SegoeUI-72" x="356.298828"/>
    <use xlink:href="#SegoeUI-73" x="391.689453"/>
    <use xlink:href="#SegoeUI-6f" x="434.121094"/>
    <use xlink:href="#SegoeUI-6e" x="492.714844"/>
    <use xlink:href="#SegoeUI-61" x="549.306641"/>
    <use xlink:href="#SegoeUI-6c" x="600.185547"/>
    <use xlink:href="#SegoeUI-20" x="624.404297"/>
    <use xlink:href="#SegoeUI-64" x="651.796875"/>
    <use xlink:href="#SegoeUI-75" x="710.683594"/>
    <use xlink:href="#SegoeUI-74" x="767.275391"/>
    <use xlink:href="#SegoeUI-69" x="801.162109"/>
    <use xlink:href="#SegoeUI-65" x="825.380859"/>
    <use xlink:href="#SegoeUI-73" x="877.675781"/>
    <use xlink:href="#SegoeUI-20" x="920.107422"/>
    <use xlink:href="#SegoeUI-76" x="947.5"/>
    <use xlink:href="#SegoeUI-73" x="995.400391"/>
    <use xlink:href="#SegoeUI-20" x="1037.832031"/>
    <use xlink:href="#SegoeUI-6d" x="1065.224609"/>
    <use xlink:href="#SegoeUI-65" x="1151.357422"/>
    <use xlink:href="#SegoeUI-65" x="1203.652344"/>
    <use xlink:href="#SegoeUI-74" x="1255.947266"/>
    <use xlink:href="#SegoeUI-69" x="1289.833984"/>
    <use xlink:href="#SegoeUI-6e" x="1314.052734"/>
    <use xlink:href="#SegoeUI-67" x="1370.644531"/>
    <use xlink:href="#SegoeUI-20" x="1429.53125"/>
    <use xlink:href="#SegoeUI-64" x="1456.923828"/>
    <use xlink:href="#SegoeUI-65" x="1515.810547"/>
    <use xlink:href="#SegoeUI-61" x="1568.105469"/>
    <use xlink:href="#SegoeUI-64" x="1618.984375"/>
    <use xlink:href="#SegoeUI-6c" x="1677.871094"/>
    <use xlink:href="#SegoeUI-69" x="1702.089844"/>
    <use xlink:href="#SegoeUI-6e" x="1726.308594"/>
    <use xlink:href="#SegoeUI-65" x="1782.900391"/>
    <use xlink:href="#SegoeUI-73" x="1835.195312"/>
    <use xlink:href="#SegoeUI-20" x="1877.626953"/>
    <use xlink:href="#SegoeUI-66" x="1905.019531"/>
    <use xlink:href="#SegoeUI-72" x="1936.318359"/>
    <use xlink:href="#SegoeUI-65" x="1969.708984"/>
    <use xlink:href="#SegoeUI-71" x="2022.003906"/>
    <use xlink:href="#SegoeUI-75" x="2080.890625"/>
    <use xlink:href="#SegoeUI-65" x="2137.482422"/>
    <use xlink:href="#SegoeUI-6e" x="2189.777344"/>
    <use xlink:href="#SegoeUI-63" x="2246.369141"/>
    <use xlink:href="#SegoeUI-79" x="2292.560547"/>
   </g>
  </g>
  <g id="legend_1"/>
 </g>
 <defs>
  <clipPath id="p3a99e4a42f">
   <rect x="71.24" y="63.12" width="390.52" height="237.18"/>
  </clipPath>
 </defs>
</svg>
