<?xml version="1.0" encoding="utf-8" standalone="no"?>
<!DOCTYPE svg PUBLIC "-//W3C//DTD SVG 1.1//EN"
  "http://www.w3.org/Graphics/SVG/1.1/DTD/svg11.dtd">
<svg xmlns:xlink="http://www.w3.org/1999/xlink" width="695.786553pt" height="603.50588pt" viewBox="0 0 695.786553 603.50588" xmlns="http://www.w3.org/2000/svg" version="1.1">
 <metadata>
  <rdf:RDF xmlns:dc="http://purl.org/dc/elements/1.1/" xmlns:cc="http://creativecommons.org/ns#" xmlns:rdf="http://www.w3.org/1999/02/22-rdf-syntax-ns#">
   <cc:Work>
    <dc:type rdf:resource="http://purl.org/dc/dcmitype/StillImage"/>
    <dc:date>2025-10-03T20:14:39.941767</dc:date>
    <dc:format>image/svg+xml</dc:format>
    <dc:creator>
     <cc:Agent>
      <dc:title>Matplotlib v3.9.2, https://matplotlib.org/</dc:title>
     </cc:Agent>
    </dc:creator>
   </cc:Work>
  </rdf:RDF>
 </metadata>
 <defs>
  <style type="text/css">*{stroke-linejoin: round; stroke-linecap: butt}</style>
 </defs>
 <g id="figure_1">
  <g id="patch_1">
   <path d="M 0 603.50588 
L 695.786553 603.50588 
L 695.786553 0 
L 0 0 
L 0 603.50588 
z
" style="fill: none"/>
  </g>
  <g id="axes_1">
   <g id="patch_2">
    <path d="M 638.01409 313.443565 
C 638.01409 276.298426 630.697307 239.514477 616.482478 205.196843 
C 602.267649 170.87921 581.431216 139.695283 555.165636 113.429704 
C 528.900056 87.164124 497.71613 66.327691 463.398496 52.112862 
C 429.080863 37.898032 392.296914 30.58125 355.151775 30.58125 
C 318.006636 30.58125 281.222687 37.898032 246.905053 52.112862 
C 212.58742 66.327691 181.403493 87.164124 155.137914 113.429704 
C 128.872334 139.695283 108.035901 170.87921 93.821072 205.196843 
C 79.606242 239.514477 72.28946 276.298426 72.28946 313.443565 
C 72.28946 350.588704 79.606242 387.372653 93.821072 421.690287 
C 108.035901 456.00792 128.872334 487.191846 155.137914 513.457426 
C 181.403493 539.723006 212.58742 560.559439 246.905053 574.774268 
C 281.222687 588.989097 318.006636 596.30588 355.151775 596.30588 
C 392.296914 596.30588 429.080863 588.989097 463.398496 574.774268 
C 497.71613 560.559439 528.900056 539.723006 555.165636 513.457426 
C 581.431216 487.191846 602.267649 456.00792 616.482478 421.690287 
C 630.697307 387.372653 638.01409 350.588704 638.01409 313.443565 
M 355.151775 313.443565 
C 355.151775 313.443565 355.151775 313.443565 355.151775 313.443565 
C 355.151775 313.443565 355.151775 313.443565 355.151775 313.443565 
C 355.151775 313.443565 355.151775 313.443565 355.151775 313.443565 
C 355.151775 313.443565 355.151775 313.443565 355.151775 313.443565 
C 355.151775 313.443565 355.151775 313.443565 355.151775 313.443565 
C 355.151775 313.443565 355.151775 313.443565 355.151775 313.443565 
C 355.151775 313.443565 355.151775 313.443565 355.151775 313.443565 
C 355.151775 313.443565 355.151775 313.443565 355.151775 313.443565 
C 355.151775 313.443565 355.151775 313.443565 355.151775 313.443565 
C 355.151775 313.443565 355.151775 313.443565 355.151775 313.443565 
C 355.151775 313.443565 355.151775 313.443565 355.151775 313.443565 
C 355.151775 313.443565 355.151775 313.443565 355.151775 313.443565 
C 355.151775 313.443565 355.151775 313.443565 355.151775 313.443565 
C 355.151775 313.443565 355.151775 313.443565 355.151775 313.443565 
C 355.151775 313.443565 355.151775 313.443565 355.151775 313.443565 
C 355.151775 313.443565 355.151775 313.443565 355.151775 313.443565 
L 355.151775 313.443565 
z
" style="fill: none"/>
   </g>
   <g id="patch_3">
    <path d="M 355.151775 108.549709 
L 505.181071 264.696092 
L 451.072331 445.466884 
L 216.599861 504.143915 
L 186.153258 258.532618 
z
" clip-path="url(#p900d3dd634)" style="fill: #66c2a5; opacity: 0.3; stroke: #66c2a5; stroke-width: 1.5; stroke-linejoin: miter"/>
   </g>
   <g id="patch_4">
    <path d="M 355.151775 136.654618 
L 516.562604 260.998008 
L 417.500136 399.258722 
L 209.672265 513.678932 
L 207.191849 265.368471 
z
" clip-path="url(#p900d3dd634)" style="fill: #fc8d62; opacity: 0.3; stroke: #fc8d62; stroke-width: 1.5; stroke-linejoin: miter"/>
   </g>
   <g id="patch_5">
    <path d="M 355.151775 100.034051 
L 495.665666 267.787834 
L 441.994135 432.97182 
L 222.290386 496.311579 
L 207.432043 265.446515 
z
" clip-path="url(#p900d3dd634)" style="fill: #8da0cb; opacity: 0.3; stroke: #8da0cb; stroke-width: 1.5; stroke-linejoin: miter"/>
   </g>
   <g id="line2d_1">
    <path d="M 355.151775 108.549709 
L 505.181071 264.696092 
L 451.072331 445.466884 
L 216.599861 504.143915 
L 186.153258 258.532618 
L 355.151775 108.549709 
" clip-path="url(#p900d3dd634)" style="fill: none; stroke: #66c2a5; stroke-width: 2; stroke-linecap: round"/>
   </g>
   <g id="line2d_2">
    <path d="M 355.151775 136.654618 
L 516.562604 260.998008 
L 417.500136 399.258722 
L 209.672265 513.678932 
L 207.191849 265.368471 
L 355.151775 136.654618 
" clip-path="url(#p900d3dd634)" style="fill: none; stroke: #fc8d62; stroke-width: 2; stroke-linecap: round"/>
   </g>
   <g id="line2d_3">
    <path d="M 355.151775 100.034051 
L 495.665666 267.787834 
L 441.994135 432.97182 
L 222.290386 496.311579 
L 207.432043 265.446515 
L 355.151775 100.034051 
" clip-path="url(#p900d3dd634)" style="fill: none; stroke: #8da0cb; stroke-width: 2; stroke-linecap: round"/>
   </g>
   <g id="patch_6">
    <path d="M 355.151775 30.58125 
C 318.006636 30.58125 281.222687 37.898032 246.905053 52.112862 
C 212.58742 66.327691 181.403493 87.164124 155.137914 113.429704 
C 128.872334 139.695283 108.035901 170.87921 93.821072 205.196843 
C 79.606242 239.514477 72.28946 276.298426 72.28946 313.443565 
C 72.28946 350.588704 79.606242 387.372653 93.821072 421.690287 
C 108.035901 456.00792 128.872334 487.191846 155.137914 513.457426 
C 181.403493 539.723006 212.58742 560.559439 246.905053 574.774268 
C 281.222687 588.989097 318.006636 596.30588 355.151775 596.30588 
C 392.296914 596.30588 429.080863 588.989097 463.398496 574.774268 
C 497.71613 560.559439 528.900056 539.723006 555.165636 513.457426 
C 581.431216 487.191846 602.267649 456.00792 616.482478 421.690287 
C 630.697307 387.372653 638.01409 350.588704 638.01409 313.443565 
C 638.01409 276.298426 630.697307 239.514477 616.482478 205.196843 
C 602.267649 170.87921 581.431216 139.695283 555.165636 113.429704 
C 528.900056 87.164124 497.71613 66.327691 463.398496 52.112862 
C 429.080863 37.898032 392.296914 30.58125 355.151775 30.58125 
" style="fill: none; stroke: #d3d3d3; stroke-width: 1.875; stroke-linejoin: miter; stroke-linecap: square"/>
   </g>
   <g id="matplotlib.axis_1">
    <g id="xtick_1">
     <g id="line2d_4">
      <path d="M 355.151775 313.443565 
L 355.151775 30.58125 
" clip-path="url(#p900d3dd634)" style="fill: none; stroke: #d3d3d3; stroke-width: 1.5; stroke-linecap: round"/>
     </g>
     <g id="text_1">
      <!-- Positive impact -->
      <g style="fill: #262626" transform="translate(328.699275 13.1225) scale(0.08 -0.08)">
       <defs>
        <path id="SegoeUI-50" d="M 1113 1694 
L 1113 0 
L 588 0 
L 588 4481 
L 1819 4481 
Q 2538 4481 2933 4131 
Q 3328 3781 3328 3144 
Q 3328 2506 2889 2100 
Q 2450 1694 1703 1694 
L 1113 1694 
z
M 1113 4006 
L 1113 2169 
L 1663 2169 
Q 2206 2169 2492 2417 
Q 2778 2666 2778 3119 
Q 2778 4006 1728 4006 
L 1113 4006 
z
" transform="scale(0.015625)"/>
        <path id="SegoeUI-6f" d="M 1856 -75 
Q 1147 -75 723 373 
Q 300 822 300 1563 
Q 300 2369 740 2822 
Q 1181 3275 1931 3275 
Q 2647 3275 3048 2834 
Q 3450 2394 3450 1613 
Q 3450 847 3017 386 
Q 2584 -75 1856 -75 
z
M 1894 2844 
Q 1400 2844 1112 2508 
Q 825 2172 825 1581 
Q 825 1013 1115 684 
Q 1406 356 1894 356 
Q 2391 356 2658 678 
Q 2925 1000 2925 1594 
Q 2925 2194 2658 2519 
Q 2391 2844 1894 2844 
z
" transform="scale(0.015625)"/>
        <path id="SegoeUI-73" d="M 325 116 
L 325 666 
Q 744 356 1247 356 
Q 1922 356 1922 806 
Q 1922 934 1864 1023 
Q 1806 1113 1707 1181 
Q 1609 1250 1476 1304 
Q 1344 1359 1191 1419 
Q 978 1503 817 1589 
Q 656 1675 548 1783 
Q 441 1891 386 2028 
Q 331 2166 331 2350 
Q 331 2575 434 2748 
Q 538 2922 709 3039 
Q 881 3156 1101 3215 
Q 1322 3275 1556 3275 
Q 1972 3275 2300 3131 
L 2300 2613 
Q 1947 2844 1488 2844 
Q 1344 2844 1228 2811 
Q 1113 2778 1030 2718 
Q 947 2659 901 2576 
Q 856 2494 856 2394 
Q 856 2269 901 2184 
Q 947 2100 1034 2034 
Q 1122 1969 1247 1916 
Q 1372 1863 1531 1800 
Q 1744 1719 1912 1633 
Q 2081 1547 2200 1439 
Q 2319 1331 2383 1190 
Q 2447 1050 2447 856 
Q 2447 619 2342 444 
Q 2238 269 2063 153 
Q 1888 38 1659 -18 
Q 1431 -75 1181 -75 
Q 688 -75 325 116 
z
" transform="scale(0.015625)"/>
        <path id="SegoeUI-69" d="M 781 4013 
Q 644 4013 547 4106 
Q 450 4200 450 4344 
Q 450 4488 547 4583 
Q 644 4678 781 4678 
Q 922 4678 1020 4583 
Q 1119 4488 1119 4344 
Q 1119 4206 1020 4109 
Q 922 4013 781 4013 
z
M 1031 0 
L 519 0 
L 519 3200 
L 1031 3200 
L 1031 0 
z
" transform="scale(0.015625)"/>
        <path id="SegoeUI-74" d="M 2003 31 
Q 1822 -69 1525 -69 
Q 684 -69 684 869 
L 684 2763 
L 134 2763 
L 134 3200 
L 684 3200 
L 684 3981 
L 1197 4147 
L 1197 3200 
L 2003 3200 
L 2003 2763 
L 1197 2763 
L 1197 959 
Q 1197 638 1306 500 
Q 1416 363 1669 363 
Q 1863 363 2003 469 
L 2003 31 
z
" transform="scale(0.015625)"/>
        <path id="SegoeUI-76" d="M 3034 3200 
L 1759 0 
L 1256 0 
L 44 3200 
L 606 3200 
L 1419 875 
Q 1509 619 1531 428 
L 1544 428 
Q 1575 669 1644 863 
L 2494 3200 
L 3034 3200 
z
" transform="scale(0.015625)"/>
        <path id="SegoeUI-65" d="M 3091 1472 
L 831 1472 
Q 844 938 1119 647 
Q 1394 356 1875 356 
Q 2416 356 2869 713 
L 2869 231 
Q 2447 -75 1753 -75 
Q 1075 -75 687 361 
Q 300 797 300 1588 
Q 300 2334 723 2804 
Q 1147 3275 1775 3275 
Q 2403 3275 2747 2869 
Q 3091 2463 3091 1741 
L 3091 1472 
z
M 2566 1906 
Q 2563 2350 2352 2597 
Q 2141 2844 1766 2844 
Q 1403 2844 1150 2584 
Q 897 2325 838 1906 
L 2566 1906 
z
" transform="scale(0.015625)"/>
        <path id="SegoeUI-20" transform="scale(0.015625)"/>
        <path id="SegoeUI-6d" d="M 5063 0 
L 4550 0 
L 4550 1838 
Q 4550 2369 4386 2606 
Q 4222 2844 3834 2844 
Q 3506 2844 3276 2544 
Q 3047 2244 3047 1825 
L 3047 0 
L 2534 0 
L 2534 1900 
Q 2534 2844 1806 2844 
Q 1469 2844 1250 2561 
Q 1031 2278 1031 1825 
L 1031 0 
L 519 0 
L 519 3200 
L 1031 3200 
L 1031 2694 
L 1044 2694 
Q 1384 3275 2038 3275 
Q 2366 3275 2609 3092 
Q 2853 2909 2944 2613 
Q 3300 3275 4006 3275 
Q 5063 3275 5063 1972 
L 5063 0 
z
" transform="scale(0.015625)"/>
        <path id="SegoeUI-70" d="M 1044 463 
L 1031 463 
L 1031 -1472 
L 519 -1472 
L 519 3200 
L 1031 3200 
L 1031 2638 
L 1044 2638 
Q 1422 3275 2150 3275 
Q 2769 3275 3116 2845 
Q 3463 2416 3463 1694 
Q 3463 891 3072 408 
Q 2681 -75 2003 -75 
Q 1381 -75 1044 463 
z
M 1031 1753 
L 1031 1306 
Q 1031 909 1289 632 
Q 1547 356 1944 356 
Q 2409 356 2673 712 
Q 2938 1069 2938 1703 
Q 2938 2238 2691 2541 
Q 2444 2844 2022 2844 
Q 1575 2844 1303 2533 
Q 1031 2222 1031 1753 
z
" transform="scale(0.015625)"/>
        <path id="SegoeUI-61" d="M 2809 0 
L 2297 0 
L 2297 500 
L 2284 500 
Q 1950 -75 1300 -75 
Q 822 -75 551 178 
Q 281 431 281 850 
Q 281 1747 1338 1894 
L 2297 2028 
Q 2297 2844 1638 2844 
Q 1059 2844 594 2450 
L 594 2975 
Q 1066 3275 1681 3275 
Q 2809 3275 2809 2081 
L 2809 0 
z
M 2297 1619 
L 1525 1513 
Q 1169 1463 987 1336 
Q 806 1209 806 888 
Q 806 653 973 504 
Q 1141 356 1419 356 
Q 1800 356 2048 623 
Q 2297 891 2297 1300 
L 2297 1619 
z
" transform="scale(0.015625)"/>
        <path id="SegoeUI-63" d="M 2700 147 
Q 2331 -75 1825 -75 
Q 1141 -75 720 370 
Q 300 816 300 1525 
Q 300 2316 753 2795 
Q 1206 3275 1963 3275 
Q 2384 3275 2706 3119 
L 2706 2594 
Q 2350 2844 1944 2844 
Q 1453 2844 1139 2492 
Q 825 2141 825 1569 
Q 825 1006 1120 681 
Q 1416 356 1913 356 
Q 2331 356 2700 634 
L 2700 147 
z
" transform="scale(0.015625)"/>
       </defs>
       <use xlink:href="#SegoeUI-50"/>
       <use xlink:href="#SegoeUI-6f" x="52.255859"/>
       <use xlink:href="#SegoeUI-73" x="110.849609"/>
       <use xlink:href="#SegoeUI-69" x="153.28125"/>
       <use xlink:href="#SegoeUI-74" x="177.5"/>
       <use xlink:href="#SegoeUI-69" x="211.386719"/>
       <use xlink:href="#SegoeUI-76" x="235.605469"/>
       <use xlink:href="#SegoeUI-65" x="282.880859"/>
       <use xlink:href="#SegoeUI-20" x="335.175781"/>
       <use xlink:href="#SegoeUI-69" x="362.568359"/>
       <use xlink:href="#SegoeUI-6d" x="386.787109"/>
       <use xlink:href="#SegoeUI-70" x="472.919922"/>
       <use xlink:href="#SegoeUI-61" x="530.333984"/>
       <use xlink:href="#SegoeUI-63" x="581.212891"/>
       <use xlink:href="#SegoeUI-74" x="627.404297"/>
      </g>
     </g>
    </g>
    <g id="xtick_2">
     <g id="line2d_5">
      <path d="M 355.151775 313.443565 
L 624.169823 226.034303 
" clip-path="url(#p900d3dd634)" style="fill: none; stroke: #d3d3d3; stroke-width: 1.5; stroke-linecap: round"/>
     </g>
     <g id="text_2">
      <!-- Rare stress -->
      <g style="fill: #262626" transform="translate(623.889175 222.049721) scale(0.08 -0.08)">
       <defs>
        <path id="SegoeUI-52" d="M 3800 0 
L 3175 0 
L 2425 1256 
Q 2322 1431 2225 1554 
Q 2128 1678 2026 1756 
Q 1925 1834 1808 1870 
Q 1691 1906 1544 1906 
L 1113 1906 
L 1113 0 
L 588 0 
L 588 4481 
L 1925 4481 
Q 2219 4481 2467 4407 
Q 2716 4334 2898 4184 
Q 3081 4034 3184 3811 
Q 3288 3588 3288 3288 
Q 3288 3053 3217 2858 
Q 3147 2663 3017 2509 
Q 2888 2356 2705 2248 
Q 2522 2141 2294 2081 
L 2294 2069 
Q 2406 2019 2489 1955 
Q 2572 1891 2647 1803 
Q 2722 1716 2795 1605 
Q 2869 1494 2959 1347 
L 3800 0 
z
M 1113 4006 
L 1113 2381 
L 1825 2381 
Q 2022 2381 2189 2440 
Q 2356 2500 2478 2611 
Q 2600 2722 2669 2883 
Q 2738 3044 2738 3244 
Q 2738 3603 2505 3804 
Q 2272 4006 1831 4006 
L 1113 4006 
z
" transform="scale(0.015625)"/>
        <path id="SegoeUI-72" d="M 2188 2681 
Q 2053 2784 1800 2784 
Q 1472 2784 1251 2475 
Q 1031 2166 1031 1631 
L 1031 0 
L 519 0 
L 519 3200 
L 1031 3200 
L 1031 2541 
L 1044 2541 
Q 1153 2878 1378 3067 
Q 1603 3256 1881 3256 
Q 2081 3256 2188 3213 
L 2188 2681 
z
" transform="scale(0.015625)"/>
       </defs>
       <use xlink:href="#SegoeUI-52"/>
       <use xlink:href="#SegoeUI-61" x="59.814453"/>
       <use xlink:href="#SegoeUI-72" x="110.693359"/>
       <use xlink:href="#SegoeUI-65" x="144.083984"/>
       <use xlink:href="#SegoeUI-20" x="196.378906"/>
       <use xlink:href="#SegoeUI-73" x="223.771484"/>
       <use xlink:href="#SegoeUI-74" x="266.203125"/>
       <use xlink:href="#SegoeUI-72" x="300.089844"/>
       <use xlink:href="#SegoeUI-65" x="333.480469"/>
       <use xlink:href="#SegoeUI-73" x="385.775391"/>
       <use xlink:href="#SegoeUI-73" x="428.207031"/>
      </g>
     </g>
    </g>
    <g id="xtick_3">
     <g id="line2d_6">
      <path d="M 355.151775 313.443565 
L 521.414072 542.283985 
" clip-path="url(#p900d3dd634)" style="fill: none; stroke: #d3d3d3; stroke-width: 1.5; stroke-linecap: round"/>
     </g>
     <g id="text_3">
      <!-- Rare impostor syndrome -->
      <g style="fill: #262626" transform="translate(489.492759 560.079816) scale(0.08 -0.08)">
       <defs>
        <path id="SegoeUI-79" d="M 3066 3200 
L 1594 -513 
Q 1200 -1506 488 -1506 
Q 288 -1506 153 -1466 
L 153 -1006 
Q 319 -1063 456 -1063 
Q 844 -1063 1038 -600 
L 1294 6 
L 44 3200 
L 613 3200 
L 1478 738 
Q 1494 691 1544 494 
L 1563 494 
Q 1578 569 1625 731 
L 2534 3200 
L 3066 3200 
z
" transform="scale(0.015625)"/>
        <path id="SegoeUI-6e" d="M 3175 0 
L 2663 0 
L 2663 1825 
Q 2663 2844 1919 2844 
Q 1534 2844 1282 2555 
Q 1031 2266 1031 1825 
L 1031 0 
L 519 0 
L 519 3200 
L 1031 3200 
L 1031 2669 
L 1044 2669 
Q 1406 3275 2094 3275 
Q 2619 3275 2897 2936 
Q 3175 2597 3175 1956 
L 3175 0 
z
" transform="scale(0.015625)"/>
        <path id="SegoeUI-64" d="M 3250 0 
L 2738 0 
L 2738 544 
L 2725 544 
Q 2369 -75 1625 -75 
Q 1022 -75 661 354 
Q 300 784 300 1525 
Q 300 2319 700 2797 
Q 1100 3275 1766 3275 
Q 2425 3275 2725 2756 
L 2738 2756 
L 2738 4738 
L 3250 4738 
L 3250 0 
z
M 2738 1447 
L 2738 1919 
Q 2738 2306 2481 2575 
Q 2225 2844 1831 2844 
Q 1363 2844 1094 2500 
Q 825 2156 825 1550 
Q 825 997 1083 676 
Q 1341 356 1775 356 
Q 2203 356 2470 665 
Q 2738 975 2738 1447 
z
" transform="scale(0.015625)"/>
       </defs>
       <use xlink:href="#SegoeUI-52"/>
       <use xlink:href="#SegoeUI-61" x="59.814453"/>
       <use xlink:href="#SegoeUI-72" x="110.693359"/>
       <use xlink:href="#SegoeUI-65" x="144.083984"/>
       <use xlink:href="#SegoeUI-20" x="196.378906"/>
       <use xlink:href="#SegoeUI-69" x="223.771484"/>
       <use xlink:href="#SegoeUI-6d" x="247.990234"/>
       <use xlink:href="#SegoeUI-70" x="334.123047"/>
       <use xlink:href="#SegoeUI-6f" x="392.912109"/>
       <use xlink:href="#SegoeUI-73" x="451.505859"/>
       <use xlink:href="#SegoeUI-74" x="493.9375"/>
       <use xlink:href="#SegoeUI-6f" x="527.074219"/>
       <use xlink:href="#SegoeUI-72" x="585.667969"/>
       <use xlink:href="#SegoeUI-20" x="620.433594"/>
       <use xlink:href="#SegoeUI-73" x="647.826172"/>
       <use xlink:href="#SegoeUI-79" x="690.257812"/>
       <use xlink:href="#SegoeUI-6e" x="738.646484"/>
       <use xlink:href="#SegoeUI-64" x="795.238281"/>
       <use xlink:href="#SegoeUI-72" x="854.125"/>
       <use xlink:href="#SegoeUI-6f" x="887.515625"/>
       <use xlink:href="#SegoeUI-6d" x="946.109375"/>
       <use xlink:href="#SegoeUI-65" x="1032.242188"/>
      </g>
     </g>
    </g>
    <g id="xtick_4">
     <g id="line2d_7">
      <path d="M 355.151775 313.443565 
L 188.889478 542.283985 
" clip-path="url(#p900d3dd634)" style="fill: none; stroke: #d3d3d3; stroke-width: 1.5; stroke-linecap: round"/>
     </g>
     <g id="text_4">
      <!-- Good work-life balance -->
      <g style="fill: #262626" transform="translate(136.696415 560.101066) scale(0.08 -0.08)">
       <defs>
        <path id="SegoeUI-47" d="M 3938 306 
Q 3263 -75 2438 -75 
Q 1478 -75 886 544 
Q 294 1163 294 2181 
Q 294 3222 951 3889 
Q 1609 4556 2619 4556 
Q 3350 4556 3847 4319 
L 3847 3738 
Q 3303 4081 2559 4081 
Q 1806 4081 1325 3562 
Q 844 3044 844 2219 
Q 844 1369 1291 883 
Q 1738 397 2503 397 
Q 3028 397 3413 606 
L 3413 1863 
L 2431 1863 
L 2431 2338 
L 3938 2338 
L 3938 306 
z
" transform="scale(0.015625)"/>
        <path id="SegoeUI-77" d="M 4550 3200 
L 3591 0 
L 3059 0 
L 2400 2291 
Q 2363 2422 2350 2588 
L 2338 2588 
Q 2328 2475 2272 2297 
L 1556 0 
L 1044 0 
L 75 3200 
L 613 3200 
L 1275 794 
Q 1306 684 1319 506 
L 1344 506 
Q 1353 644 1400 800 
L 2138 3200 
L 2606 3200 
L 3269 788 
Q 3300 672 3316 500 
L 3341 500 
Q 3347 622 3394 788 
L 4044 3200 
L 4550 3200 
z
" transform="scale(0.015625)"/>
        <path id="SegoeUI-6b" d="M 3175 0 
L 2456 0 
L 1044 1538 
L 1031 1538 
L 1031 0 
L 519 0 
L 519 4738 
L 1031 4738 
L 1031 1734 
L 1044 1734 
L 2388 3200 
L 3059 3200 
L 1575 1656 
L 3175 0 
z
" transform="scale(0.015625)"/>
        <path id="SegoeUI-2d" d="M 2156 1581 
L 450 1581 
L 450 1984 
L 2156 1984 
L 2156 1581 
z
" transform="scale(0.015625)"/>
        <path id="SegoeUI-6c" d="M 1031 0 
L 519 0 
L 519 4738 
L 1031 4738 
L 1031 0 
z
" transform="scale(0.015625)"/>
        <path id="SegoeUI-66" d="M 2100 4288 
Q 1950 4372 1759 4372 
Q 1222 4372 1222 3694 
L 1222 3200 
L 1972 3200 
L 1972 2763 
L 1222 2763 
L 1222 0 
L 713 0 
L 713 2763 
L 166 2763 
L 166 3200 
L 713 3200 
L 713 3719 
Q 713 4222 1003 4514 
Q 1294 4806 1728 4806 
Q 1963 4806 2100 4750 
L 2100 4288 
z
" transform="scale(0.015625)"/>
        <path id="SegoeUI-62" d="M 1044 463 
L 1031 463 
L 1031 0 
L 519 0 
L 519 4738 
L 1031 4738 
L 1031 2638 
L 1044 2638 
Q 1422 3275 2150 3275 
Q 2766 3275 3114 2845 
Q 3463 2416 3463 1694 
Q 3463 891 3072 408 
Q 2681 -75 2003 -75 
Q 1369 -75 1044 463 
z
M 1031 1753 
L 1031 1306 
Q 1031 909 1289 632 
Q 1547 356 1944 356 
Q 2409 356 2673 712 
Q 2938 1069 2938 1703 
Q 2938 2238 2691 2541 
Q 2444 2844 2022 2844 
Q 1575 2844 1303 2533 
Q 1031 2222 1031 1753 
z
" transform="scale(0.015625)"/>
       </defs>
       <use xlink:href="#SegoeUI-47"/>
       <use xlink:href="#SegoeUI-6f" x="68.603516"/>
       <use xlink:href="#SegoeUI-6f" x="127.197266"/>
       <use xlink:href="#SegoeUI-64" x="185.791016"/>
       <use xlink:href="#SegoeUI-20" x="244.677734"/>
       <use xlink:href="#SegoeUI-77" x="272.070312"/>
       <use xlink:href="#SegoeUI-6f" x="344.085938"/>
       <use xlink:href="#SegoeUI-72" x="402.679688"/>
       <use xlink:href="#SegoeUI-6b" x="437.445312"/>
       <use xlink:href="#SegoeUI-2d" x="480.402344"/>
       <use xlink:href="#SegoeUI-6c" x="520.392578"/>
       <use xlink:href="#SegoeUI-69" x="544.611328"/>
       <use xlink:href="#SegoeUI-66" x="568.830078"/>
       <use xlink:href="#SegoeUI-65" x="600.128906"/>
       <use xlink:href="#SegoeUI-20" x="652.423828"/>
       <use xlink:href="#SegoeUI-62" x="679.816406"/>
       <use xlink:href="#SegoeUI-61" x="737.230469"/>
       <use xlink:href="#SegoeUI-6c" x="788.109375"/>
       <use xlink:href="#SegoeUI-61" x="812.328125"/>
       <use xlink:href="#SegoeUI-6e" x="863.207031"/>
       <use xlink:href="#SegoeUI-63" x="919.798828"/>
       <use xlink:href="#SegoeUI-65" x="965.990234"/>
      </g>
     </g>
    </g>
    <g id="xtick_5">
     <g id="line2d_8">
      <path d="M 355.151775 313.443565 
L 86.133727 226.034303 
" clip-path="url(#p900d3dd634)" style="fill: none; stroke: #d3d3d3; stroke-width: 1.5; stroke-linecap: round"/>
     </g>
     <g id="text_5">
      <!-- Frequent achievement recognition -->
      <g style="fill: #262626" transform="translate(7.2 222.028471) scale(0.08 -0.08)">
       <defs>
        <path id="SegoeUI-46" d="M 2863 4006 
L 1113 4006 
L 1113 2456 
L 2731 2456 
L 2731 1984 
L 1113 1984 
L 1113 0 
L 588 0 
L 588 4481 
L 2863 4481 
L 2863 4006 
z
" transform="scale(0.015625)"/>
        <path id="SegoeUI-71" d="M 3250 -1472 
L 2738 -1472 
L 2738 550 
L 2725 550 
Q 2391 -75 1631 -75 
Q 1028 -75 664 354 
Q 300 784 300 1525 
Q 300 2322 700 2798 
Q 1100 3275 1775 3275 
Q 2431 3275 2725 2756 
L 2738 2756 
L 2738 3200 
L 3250 3200 
L 3250 -1472 
z
M 2738 1441 
L 2738 1906 
Q 2738 2300 2480 2572 
Q 2222 2844 1825 2844 
Q 1363 2844 1094 2501 
Q 825 2159 825 1538 
Q 825 984 1084 670 
Q 1344 356 1753 356 
Q 2203 356 2470 664 
Q 2738 972 2738 1441 
z
" transform="scale(0.015625)"/>
        <path id="SegoeUI-75" d="M 3106 0 
L 2594 0 
L 2594 506 
L 2581 506 
Q 2263 -75 1594 -75 
Q 450 -75 450 1288 
L 450 3200 
L 959 3200 
L 959 1369 
Q 959 356 1734 356 
Q 2109 356 2351 632 
Q 2594 909 2594 1356 
L 2594 3200 
L 3106 3200 
L 3106 0 
z
" transform="scale(0.015625)"/>
        <path id="SegoeUI-68" d="M 3175 0 
L 2663 0 
L 2663 1844 
Q 2663 2844 1919 2844 
Q 1544 2844 1287 2555 
Q 1031 2266 1031 1813 
L 1031 0 
L 519 0 
L 519 4738 
L 1031 4738 
L 1031 2669 
L 1044 2669 
Q 1413 3275 2094 3275 
Q 3175 3275 3175 1972 
L 3175 0 
z
" transform="scale(0.015625)"/>
        <path id="SegoeUI-67" d="M 3250 256 
Q 3250 -1506 1563 -1506 
Q 969 -1506 525 -1281 
L 525 -769 
Q 1066 -1069 1556 -1069 
Q 2738 -1069 2738 188 
L 2738 538 
L 2725 538 
Q 2359 -75 1625 -75 
Q 1028 -75 664 351 
Q 300 778 300 1497 
Q 300 2313 692 2794 
Q 1084 3275 1766 3275 
Q 2413 3275 2725 2756 
L 2738 2756 
L 2738 3200 
L 3250 3200 
L 3250 256 
z
M 2738 1447 
L 2738 1919 
Q 2738 2300 2480 2572 
Q 2222 2844 1838 2844 
Q 1363 2844 1094 2498 
Q 825 2153 825 1531 
Q 825 997 1083 676 
Q 1341 356 1766 356 
Q 2197 356 2467 662 
Q 2738 969 2738 1447 
z
" transform="scale(0.015625)"/>
       </defs>
       <use xlink:href="#SegoeUI-46"/>
       <use xlink:href="#SegoeUI-72" x="48.828125"/>
       <use xlink:href="#SegoeUI-65" x="82.21875"/>
       <use xlink:href="#SegoeUI-71" x="134.513672"/>
       <use xlink:href="#SegoeUI-75" x="193.400391"/>
       <use xlink:href="#SegoeUI-65" x="249.992188"/>
       <use xlink:href="#SegoeUI-6e" x="302.287109"/>
       <use xlink:href="#SegoeUI-74" x="358.878906"/>
       <use xlink:href="#SegoeUI-20" x="392.765625"/>
       <use xlink:href="#SegoeUI-61" x="420.158203"/>
       <use xlink:href="#SegoeUI-63" x="471.037109"/>
       <use xlink:href="#SegoeUI-68" x="517.228516"/>
       <use xlink:href="#SegoeUI-69" x="573.820312"/>
       <use xlink:href="#SegoeUI-65" x="598.039062"/>
       <use xlink:href="#SegoeUI-76" x="650.333984"/>
       <use xlink:href="#SegoeUI-65" x="697.609375"/>
       <use xlink:href="#SegoeUI-6d" x="749.904297"/>
       <use xlink:href="#SegoeUI-65" x="836.037109"/>
       <use xlink:href="#SegoeUI-6e" x="888.332031"/>
       <use xlink:href="#SegoeUI-74" x="944.923828"/>
       <use xlink:href="#SegoeUI-20" x="978.810547"/>
       <use xlink:href="#SegoeUI-72" x="1006.203125"/>
       <use xlink:href="#SegoeUI-65" x="1039.59375"/>
       <use xlink:href="#SegoeUI-63" x="1091.888672"/>
       <use xlink:href="#SegoeUI-6f" x="1138.080078"/>
       <use xlink:href="#SegoeUI-67" x="1196.673828"/>
       <use xlink:href="#SegoeUI-6e" x="1255.560547"/>
       <use xlink:href="#SegoeUI-69" x="1312.152344"/>
       <use xlink:href="#SegoeUI-74" x="1336.371094"/>
       <use xlink:href="#SegoeUI-69" x="1370.257812"/>
       <use xlink:href="#SegoeUI-6f" x="1394.476562"/>
       <use xlink:href="#SegoeUI-6e" x="1453.070312"/>
      </g>
     </g>
    </g>
   </g>
   <g id="matplotlib.axis_2">
    <g id="ytick_1">
     <g id="line2d_9">
      <path d="M 355.151775 313.443565 
C 355.151775 313.443565 355.151775 313.443565 355.151775 313.443565 
C 355.151775 313.443565 355.151775 313.443565 355.151775 313.443565 
C 355.151775 313.443565 355.151775 313.443565 355.151775 313.443565 
C 355.151775 313.443565 355.151775 313.443565 355.151775 313.443565 
C 355.151775 313.443565 355.151775 313.443565 355.151775 313.443565 
C 355.151775 313.443565 355.151775 313.443565 355.151775 313.443565 
C 355.151775 313.443565 355.151775 313.443565 355.151775 313.443565 
C 355.151775 313.443565 355.151775 313.443565 355.151775 313.443565 
C 355.151775 313.443565 355.151775 313.443565 355.151775 313.443565 
C 355.151775 313.443565 355.151775 313.443565 355.151775 313.443565 
C 355.151775 313.443565 355.151775 313.443565 355.151775 313.443565 
C 355.151775 313.443565 355.151775 313.443565 355.151775 313.443565 
C 355.151775 313.443565 355.151775 313.443565 355.151775 313.443565 
C 355.151775 313.443565 355.151775 313.443565 355.151775 313.443565 
C 355.151775 313.443565 355.151775 313.443565 355.151775 313.443565 
C 355.151775 313.443565 355.151775 313.443565 355.151775 313.443565 
" clip-path="url(#p900d3dd634)" style="fill: none; stroke: #d3d3d3; stroke-width: 1.5; stroke-linecap: round"/>
     </g>
     <g id="text_6">
      <!-- 1 -->
      <g style="fill: #262626" transform="translate(355.151775 311.603565) scale(0.08 -0.08)">
       <defs>
        <path id="SegoeUI-31" d="M 2263 0 
L 1750 0 
L 1750 3872 
Q 1691 3813 1577 3736 
Q 1463 3659 1320 3584 
Q 1178 3509 1020 3443 
Q 863 3378 713 3341 
L 713 3859 
Q 881 3906 1070 3986 
Q 1259 4066 1442 4164 
Q 1625 4263 1787 4370 
Q 1950 4478 2069 4581 
L 2263 4581 
L 2263 0 
z
" transform="scale(0.015625)"/>
       </defs>
       <use xlink:href="#SegoeUI-31"/>
      </g>
     </g>
    </g>
    <g id="ytick_2">
     <g id="line2d_10">
      <path d="M 355.151775 242.727986 
C 364.43806 242.727986 373.634047 244.557182 382.213455 248.110889 
C 390.792864 251.664596 398.588845 256.873705 405.15524 263.4401 
C 411.721635 270.006495 416.930743 277.802476 420.484451 286.381885 
C 424.038158 294.961293 425.867354 304.15728 425.867354 313.443565 
C 425.867354 322.72985 424.038158 331.925837 420.484451 340.505245 
C 416.930743 349.084654 411.721635 356.880635 405.15524 363.44703 
C 398.588845 370.013425 390.792864 375.222533 382.213455 378.776241 
C 373.634047 382.329948 364.43806 384.159144 355.151775 384.159144 
C 345.86549 384.159144 336.669503 382.329948 328.090095 378.776241 
C 319.510686 375.222533 311.714705 370.013425 305.14831 363.44703 
C 298.581915 356.880635 293.372806 349.084654 289.819099 340.505245 
C 286.265392 331.925837 284.436196 322.72985 284.436196 313.443565 
C 284.436196 304.15728 286.265392 294.961293 289.819099 286.381885 
C 293.372806 277.802476 298.581915 270.006495 305.14831 263.4401 
C 311.714705 256.873705 319.510686 251.664596 328.090095 248.110889 
C 336.669503 244.557182 345.86549 242.727986 355.151775 242.727986 
" clip-path="url(#p900d3dd634)" style="fill: none; stroke: #d3d3d3; stroke-width: 1.5; stroke-linecap: round"/>
     </g>
     <g id="text_7">
      <!-- 2 -->
      <g style="fill: #262626" transform="translate(355.151775 240.887986) scale(0.08 -0.08)">
       <defs>
        <path id="SegoeUI-32" d="M 2413 3306 
Q 2413 3513 2348 3666 
Q 2284 3819 2173 3920 
Q 2063 4022 1913 4072 
Q 1763 4122 1588 4122 
Q 1438 4122 1294 4081 
Q 1150 4041 1014 3969 
Q 878 3897 751 3797 
Q 625 3697 516 3575 
L 516 4125 
Q 731 4334 998 4445 
Q 1266 4556 1650 4556 
Q 1925 4556 2159 4476 
Q 2394 4397 2566 4244 
Q 2738 4091 2836 3866 
Q 2934 3641 2934 3350 
Q 2934 3084 2873 2868 
Q 2813 2653 2689 2462 
Q 2566 2272 2378 2097 
Q 2191 1922 1938 1741 
Q 1622 1516 1417 1356 
Q 1213 1197 1092 1058 
Q 972 919 923 780 
Q 875 641 875 459 
L 3106 459 
L 3106 0 
L 341 0 
L 341 222 
Q 341 509 403 728 
Q 466 947 609 1144 
Q 753 1341 986 1537 
Q 1219 1734 1556 1981 
Q 1800 2156 1964 2315 
Q 2128 2475 2228 2634 
Q 2328 2794 2370 2958 
Q 2413 3122 2413 3306 
z
" transform="scale(0.015625)"/>
       </defs>
       <use xlink:href="#SegoeUI-32"/>
      </g>
     </g>
    </g>
    <g id="ytick_3">
     <g id="line2d_11">
      <path d="M 355.151775 172.012407 
C 373.724344 172.012407 392.116319 175.670799 409.275136 182.778213 
C 426.433952 189.885628 442.025916 200.303845 455.158705 213.436634 
C 468.291495 226.569424 478.709712 242.161387 485.817127 259.320204 
C 492.924541 276.479021 496.582932 294.870996 496.582932 313.443565 
C 496.582932 332.016134 492.924541 350.408109 485.817127 367.566926 
C 478.709712 384.725742 468.291495 400.317706 455.158705 413.450495 
C 442.025916 426.583285 426.433952 437.001502 409.275136 444.108917 
C 392.116319 451.216331 373.724344 454.874722 355.151775 454.874722 
C 336.579205 454.874722 318.187231 451.216331 301.028414 444.108917 
C 283.869597 437.001502 268.277634 426.583285 255.144844 413.450495 
C 242.012055 400.317706 231.593838 384.725742 224.486423 367.566926 
C 217.379009 350.408109 213.720617 332.016134 213.720617 313.443565 
C 213.720617 294.870996 217.379009 276.479021 224.486423 259.320204 
C 231.593838 242.161387 242.012055 226.569424 255.144844 213.436634 
C 268.277634 200.303845 283.869597 189.885628 301.028414 182.778213 
C 318.187231 175.670799 336.579205 172.012407 355.151775 172.012407 
" clip-path="url(#p900d3dd634)" style="fill: none; stroke: #d3d3d3; stroke-width: 1.5; stroke-linecap: round"/>
     </g>
     <g id="text_8">
      <!-- 3 -->
      <g style="fill: #262626" transform="translate(355.151775 170.172407) scale(0.08 -0.08)">
       <defs>
        <path id="SegoeUI-33" d="M 2978 1269 
Q 2978 966 2864 717 
Q 2750 469 2542 292 
Q 2334 116 2043 19 
Q 1753 -78 1403 -78 
Q 763 -78 384 166 
L 384 716 
Q 838 359 1422 359 
Q 1656 359 1845 418 
Q 2034 478 2170 590 
Q 2306 703 2379 862 
Q 2453 1022 2453 1222 
Q 2453 2100 1203 2100 
L 831 2100 
L 831 2534 
L 1184 2534 
Q 2291 2534 2291 3359 
Q 2291 4122 1447 4122 
Q 972 4122 556 3803 
L 556 4300 
Q 984 4556 1575 4556 
Q 1856 4556 2084 4478 
Q 2313 4400 2475 4259 
Q 2638 4119 2727 3922 
Q 2816 3725 2816 3488 
Q 2816 2603 1922 2350 
L 1922 2338 
Q 2150 2313 2344 2227 
Q 2538 2141 2678 2003 
Q 2819 1866 2898 1680 
Q 2978 1494 2978 1269 
z
" transform="scale(0.015625)"/>
       </defs>
       <use xlink:href="#SegoeUI-33"/>
      </g>
     </g>
    </g>
    <g id="ytick_4">
     <g id="line2d_12">
      <path d="M 355.151775 101.296829 
C 383.010629 101.296829 410.598591 106.784416 436.336816 117.445537 
C 462.075041 128.106659 485.462986 143.733984 505.162171 163.433169 
C 524.861355 183.132354 540.48868 206.520299 551.149802 232.258524 
C 561.810924 257.996749 567.298511 285.584711 567.298511 313.443565 
C 567.298511 341.302419 561.810924 368.890381 551.149802 394.628606 
C 540.48868 420.366831 524.861355 443.754776 505.162171 463.453961 
C 485.462986 483.153145 462.075041 498.78047 436.336816 509.441592 
C 410.598591 520.102714 383.010629 525.590301 355.151775 525.590301 
C 327.292921 525.590301 299.704959 520.102714 273.966734 509.441592 
C 248.228509 498.78047 224.840564 483.153145 205.141379 463.453961 
C 185.442194 443.754776 169.814869 420.366831 159.153747 394.628606 
C 148.492626 368.890381 143.005039 341.302419 143.005039 313.443565 
C 143.005039 285.584711 148.492626 257.996749 159.153747 232.258524 
C 169.814869 206.520299 185.442194 183.132354 205.141379 163.433169 
C 224.840564 143.733984 248.228509 128.106659 273.966734 117.445537 
C 299.704959 106.784416 327.292921 101.296829 355.151775 101.296829 
" clip-path="url(#p900d3dd634)" style="fill: none; stroke: #d3d3d3; stroke-width: 1.5; stroke-linecap: round"/>
     </g>
     <g id="text_9">
      <!-- 4 -->
      <g style="fill: #262626" transform="translate(355.151775 99.456829) scale(0.08 -0.08)">
       <defs>
        <path id="SegoeUI-34" d="M 2656 4481 
L 2656 1522 
L 3231 1522 
L 3231 1053 
L 2656 1053 
L 2656 0 
L 2150 0 
L 2150 1053 
L 44 1053 
L 44 1497 
Q 338 1828 638 2204 
Q 938 2581 1211 2968 
Q 1484 3356 1717 3742 
Q 1950 4128 2109 4481 
L 2656 4481 
z
M 622 1522 
L 2150 1522 
L 2150 3716 
Q 1916 3306 1706 2984 
Q 1497 2663 1308 2400 
Q 1119 2138 947 1925 
Q 775 1713 622 1522 
z
" transform="scale(0.015625)"/>
       </defs>
       <use xlink:href="#SegoeUI-34"/>
      </g>
     </g>
    </g>
    <g id="ytick_5">
     <g id="line2d_13">
      <path d="M 355.151775 30.58125 
C 392.296914 30.58125 429.080863 37.898032 463.398496 52.112862 
C 497.71613 66.327691 528.900056 87.164124 555.165636 113.429704 
C 581.431216 139.695283 602.267649 170.87921 616.482478 205.196843 
C 630.697307 239.514477 638.01409 276.298426 638.01409 313.443565 
C 638.01409 350.588704 630.697307 387.372653 616.482478 421.690287 
C 602.267649 456.00792 581.431216 487.191846 555.165636 513.457426 
C 528.900056 539.723006 497.71613 560.559439 463.398496 574.774268 
C 429.080863 588.989097 392.296914 596.30588 355.151775 596.30588 
C 318.006636 596.30588 281.222687 588.989097 246.905053 574.774268 
C 212.58742 560.559439 181.403493 539.723006 155.137914 513.457426 
C 128.872334 487.191846 108.035901 456.00792 93.821072 421.690287 
C 79.606242 387.372653 72.28946 350.588704 72.28946 313.443565 
C 72.28946 276.298426 79.606242 239.514477 93.821072 205.196843 
C 108.035901 170.87921 128.872334 139.695283 155.137914 113.429704 
C 181.403493 87.164124 212.58742 66.327691 246.905053 52.112862 
C 281.222687 37.898032 318.006636 30.58125 355.151775 30.58125 
" clip-path="url(#p900d3dd634)" style="fill: none; stroke: #d3d3d3; stroke-width: 1.5; stroke-linecap: round"/>
     </g>
     <g id="text_10">
      <!-- 5 -->
      <g style="fill: #262626" transform="translate(355.151775 28.74125) scale(0.08 -0.08)">
       <defs>
        <path id="SegoeUI-35" d="M 3028 1369 
Q 3028 1041 2915 775 
Q 2803 509 2595 318 
Q 2388 128 2094 25 
Q 1800 -78 1441 -78 
Q 816 -78 513 109 
L 513 653 
Q 969 359 1447 359 
Q 1691 359 1886 431 
Q 2081 503 2218 631 
Q 2356 759 2429 940 
Q 2503 1122 2503 1338 
Q 2503 1775 2209 2023 
Q 1916 2272 1356 2272 
Q 1266 2272 1166 2269 
Q 1066 2266 966 2261 
Q 866 2256 770 2250 
Q 675 2244 597 2234 
L 750 4481 
L 2822 4481 
L 2822 4019 
L 1194 4019 
L 1103 2703 
Q 1203 2709 1315 2714 
Q 1428 2719 1516 2719 
Q 1872 2719 2153 2625 
Q 2434 2531 2629 2357 
Q 2825 2184 2926 1932 
Q 3028 1681 3028 1369 
z
" transform="scale(0.015625)"/>
       </defs>
       <use xlink:href="#SegoeUI-35"/>
      </g>
     </g>
    </g>
   </g>
   <g id="legend_1">
    <g id="patch_7">
     <path d="M 607.042803 93.17625 
L 686.186553 93.17625 
Q 688.586553 93.17625 688.586553 90.77625 
L 688.586553 38.98125 
Q 688.586553 36.58125 686.186553 36.58125 
L 607.042803 36.58125 
Q 604.642803 36.58125 604.642803 38.98125 
L 604.642803 90.77625 
Q 604.642803 93.17625 607.042803 93.17625 
z
" style="fill: #eaeaf2; opacity: 0.8; stroke: #cccccc; stroke-width: 1.5; stroke-linejoin: miter"/>
    </g>
    <g id="line2d_14">
     <path d="M 609.442803 46.065 
L 621.442803 46.065 
L 633.442803 46.065 
" style="fill: none; stroke: #66c2a5; stroke-width: 2; stroke-linecap: round"/>
    </g>
    <g id="text_11">
     <!-- Hybrid -->
     <g style="fill: #262626" transform="translate(643.042803 50.265) scale(0.12 -0.12)">
      <defs>
       <path id="SegoeUI-48" d="M 3956 0 
L 3431 0 
L 3431 2044 
L 1113 2044 
L 1113 0 
L 588 0 
L 588 4481 
L 1113 4481 
L 1113 2516 
L 3431 2516 
L 3431 4481 
L 3956 4481 
L 3956 0 
z
" transform="scale(0.015625)"/>
      </defs>
      <use xlink:href="#SegoeUI-48"/>
      <use xlink:href="#SegoeUI-79" x="70.996094"/>
      <use xlink:href="#SegoeUI-62" x="119.384766"/>
      <use xlink:href="#SegoeUI-72" x="178.173828"/>
      <use xlink:href="#SegoeUI-69" x="212.939453"/>
      <use xlink:href="#SegoeUI-64" x="237.158203"/>
     </g>
    </g>
    <g id="line2d_15">
     <path d="M 609.442803 63.7725 
L 621.442803 63.7725 
L 633.442803 63.7725 
" style="fill: none; stroke: #fc8d62; stroke-width: 2; stroke-linecap: round"/>
    </g>
    <g id="text_12">
     <!-- On-site -->
     <g style="fill: #262626" transform="translate(643.042803 67.9725) scale(0.12 -0.12)">
      <defs>
       <path id="SegoeUI-4f" d="M 2394 -75 
Q 1441 -75 867 553 
Q 294 1181 294 2188 
Q 294 3269 878 3912 
Q 1463 4556 2469 4556 
Q 3397 4556 3964 3931 
Q 4531 3306 4531 2297 
Q 4531 1200 3950 562 
Q 3369 -75 2394 -75 
z
M 2431 4081 
Q 1725 4081 1284 3572 
Q 844 3063 844 2234 
Q 844 1406 1273 901 
Q 1703 397 2394 397 
Q 3131 397 3556 878 
Q 3981 1359 3981 2225 
Q 3981 3113 3568 3597 
Q 3156 4081 2431 4081 
z
" transform="scale(0.015625)"/>
      </defs>
      <use xlink:href="#SegoeUI-4f"/>
      <use xlink:href="#SegoeUI-6e" x="75.390625"/>
      <use xlink:href="#SegoeUI-2d" x="131.982422"/>
      <use xlink:href="#SegoeUI-73" x="171.972656"/>
      <use xlink:href="#SegoeUI-69" x="214.404297"/>
      <use xlink:href="#SegoeUI-74" x="238.623047"/>
      <use xlink:href="#SegoeUI-65" x="271.759766"/>
     </g>
    </g>
    <g id="line2d_16">
     <path d="M 609.442803 81.41625 
L 621.442803 81.41625 
L 633.442803 81.41625 
" style="fill: none; stroke: #8da0cb; stroke-width: 2; stroke-linecap: round"/>
    </g>
    <g id="text_13">
     <!-- Remote -->
     <g style="fill: #262626" transform="translate(643.042803 85.61625) scale(0.12 -0.12)">
      <use xlink:href="#SegoeUI-52"/>
      <use xlink:href="#SegoeUI-65" x="57.064453"/>
      <use xlink:href="#SegoeUI-6d" x="109.359375"/>
      <use xlink:href="#SegoeUI-6f" x="195.492188"/>
      <use xlink:href="#SegoeUI-74" x="254.085938"/>
      <use xlink:href="#SegoeUI-65" x="287.222656"/>
     </g>
    </g>
   </g>
  </g>
 </g>
 <defs>
  <clipPath id="p900d3dd634">
   <path d="M 638.01409 313.443565 
C 638.01409 276.298426 630.697307 239.514477 616.482478 205.196843 
C 602.267649 170.87921 581.431216 139.695283 555.165636 113.429704 
C 528.900056 87.164124 497.71613 66.327691 463.398496 52.112862 
C 429.080863 37.898032 392.296914 30.58125 355.151775 30.58125 
C 318.006636 30.58125 281.222687 37.898032 246.905053 52.112862 
C 212.58742 66.327691 181.403493 87.164124 155.137914 113.429704 
C 128.872334 139.695283 108.035901 170.87921 93.821072 205.196843 
C 79.606242 239.514477 72.28946 276.298426 72.28946 313.443565 
C 72.28946 350.588704 79.606242 387.372653 93.821072 421.690287 
C 108.035901 456.00792 128.872334 487.191846 155.137914 513.457426 
C 181.403493 539.723006 212.58742 560.559439 246.905053 574.774268 
C 281.222687 588.989097 318.006636 596.30588 355.151775 596.30588 
C 392.296914 596.30588 429.080863 588.989097 463.398496 574.774268 
C 497.71613 560.559439 528.900056 539.723006 555.165636 513.457426 
C 581.431216 487.191846 602.267649 456.00792 616.482478 421.690287 
C 630.697307 387.372653 638.01409 350.588704 638.01409 313.443565 
M 355.151775 313.443565 
C 355.151775 313.443565 355.151775 313.443565 355.151775 313.443565 
C 355.151775 313.443565 355.151775 313.443565 355.151775 313.443565 
C 355.151775 313.443565 355.151775 313.443565 355.151775 313.443565 
C 355.151775 313.443565 355.151775 313.443565 355.151775 313.443565 
C 355.151775 313.443565 355.151775 313.443565 355.151775 313.443565 
C 355.151775 313.443565 355.151775 313.443565 355.151775 313.443565 
C 355.151775 313.443565 355.151775 313.443565 355.151775 313.443565 
C 355.151775 313.443565 355.151775 313.443565 355.151775 313.443565 
C 355.151775 313.443565 355.151775 313.443565 355.151775 313.443565 
C 355.151775 313.443565 355.151775 313.443565 355.151775 313.443565 
C 355.151775 313.443565 355.151775 313.443565 355.151775 313.443565 
C 355.151775 313.443565 355.151775 313.443565 355.151775 313.443565 
C 355.151775 313.443565 355.151775 313.443565 355.151775 313.443565 
C 355.151775 313.443565 355.151775 313.443565 355.151775 313.443565 
C 355.151775 313.443565 355.151775 313.443565 355.151775 313.443565 
C 355.151775 313.443565 355.151775 313.443565 355.151775 313.443565 
z
"/>
  </clipPath>
 </defs>
</svg>
