<?xml version="1.0" encoding="utf-8" standalone="no"?>
<!DOCTYPE svg PUBLIC "-//W3C//DTD SVG 1.1//EN"
  "http://www.w3.org/Graphics/SVG/1.1/DTD/svg11.dtd">
<svg xmlns:xlink="http://www.w3.org/1999/xlink" width="432pt" height="288pt" viewBox="0 0 432 288" xmlns="http://www.w3.org/2000/svg" version="1.1">
 <metadata>
  <rdf:RDF xmlns:dc="http://purl.org/dc/elements/1.1/" xmlns:cc="http://creativecommons.org/ns#" xmlns:rdf="http://www.w3.org/1999/02/22-rdf-syntax-ns#">
   <cc:Work>
    <dc:type rdf:resource="http://purl.org/dc/dcmitype/StillImage"/>
    <dc:date>2025-09-21T22:22:37.302788</dc:date>
    <dc:format>image/svg+xml</dc:format>
    <dc:creator>
     <cc:Agent>
      <dc:title>Matplotlib v3.9.2, https://matplotlib.org/</dc:title>
     </cc:Agent>
    </dc:creator>
   </cc:Work>
  </rdf:RDF>
 </metadata>
 <defs>
  <style type="text/css">*{stroke-linejoin: round; stroke-linecap: butt}</style>
 </defs>
 <g id="figure_1">
  <g id="patch_1">
   <path d="M 0 288 
L 432 288 
L 432 0 
L 0 0 
z
" style="fill: #ffffff"/>
  </g>
  <g id="axes_1">
   <g id="patch_2">
    <path d="M 71.52 248.38 
L 189.09 248.38 
L 189.09 54.4775 
L 71.52 54.4775 
z
" style="fill: #eaeaf2"/>
   </g>
   <g id="matplotlib.axis_1">
    <g id="xtick_1">
     <g id="line2d_1">
      <path d="M 83.277 248.38 
L 83.277 54.4775 
" clip-path="url(#p6ec5fbf4b3)" style="fill: none; stroke: #ffffff; stroke-width: 1.5; stroke-linecap: round"/>
     </g>
     <g id="text_1">
      <!-- 11-50 employees -->
      <g style="fill: #262626" transform="translate(52.95825 266.8025) scale(0.08 -0.08)">
       <defs>
        <path id="SegoeUI-31" d="M 2263 0 
L 1750 0 
L 1750 3872 
Q 1691 3813 1577 3736 
Q 1463 3659 1320 3584 
Q 1178 3509 1020 3443 
Q 863 3378 713 3341 
L 713 3859 
Q 881 3906 1070 3986 
Q 1259 4066 1442 4164 
Q 1625 4263 1787 4370 
Q 1950 4478 2069 4581 
L 2263 4581 
L 2263 0 
z
" transform="scale(0.015625)"/>
        <path id="SegoeUI-2d" d="M 2156 1581 
L 450 1581 
L 450 1984 
L 2156 1984 
L 2156 1581 
z
" transform="scale(0.015625)"/>
        <path id="SegoeUI-35" d="M 3028 1369 
Q 3028 1041 2915 775 
Q 2803 509 2595 318 
Q 2388 128 2094 25 
Q 1800 -78 1441 -78 
Q 816 -78 513 109 
L 513 653 
Q 969 359 1447 359 
Q 1691 359 1886 431 
Q 2081 503 2218 631 
Q 2356 759 2429 940 
Q 2503 1122 2503 1338 
Q 2503 1775 2209 2023 
Q 1916 2272 1356 2272 
Q 1266 2272 1166 2269 
Q 1066 2266 966 2261 
Q 866 2256 770 2250 
Q 675 2244 597 2234 
L 750 4481 
L 2822 4481 
L 2822 4019 
L 1194 4019 
L 1103 2703 
Q 1203 2709 1315 2714 
Q 1428 2719 1516 2719 
Q 1872 2719 2153 2625 
Q 2434 2531 2629 2357 
Q 2825 2184 2926 1932 
Q 3028 1681 3028 1369 
z
" transform="scale(0.015625)"/>
        <path id="SegoeUI-30" d="M 3188 2259 
Q 3188 1697 3086 1262 
Q 2984 828 2792 529 
Q 2600 231 2320 76 
Q 2041 -78 1684 -78 
Q 1347 -78 1083 70 
Q 819 219 637 503 
Q 456 788 362 1202 
Q 269 1616 269 2150 
Q 269 2738 367 3188 
Q 466 3638 656 3942 
Q 847 4247 1130 4401 
Q 1413 4556 1778 4556 
Q 3188 4556 3188 2259 
z
M 2663 2209 
Q 2663 4122 1753 4122 
Q 794 4122 794 2175 
Q 794 359 1734 359 
Q 2663 359 2663 2209 
z
" transform="scale(0.015625)"/>
        <path id="SegoeUI-20" transform="scale(0.015625)"/>
        <path id="SegoeUI-65" d="M 3091 1472 
L 831 1472 
Q 844 938 1119 647 
Q 1394 356 1875 356 
Q 2416 356 2869 713 
L 2869 231 
Q 2447 -75 1753 -75 
Q 1075 -75 687 361 
Q 300 797 300 1588 
Q 300 2334 723 2804 
Q 1147 3275 1775 3275 
Q 2403 3275 2747 2869 
Q 3091 2463 3091 1741 
L 3091 1472 
z
M 2566 1906 
Q 2563 2350 2352 2597 
Q 2141 2844 1766 2844 
Q 1403 2844 1150 2584 
Q 897 2325 838 1906 
L 2566 1906 
z
" transform="scale(0.015625)"/>
        <path id="SegoeUI-6d" d="M 5063 0 
L 4550 0 
L 4550 1838 
Q 4550 2369 4386 2606 
Q 4222 2844 3834 2844 
Q 3506 2844 3276 2544 
Q 3047 2244 3047 1825 
L 3047 0 
L 2534 0 
L 2534 1900 
Q 2534 2844 1806 2844 
Q 1469 2844 1250 2561 
Q 1031 2278 1031 1825 
L 1031 0 
L 519 0 
L 519 3200 
L 1031 3200 
L 1031 2694 
L 1044 2694 
Q 1384 3275 2038 3275 
Q 2366 3275 2609 3092 
Q 2853 2909 2944 2613 
Q 3300 3275 4006 3275 
Q 5063 3275 5063 1972 
L 5063 0 
z
" transform="scale(0.015625)"/>
        <path id="SegoeUI-70" d="M 1044 463 
L 1031 463 
L 1031 -1472 
L 519 -1472 
L 519 3200 
L 1031 3200 
L 1031 2638 
L 1044 2638 
Q 1422 3275 2150 3275 
Q 2769 3275 3116 2845 
Q 3463 2416 3463 1694 
Q 3463 891 3072 408 
Q 2681 -75 2003 -75 
Q 1381 -75 1044 463 
z
M 1031 1753 
L 1031 1306 
Q 1031 909 1289 632 
Q 1547 356 1944 356 
Q 2409 356 2673 712 
Q 2938 1069 2938 1703 
Q 2938 2238 2691 2541 
Q 2444 2844 2022 2844 
Q 1575 2844 1303 2533 
Q 1031 2222 1031 1753 
z
" transform="scale(0.015625)"/>
        <path id="SegoeUI-6c" d="M 1031 0 
L 519 0 
L 519 4738 
L 1031 4738 
L 1031 0 
z
" transform="scale(0.015625)"/>
        <path id="SegoeUI-6f" d="M 1856 -75 
Q 1147 -75 723 373 
Q 300 822 300 1563 
Q 300 2369 740 2822 
Q 1181 3275 1931 3275 
Q 2647 3275 3048 2834 
Q 3450 2394 3450 1613 
Q 3450 847 3017 386 
Q 2584 -75 1856 -75 
z
M 1894 2844 
Q 1400 2844 1112 2508 
Q 825 2172 825 1581 
Q 825 1013 1115 684 
Q 1406 356 1894 356 
Q 2391 356 2658 678 
Q 2925 1000 2925 1594 
Q 2925 2194 2658 2519 
Q 2391 2844 1894 2844 
z
" transform="scale(0.015625)"/>
        <path id="SegoeUI-79" d="M 3066 3200 
L 1594 -513 
Q 1200 -1506 488 -1506 
Q 288 -1506 153 -1466 
L 153 -1006 
Q 319 -1063 456 -1063 
Q 844 -1063 1038 -600 
L 1294 6 
L 44 3200 
L 613 3200 
L 1478 738 
Q 1494 691 1544 494 
L 1563 494 
Q 1578 569 1625 731 
L 2534 3200 
L 3066 3200 
z
" transform="scale(0.015625)"/>
        <path id="SegoeUI-73" d="M 325 116 
L 325 666 
Q 744 356 1247 356 
Q 1922 356 1922 806 
Q 1922 934 1864 1023 
Q 1806 1113 1707 1181 
Q 1609 1250 1476 1304 
Q 1344 1359 1191 1419 
Q 978 1503 817 1589 
Q 656 1675 548 1783 
Q 441 1891 386 2028 
Q 331 2166 331 2350 
Q 331 2575 434 2748 
Q 538 2922 709 3039 
Q 881 3156 1101 3215 
Q 1322 3275 1556 3275 
Q 1972 3275 2300 3131 
L 2300 2613 
Q 1947 2844 1488 2844 
Q 1344 2844 1228 2811 
Q 1113 2778 1030 2718 
Q 947 2659 901 2576 
Q 856 2494 856 2394 
Q 856 2269 901 2184 
Q 947 2100 1034 2034 
Q 1122 1969 1247 1916 
Q 1372 1863 1531 1800 
Q 1744 1719 1912 1633 
Q 2081 1547 2200 1439 
Q 2319 1331 2383 1190 
Q 2447 1050 2447 856 
Q 2447 619 2342 444 
Q 2238 269 2063 153 
Q 1888 38 1659 -18 
Q 1431 -75 1181 -75 
Q 688 -75 325 116 
z
" transform="scale(0.015625)"/>
       </defs>
       <use xlink:href="#SegoeUI-31"/>
       <use xlink:href="#SegoeUI-31" x="53.90625"/>
       <use xlink:href="#SegoeUI-2d" x="107.8125"/>
       <use xlink:href="#SegoeUI-35" x="147.802734"/>
       <use xlink:href="#SegoeUI-30" x="201.708984"/>
       <use xlink:href="#SegoeUI-20" x="255.615234"/>
       <use xlink:href="#SegoeUI-65" x="283.007812"/>
       <use xlink:href="#SegoeUI-6d" x="335.302734"/>
       <use xlink:href="#SegoeUI-70" x="421.435547"/>
       <use xlink:href="#SegoeUI-6c" x="480.224609"/>
       <use xlink:href="#SegoeUI-6f" x="504.443359"/>
       <use xlink:href="#SegoeUI-79" x="563.037109"/>
       <use xlink:href="#SegoeUI-65" x="610.925781"/>
       <use xlink:href="#SegoeUI-65" x="663.220703"/>
       <use xlink:href="#SegoeUI-73" x="715.515625"/>
      </g>
     </g>
    </g>
    <g id="xtick_2">
     <g id="line2d_2">
      <path d="M 106.791 248.38 
L 106.791 54.4775 
" clip-path="url(#p6ec5fbf4b3)" style="fill: none; stroke: #ffffff; stroke-width: 1.5; stroke-linecap: round"/>
     </g>
     <g id="text_2">
      <!-- 201-500 employees -->
      <g style="fill: #262626" transform="translate(72.15975 266.8025) scale(0.08 -0.08)">
       <defs>
        <path id="SegoeUI-32" d="M 2413 3306 
Q 2413 3513 2348 3666 
Q 2284 3819 2173 3920 
Q 2063 4022 1913 4072 
Q 1763 4122 1588 4122 
Q 1438 4122 1294 4081 
Q 1150 4041 1014 3969 
Q 878 3897 751 3797 
Q 625 3697 516 3575 
L 516 4125 
Q 731 4334 998 4445 
Q 1266 4556 1650 4556 
Q 1925 4556 2159 4476 
Q 2394 4397 2566 4244 
Q 2738 4091 2836 3866 
Q 2934 3641 2934 3350 
Q 2934 3084 2873 2868 
Q 2813 2653 2689 2462 
Q 2566 2272 2378 2097 
Q 2191 1922 1938 1741 
Q 1622 1516 1417 1356 
Q 1213 1197 1092 1058 
Q 972 919 923 780 
Q 875 641 875 459 
L 3106 459 
L 3106 0 
L 341 0 
L 341 222 
Q 341 509 403 728 
Q 466 947 609 1144 
Q 753 1341 986 1537 
Q 1219 1734 1556 1981 
Q 1800 2156 1964 2315 
Q 2128 2475 2228 2634 
Q 2328 2794 2370 2958 
Q 2413 3122 2413 3306 
z
" transform="scale(0.015625)"/>
       </defs>
       <use xlink:href="#SegoeUI-32"/>
       <use xlink:href="#SegoeUI-30" x="53.90625"/>
       <use xlink:href="#SegoeUI-31" x="107.8125"/>
       <use xlink:href="#SegoeUI-2d" x="161.71875"/>
       <use xlink:href="#SegoeUI-35" x="201.708984"/>
       <use xlink:href="#SegoeUI-30" x="255.615234"/>
       <use xlink:href="#SegoeUI-30" x="309.521484"/>
       <use xlink:href="#SegoeUI-20" x="363.427734"/>
       <use xlink:href="#SegoeUI-65" x="390.820312"/>
       <use xlink:href="#SegoeUI-6d" x="443.115234"/>
       <use xlink:href="#SegoeUI-70" x="529.248047"/>
       <use xlink:href="#SegoeUI-6c" x="588.037109"/>
       <use xlink:href="#SegoeUI-6f" x="612.255859"/>
       <use xlink:href="#SegoeUI-79" x="670.849609"/>
       <use xlink:href="#SegoeUI-65" x="718.738281"/>
       <use xlink:href="#SegoeUI-65" x="771.033203"/>
       <use xlink:href="#SegoeUI-73" x="823.328125"/>
      </g>
     </g>
    </g>
    <g id="xtick_3">
     <g id="line2d_3">
      <path d="M 130.305 248.38 
L 130.305 54.4775 
" clip-path="url(#p6ec5fbf4b3)" style="fill: none; stroke: #ffffff; stroke-width: 1.5; stroke-linecap: round"/>
     </g>
     <g id="text_3">
      <!-- 501-1000 employees -->
      <g style="fill: #262626" transform="translate(93.5175 266.8025) scale(0.08 -0.08)">
       <use xlink:href="#SegoeUI-35"/>
       <use xlink:href="#SegoeUI-30" x="53.90625"/>
       <use xlink:href="#SegoeUI-31" x="107.8125"/>
       <use xlink:href="#SegoeUI-2d" x="161.71875"/>
       <use xlink:href="#SegoeUI-31" x="201.708984"/>
       <use xlink:href="#SegoeUI-30" x="255.615234"/>
       <use xlink:href="#SegoeUI-30" x="309.521484"/>
       <use xlink:href="#SegoeUI-30" x="363.427734"/>
       <use xlink:href="#SegoeUI-20" x="417.333984"/>
       <use xlink:href="#SegoeUI-65" x="444.726562"/>
       <use xlink:href="#SegoeUI-6d" x="497.021484"/>
       <use xlink:href="#SegoeUI-70" x="583.154297"/>
       <use xlink:href="#SegoeUI-6c" x="641.943359"/>
       <use xlink:href="#SegoeUI-6f" x="666.162109"/>
       <use xlink:href="#SegoeUI-79" x="724.755859"/>
       <use xlink:href="#SegoeUI-65" x="772.644531"/>
       <use xlink:href="#SegoeUI-65" x="824.939453"/>
       <use xlink:href="#SegoeUI-73" x="877.234375"/>
      </g>
     </g>
    </g>
    <g id="xtick_4">
     <g id="line2d_4">
      <path d="M 153.819 248.38 
L 153.819 54.4775 
" clip-path="url(#p6ec5fbf4b3)" style="fill: none; stroke: #ffffff; stroke-width: 1.5; stroke-linecap: round"/>
     </g>
     <g id="text_4">
      <!-- 51-200 employees -->
      <g style="fill: #262626" transform="translate(121.344 266.8025) scale(0.08 -0.08)">
       <use xlink:href="#SegoeUI-35"/>
       <use xlink:href="#SegoeUI-31" x="53.90625"/>
       <use xlink:href="#SegoeUI-2d" x="107.8125"/>
       <use xlink:href="#SegoeUI-32" x="147.802734"/>
       <use xlink:href="#SegoeUI-30" x="201.708984"/>
       <use xlink:href="#SegoeUI-30" x="255.615234"/>
       <use xlink:href="#SegoeUI-20" x="309.521484"/>
       <use xlink:href="#SegoeUI-65" x="336.914062"/>
       <use xlink:href="#SegoeUI-6d" x="389.208984"/>
       <use xlink:href="#SegoeUI-70" x="475.341797"/>
       <use xlink:href="#SegoeUI-6c" x="534.130859"/>
       <use xlink:href="#SegoeUI-6f" x="558.349609"/>
       <use xlink:href="#SegoeUI-79" x="616.943359"/>
       <use xlink:href="#SegoeUI-65" x="664.832031"/>
       <use xlink:href="#SegoeUI-65" x="717.126953"/>
       <use xlink:href="#SegoeUI-73" x="769.421875"/>
      </g>
     </g>
    </g>
    <g id="xtick_5">
     <g id="line2d_5">
      <path d="M 177.333 248.38 
L 177.333 54.4775 
" clip-path="url(#p6ec5fbf4b3)" style="fill: none; stroke: #ffffff; stroke-width: 1.5; stroke-linecap: round"/>
     </g>
     <g id="text_5">
      <!-- nan -->
      <g style="fill: #262626" transform="translate(170.7705 266.8025) scale(0.08 -0.08)">
       <defs>
        <path id="SegoeUI-6e" d="M 3175 0 
L 2663 0 
L 2663 1825 
Q 2663 2844 1919 2844 
Q 1534 2844 1282 2555 
Q 1031 2266 1031 1825 
L 1031 0 
L 519 0 
L 519 3200 
L 1031 3200 
L 1031 2669 
L 1044 2669 
Q 1406 3275 2094 3275 
Q 2619 3275 2897 2936 
Q 3175 2597 3175 1956 
L 3175 0 
z
" transform="scale(0.015625)"/>
        <path id="SegoeUI-61" d="M 2809 0 
L 2297 0 
L 2297 500 
L 2284 500 
Q 1950 -75 1300 -75 
Q 822 -75 551 178 
Q 281 431 281 850 
Q 281 1747 1338 1894 
L 2297 2028 
Q 2297 2844 1638 2844 
Q 1059 2844 594 2450 
L 594 2975 
Q 1066 3275 1681 3275 
Q 2809 3275 2809 2081 
L 2809 0 
z
M 2297 1619 
L 1525 1513 
Q 1169 1463 987 1336 
Q 806 1209 806 888 
Q 806 653 973 504 
Q 1141 356 1419 356 
Q 1800 356 2048 623 
Q 2297 891 2297 1300 
L 2297 1619 
z
" transform="scale(0.015625)"/>
       </defs>
       <use xlink:href="#SegoeUI-6e"/>
       <use xlink:href="#SegoeUI-61" x="56.591797"/>
       <use xlink:href="#SegoeUI-6e" x="107.470703"/>
      </g>
     </g>
    </g>
   </g>
   <g id="matplotlib.axis_2">
    <g id="ytick_1">
     <g id="line2d_6">
      <path d="M 71.52 248.38 
L 189.09 248.38 
" clip-path="url(#p6ec5fbf4b3)" style="fill: none; stroke: #ffffff; stroke-width: 1.5; stroke-linecap: round"/>
     </g>
     <g id="text_6">
      <!-- 0% -->
      <g style="fill: #262626" transform="translate(48.16 251.34125) scale(0.08 -0.08)">
       <defs>
        <path id="SegoeUI-25" d="M 1263 2234 
Q 800 2234 525 2539 
Q 250 2844 250 3353 
Q 250 3909 540 4229 
Q 831 4550 1325 4550 
Q 1803 4550 2067 4253 
Q 2331 3956 2331 3419 
Q 2331 2881 2036 2557 
Q 1741 2234 1263 2234 
z
M 1306 4206 
Q 1009 4206 837 3986 
Q 666 3766 666 3381 
Q 666 3003 834 2792 
Q 1003 2581 1294 2581 
Q 1588 2581 1753 2800 
Q 1919 3019 1919 3406 
Q 1919 3784 1755 3995 
Q 1591 4206 1306 4206 
z
M 4263 4481 
L 1388 -31 
L 941 -31 
L 3813 4481 
L 4263 4481 
z
M 3931 -69 
Q 3469 -69 3194 237 
Q 2919 544 2919 1050 
Q 2919 1606 3212 1929 
Q 3506 2253 3994 2253 
Q 4469 2253 4734 1953 
Q 5000 1653 5000 1113 
Q 5000 578 4704 254 
Q 4409 -69 3931 -69 
z
M 3975 1900 
Q 3675 1900 3504 1681 
Q 3334 1463 3334 1075 
Q 3334 703 3503 492 
Q 3672 281 3963 281 
Q 4256 281 4422 501 
Q 4588 722 4588 1106 
Q 4588 1488 4423 1694 
Q 4259 1900 3975 1900 
z
" transform="scale(0.015625)"/>
       </defs>
       <use xlink:href="#SegoeUI-30"/>
       <use xlink:href="#SegoeUI-25" x="53.90625"/>
      </g>
     </g>
    </g>
    <g id="ytick_2">
     <g id="line2d_7">
      <path d="M 71.52 209.5995 
L 189.09 209.5995 
" clip-path="url(#p6ec5fbf4b3)" style="fill: none; stroke: #ffffff; stroke-width: 1.5; stroke-linecap: round"/>
     </g>
     <g id="text_7">
      <!-- 20% -->
      <g style="fill: #262626" transform="translate(43.8475 212.56075) scale(0.08 -0.08)">
       <use xlink:href="#SegoeUI-32"/>
       <use xlink:href="#SegoeUI-30" x="53.90625"/>
       <use xlink:href="#SegoeUI-25" x="107.8125"/>
      </g>
     </g>
    </g>
    <g id="ytick_3">
     <g id="line2d_8">
      <path d="M 71.52 170.819 
L 189.09 170.819 
" clip-path="url(#p6ec5fbf4b3)" style="fill: none; stroke: #ffffff; stroke-width: 1.5; stroke-linecap: round"/>
     </g>
     <g id="text_8">
      <!-- 40% -->
      <g style="fill: #262626" transform="translate(43.8475 173.78025) scale(0.08 -0.08)">
       <defs>
        <path id="SegoeUI-34" d="M 2656 4481 
L 2656 1522 
L 3231 1522 
L 3231 1053 
L 2656 1053 
L 2656 0 
L 2150 0 
L 2150 1053 
L 44 1053 
L 44 1497 
Q 338 1828 638 2204 
Q 938 2581 1211 2968 
Q 1484 3356 1717 3742 
Q 1950 4128 2109 4481 
L 2656 4481 
z
M 622 1522 
L 2150 1522 
L 2150 3716 
Q 1916 3306 1706 2984 
Q 1497 2663 1308 2400 
Q 1119 2138 947 1925 
Q 775 1713 622 1522 
z
" transform="scale(0.015625)"/>
       </defs>
       <use xlink:href="#SegoeUI-34"/>
       <use xlink:href="#SegoeUI-30" x="53.90625"/>
       <use xlink:href="#SegoeUI-25" x="107.8125"/>
      </g>
     </g>
    </g>
    <g id="ytick_4">
     <g id="line2d_9">
      <path d="M 71.52 132.0385 
L 189.09 132.0385 
" clip-path="url(#p6ec5fbf4b3)" style="fill: none; stroke: #ffffff; stroke-width: 1.5; stroke-linecap: round"/>
     </g>
     <g id="text_9">
      <!-- 60% -->
      <g style="fill: #262626" transform="translate(43.8475 134.99975) scale(0.08 -0.08)">
       <defs>
        <path id="SegoeUI-36" d="M 3194 1422 
Q 3194 1094 3087 819 
Q 2981 544 2793 344 
Q 2606 144 2347 33 
Q 2088 -78 1784 -78 
Q 1447 -78 1180 62 
Q 913 203 727 467 
Q 541 731 444 1112 
Q 347 1494 347 1972 
Q 347 2556 476 3032 
Q 606 3509 845 3848 
Q 1084 4188 1421 4372 
Q 1759 4556 2175 4556 
Q 2638 4556 2919 4428 
L 2919 3944 
Q 2572 4122 2188 4122 
Q 1888 4122 1647 3987 
Q 1406 3853 1234 3608 
Q 1063 3363 970 3016 
Q 878 2669 878 2244 
L 891 2244 
Q 1200 2803 1913 2803 
Q 2206 2803 2442 2703 
Q 2678 2603 2845 2420 
Q 3013 2238 3103 1984 
Q 3194 1731 3194 1422 
z
M 2669 1356 
Q 2669 1591 2609 1778 
Q 2550 1966 2439 2097 
Q 2328 2228 2165 2298 
Q 2003 2369 1797 2369 
Q 1606 2369 1443 2297 
Q 1281 2225 1162 2101 
Q 1044 1978 976 1814 
Q 909 1650 909 1466 
Q 909 1234 975 1032 
Q 1041 831 1159 681 
Q 1278 531 1442 445 
Q 1606 359 1806 359 
Q 2000 359 2159 432 
Q 2319 506 2431 637 
Q 2544 769 2606 951 
Q 2669 1134 2669 1356 
z
" transform="scale(0.015625)"/>
       </defs>
       <use xlink:href="#SegoeUI-36"/>
       <use xlink:href="#SegoeUI-30" x="53.90625"/>
       <use xlink:href="#SegoeUI-25" x="107.8125"/>
      </g>
     </g>
    </g>
    <g id="ytick_5">
     <g id="line2d_10">
      <path d="M 71.52 93.258 
L 189.09 93.258 
" clip-path="url(#p6ec5fbf4b3)" style="fill: none; stroke: #ffffff; stroke-width: 1.5; stroke-linecap: round"/>
     </g>
     <g id="text_10">
      <!-- 80% -->
      <g style="fill: #262626" transform="translate(43.8475 96.21925) scale(0.08 -0.08)">
       <defs>
        <path id="SegoeUI-38" d="M 281 1250 
Q 281 1428 337 1608 
Q 394 1788 498 1944 
Q 603 2100 758 2228 
Q 913 2356 1109 2431 
Q 819 2594 647 2848 
Q 475 3103 475 3413 
Q 475 3659 570 3868 
Q 666 4078 834 4231 
Q 1003 4384 1234 4470 
Q 1466 4556 1734 4556 
Q 2006 4556 2237 4468 
Q 2469 4381 2637 4228 
Q 2806 4075 2900 3865 
Q 2994 3656 2994 3413 
Q 2994 3103 2822 2848 
Q 2650 2594 2366 2431 
Q 2559 2356 2712 2228 
Q 2866 2100 2970 1944 
Q 3075 1788 3131 1608 
Q 3188 1428 3188 1250 
Q 3188 956 3081 712 
Q 2975 469 2783 295 
Q 2591 122 2323 25 
Q 2056 -72 1734 -72 
Q 1416 -72 1150 25 
Q 884 122 690 295 
Q 497 469 389 712 
Q 281 956 281 1250 
z
M 838 1294 
Q 838 1084 902 915 
Q 966 747 1083 628 
Q 1200 509 1367 445 
Q 1534 381 1738 381 
Q 1934 381 2100 447 
Q 2266 513 2386 631 
Q 2506 750 2573 919 
Q 2641 1088 2641 1294 
Q 2641 1481 2577 1645 
Q 2513 1809 2394 1934 
Q 2275 2059 2109 2131 
Q 1944 2203 1738 2203 
Q 1544 2203 1380 2136 
Q 1216 2069 1095 1948 
Q 975 1828 906 1661 
Q 838 1494 838 1294 
z
M 997 3372 
Q 997 3213 1055 3077 
Q 1113 2941 1214 2839 
Q 1316 2738 1450 2680 
Q 1584 2622 1738 2622 
Q 1891 2622 2027 2681 
Q 2163 2741 2263 2842 
Q 2363 2944 2422 3080 
Q 2481 3216 2481 3372 
Q 2481 3534 2423 3671 
Q 2366 3809 2266 3909 
Q 2166 4009 2030 4067 
Q 1894 4125 1738 4125 
Q 1572 4125 1436 4065 
Q 1300 4006 1201 3904 
Q 1103 3803 1050 3665 
Q 997 3528 997 3372 
z
" transform="scale(0.015625)"/>
       </defs>
       <use xlink:href="#SegoeUI-38"/>
       <use xlink:href="#SegoeUI-30" x="53.90625"/>
       <use xlink:href="#SegoeUI-25" x="107.8125"/>
      </g>
     </g>
    </g>
    <g id="ytick_6">
     <g id="line2d_11">
      <path d="M 71.52 54.4775 
L 189.09 54.4775 
" clip-path="url(#p6ec5fbf4b3)" style="fill: none; stroke: #ffffff; stroke-width: 1.5; stroke-linecap: round"/>
     </g>
     <g id="text_11">
      <!-- 100% -->
      <g style="fill: #262626" transform="translate(39.535 57.43875) scale(0.08 -0.08)">
       <use xlink:href="#SegoeUI-31"/>
       <use xlink:href="#SegoeUI-30" x="53.90625"/>
       <use xlink:href="#SegoeUI-30" x="107.8125"/>
       <use xlink:href="#SegoeUI-25" x="161.71875"/>
      </g>
     </g>
    </g>
    <g id="text_12">
     <!-- Share of respondents -->
     <g style="fill: #262626" transform="translate(27.235 198.199844) rotate(-90) scale(0.1 -0.1)">
      <defs>
       <path id="SegoeUI-53" d="M 378 181 
L 378 800 
Q 484 706 632 631 
Q 781 556 945 504 
Q 1109 453 1275 425 
Q 1441 397 1581 397 
Q 2066 397 2305 576 
Q 2544 756 2544 1094 
Q 2544 1275 2464 1409 
Q 2384 1544 2243 1655 
Q 2103 1766 1911 1867 
Q 1719 1969 1497 2081 
Q 1263 2200 1059 2322 
Q 856 2444 706 2591 
Q 556 2738 470 2923 
Q 384 3109 384 3359 
Q 384 3666 518 3892 
Q 653 4119 872 4266 
Q 1091 4413 1370 4484 
Q 1650 4556 1941 4556 
Q 2603 4556 2906 4397 
L 2906 3806 
Q 2509 4081 1888 4081 
Q 1716 4081 1544 4045 
Q 1372 4009 1237 3928 
Q 1103 3847 1018 3719 
Q 934 3591 934 3406 
Q 934 3234 998 3109 
Q 1063 2984 1188 2881 
Q 1313 2778 1492 2681 
Q 1672 2584 1906 2469 
Q 2147 2350 2362 2219 
Q 2578 2088 2740 1928 
Q 2903 1769 2998 1575 
Q 3094 1381 3094 1131 
Q 3094 800 2964 570 
Q 2834 341 2614 197 
Q 2394 53 2106 -11 
Q 1819 -75 1500 -75 
Q 1394 -75 1237 -58 
Q 1081 -41 918 -8 
Q 756 25 611 73 
Q 466 122 378 181 
z
" transform="scale(0.015625)"/>
       <path id="SegoeUI-68" d="M 3175 0 
L 2663 0 
L 2663 1844 
Q 2663 2844 1919 2844 
Q 1544 2844 1287 2555 
Q 1031 2266 1031 1813 
L 1031 0 
L 519 0 
L 519 4738 
L 1031 4738 
L 1031 2669 
L 1044 2669 
Q 1413 3275 2094 3275 
Q 3175 3275 3175 1972 
L 3175 0 
z
" transform="scale(0.015625)"/>
       <path id="SegoeUI-72" d="M 2188 2681 
Q 2053 2784 1800 2784 
Q 1472 2784 1251 2475 
Q 1031 2166 1031 1631 
L 1031 0 
L 519 0 
L 519 3200 
L 1031 3200 
L 1031 2541 
L 1044 2541 
Q 1153 2878 1378 3067 
Q 1603 3256 1881 3256 
Q 2081 3256 2188 3213 
L 2188 2681 
z
" transform="scale(0.015625)"/>
       <path id="SegoeUI-66" d="M 2100 4288 
Q 1950 4372 1759 4372 
Q 1222 4372 1222 3694 
L 1222 3200 
L 1972 3200 
L 1972 2763 
L 1222 2763 
L 1222 0 
L 713 0 
L 713 2763 
L 166 2763 
L 166 3200 
L 713 3200 
L 713 3719 
Q 713 4222 1003 4514 
Q 1294 4806 1728 4806 
Q 1963 4806 2100 4750 
L 2100 4288 
z
" transform="scale(0.015625)"/>
       <path id="SegoeUI-64" d="M 3250 0 
L 2738 0 
L 2738 544 
L 2725 544 
Q 2369 -75 1625 -75 
Q 1022 -75 661 354 
Q 300 784 300 1525 
Q 300 2319 700 2797 
Q 1100 3275 1766 3275 
Q 2425 3275 2725 2756 
L 2738 2756 
L 2738 4738 
L 3250 4738 
L 3250 0 
z
M 2738 1447 
L 2738 1919 
Q 2738 2306 2481 2575 
Q 2225 2844 1831 2844 
Q 1363 2844 1094 2500 
Q 825 2156 825 1550 
Q 825 997 1083 676 
Q 1341 356 1775 356 
Q 2203 356 2470 665 
Q 2738 975 2738 1447 
z
" transform="scale(0.015625)"/>
       <path id="SegoeUI-74" d="M 2003 31 
Q 1822 -69 1525 -69 
Q 684 -69 684 869 
L 684 2763 
L 134 2763 
L 134 3200 
L 684 3200 
L 684 3981 
L 1197 4147 
L 1197 3200 
L 2003 3200 
L 2003 2763 
L 1197 2763 
L 1197 959 
Q 1197 638 1306 500 
Q 1416 363 1669 363 
Q 1863 363 2003 469 
L 2003 31 
z
" transform="scale(0.015625)"/>
      </defs>
      <use xlink:href="#SegoeUI-53"/>
      <use xlink:href="#SegoeUI-68" x="53.125"/>
      <use xlink:href="#SegoeUI-61" x="109.716797"/>
      <use xlink:href="#SegoeUI-72" x="160.595703"/>
      <use xlink:href="#SegoeUI-65" x="193.986328"/>
      <use xlink:href="#SegoeUI-20" x="246.28125"/>
      <use xlink:href="#SegoeUI-6f" x="273.673828"/>
      <use xlink:href="#SegoeUI-66" x="330.517578"/>
      <use xlink:href="#SegoeUI-20" x="361.816406"/>
      <use xlink:href="#SegoeUI-72" x="389.208984"/>
      <use xlink:href="#SegoeUI-65" x="422.599609"/>
      <use xlink:href="#SegoeUI-73" x="474.894531"/>
      <use xlink:href="#SegoeUI-70" x="517.326172"/>
      <use xlink:href="#SegoeUI-6f" x="576.115234"/>
      <use xlink:href="#SegoeUI-6e" x="634.708984"/>
      <use xlink:href="#SegoeUI-64" x="691.300781"/>
      <use xlink:href="#SegoeUI-65" x="750.1875"/>
      <use xlink:href="#SegoeUI-6e" x="802.482422"/>
      <use xlink:href="#SegoeUI-74" x="859.074219"/>
      <use xlink:href="#SegoeUI-73" x="892.960938"/>
     </g>
    </g>
   </g>
   <g id="patch_3">
    <path d="M 77.3985 248.38 
L 89.1555 248.38 
L 89.1555 219.653704 
L 77.3985 219.653704 
z
" clip-path="url(#p6ec5fbf4b3)" style="fill: #0173b2; stroke: #ffffff; stroke-width: 1.5; stroke-linejoin: miter"/>
   </g>
   <g id="patch_4">
    <path d="M 100.9125 248.38 
L 112.6695 248.38 
L 112.6695 236.261094 
L 100.9125 236.261094 
z
" clip-path="url(#p6ec5fbf4b3)" style="fill: #0173b2; stroke: #ffffff; stroke-width: 1.5; stroke-linejoin: miter"/>
   </g>
   <g id="patch_5">
    <path d="M 124.4265 248.38 
L 136.1835 248.38 
L 136.1835 220.679643 
L 124.4265 220.679643 
z
" clip-path="url(#p6ec5fbf4b3)" style="fill: #0173b2; stroke: #ffffff; stroke-width: 1.5; stroke-linejoin: miter"/>
   </g>
   <g id="patch_6">
    <path d="M 147.9405 248.38 
L 159.6975 248.38 
L 159.6975 204.059429 
L 147.9405 204.059429 
z
" clip-path="url(#p6ec5fbf4b3)" style="fill: #0173b2; stroke: #ffffff; stroke-width: 1.5; stroke-linejoin: miter"/>
   </g>
   <g id="patch_7">
    <path d="M 171.4545 248.38 
L 183.2115 248.38 
L 183.2115 221.765931 
L 171.4545 221.765931 
z
" clip-path="url(#p6ec5fbf4b3)" style="fill: #0173b2; stroke: #ffffff; stroke-width: 1.5; stroke-linejoin: miter"/>
   </g>
   <g id="patch_8">
    <path d="M 77.3985 219.653704 
L 89.1555 219.653704 
L 89.1555 208.881343 
L 77.3985 208.881343 
z
" clip-path="url(#p6ec5fbf4b3)" style="fill: #de8f05; stroke: #ffffff; stroke-width: 1.5; stroke-linejoin: miter"/>
   </g>
   <g id="patch_9">
    <path d="M 100.9125 236.261094 
L 112.6695 236.261094 
L 112.6695 224.142188 
L 100.9125 224.142188 
z
" clip-path="url(#p6ec5fbf4b3)" style="fill: #de8f05; stroke: #ffffff; stroke-width: 1.5; stroke-linejoin: miter"/>
   </g>
   <g id="patch_10">
    <path d="M 124.4265 220.679643 
L 136.1835 220.679643 
L 136.1835 192.979286 
L 124.4265 192.979286 
z
" clip-path="url(#p6ec5fbf4b3)" style="fill: #de8f05; stroke: #ffffff; stroke-width: 1.5; stroke-linejoin: miter"/>
   </g>
   <g id="patch_11">
    <path d="M 147.9405 204.059429 
L 159.6975 204.059429 
L 159.6975 192.979286 
L 147.9405 192.979286 
z
" clip-path="url(#p6ec5fbf4b3)" style="fill: #de8f05; stroke: #ffffff; stroke-width: 1.5; stroke-linejoin: miter"/>
   </g>
   <g id="patch_12">
    <path d="M 171.4545 221.765931 
L 183.2115 221.765931 
L 183.2115 210.359902 
L 171.4545 210.359902 
z
" clip-path="url(#p6ec5fbf4b3)" style="fill: #de8f05; stroke: #ffffff; stroke-width: 1.5; stroke-linejoin: miter"/>
   </g>
   <g id="patch_13">
    <path d="M 77.3985 208.881343 
L 89.1555 208.881343 
L 89.1555 147.837963 
L 77.3985 147.837963 
z
" clip-path="url(#p6ec5fbf4b3)" style="fill: #029e73; stroke: #ffffff; stroke-width: 1.5; stroke-linejoin: miter"/>
   </g>
   <g id="patch_14">
    <path d="M 100.9125 224.142188 
L 112.6695 224.142188 
L 112.6695 163.547656 
L 100.9125 163.547656 
z
" clip-path="url(#p6ec5fbf4b3)" style="fill: #029e73; stroke: #ffffff; stroke-width: 1.5; stroke-linejoin: miter"/>
   </g>
   <g id="patch_15">
    <path d="M 124.4265 192.979286 
L 136.1835 192.979286 
L 136.1835 146.812024 
L 124.4265 146.812024 
z
" clip-path="url(#p6ec5fbf4b3)" style="fill: #029e73; stroke: #ffffff; stroke-width: 1.5; stroke-linejoin: miter"/>
   </g>
   <g id="patch_16">
    <path d="M 147.9405 192.979286 
L 159.6975 192.979286 
L 159.6975 148.658714 
L 147.9405 148.658714 
z
" clip-path="url(#p6ec5fbf4b3)" style="fill: #029e73; stroke: #ffffff; stroke-width: 1.5; stroke-linejoin: miter"/>
   </g>
   <g id="patch_17">
    <path d="M 171.4545 210.359902 
L 183.2115 210.359902 
L 183.2115 151.42875 
L 171.4545 151.42875 
z
" clip-path="url(#p6ec5fbf4b3)" style="fill: #029e73; stroke: #ffffff; stroke-width: 1.5; stroke-linejoin: miter"/>
   </g>
   <g id="patch_18">
    <path d="M 77.3985 147.837963 
L 89.1555 147.837963 
L 89.1555 101.157731 
L 77.3985 101.157731 
z
" clip-path="url(#p6ec5fbf4b3)" style="fill: #d55e00; stroke: #ffffff; stroke-width: 1.5; stroke-linejoin: miter"/>
   </g>
   <g id="patch_19">
    <path d="M 100.9125 163.547656 
L 112.6695 163.547656 
L 112.6695 102.953125 
L 100.9125 102.953125 
z
" clip-path="url(#p6ec5fbf4b3)" style="fill: #d55e00; stroke: #ffffff; stroke-width: 1.5; stroke-linejoin: miter"/>
   </g>
   <g id="patch_20">
    <path d="M 124.4265 146.812024 
L 136.1835 146.812024 
L 136.1835 109.878214 
L 124.4265 109.878214 
z
" clip-path="url(#p6ec5fbf4b3)" style="fill: #d55e00; stroke: #ffffff; stroke-width: 1.5; stroke-linejoin: miter"/>
   </g>
   <g id="patch_21">
    <path d="M 147.9405 148.658714 
L 159.6975 148.658714 
L 159.6975 126.498429 
L 147.9405 126.498429 
z
" clip-path="url(#p6ec5fbf4b3)" style="fill: #d55e00; stroke: #ffffff; stroke-width: 1.5; stroke-linejoin: miter"/>
   </g>
   <g id="patch_22">
    <path d="M 171.4545 151.42875 
L 183.2115 151.42875 
L 183.2115 117.210662 
L 171.4545 117.210662 
z
" clip-path="url(#p6ec5fbf4b3)" style="fill: #d55e00; stroke: #ffffff; stroke-width: 1.5; stroke-linejoin: miter"/>
   </g>
   <g id="patch_23">
    <path d="M 77.3985 101.157731 
L 89.1555 101.157731 
L 89.1555 54.4775 
L 77.3985 54.4775 
z
" clip-path="url(#p6ec5fbf4b3)" style="fill: #cc78bc; stroke: #ffffff; stroke-width: 1.5; stroke-linejoin: miter"/>
   </g>
   <g id="patch_24">
    <path d="M 100.9125 102.953125 
L 112.6695 102.953125 
L 112.6695 54.4775 
L 100.9125 54.4775 
z
" clip-path="url(#p6ec5fbf4b3)" style="fill: #cc78bc; stroke: #ffffff; stroke-width: 1.5; stroke-linejoin: miter"/>
   </g>
   <g id="patch_25">
    <path d="M 124.4265 109.878214 
L 136.1835 109.878214 
L 136.1835 54.4775 
L 124.4265 54.4775 
z
" clip-path="url(#p6ec5fbf4b3)" style="fill: #cc78bc; stroke: #ffffff; stroke-width: 1.5; stroke-linejoin: miter"/>
   </g>
   <g id="patch_26">
    <path d="M 147.9405 126.498429 
L 159.6975 126.498429 
L 159.6975 54.4775 
L 147.9405 54.4775 
z
" clip-path="url(#p6ec5fbf4b3)" style="fill: #cc78bc; stroke: #ffffff; stroke-width: 1.5; stroke-linejoin: miter"/>
   </g>
   <g id="patch_27">
    <path d="M 171.4545 117.210662 
L 183.2115 117.210662 
L 183.2115 54.4775 
L 171.4545 54.4775 
z
" clip-path="url(#p6ec5fbf4b3)" style="fill: #cc78bc; stroke: #ffffff; stroke-width: 1.5; stroke-linejoin: miter"/>
   </g>
   <g id="patch_28">
    <path d="M 71.52 248.38 
L 71.52 54.4775 
" style="fill: none; stroke: #ffffff; stroke-width: 1.875; stroke-linejoin: miter; stroke-linecap: square"/>
   </g>
   <g id="patch_29">
    <path d="M 189.09 248.38 
L 189.09 54.4775 
" style="fill: none; stroke: #ffffff; stroke-width: 1.875; stroke-linejoin: miter; stroke-linecap: square"/>
   </g>
   <g id="patch_30">
    <path d="M 71.52 248.38 
L 189.09 248.38 
" style="fill: none; stroke: #ffffff; stroke-width: 1.875; stroke-linejoin: miter; stroke-linecap: square"/>
   </g>
   <g id="patch_31">
    <path d="M 71.52 54.4775 
L 189.09 54.4775 
" style="fill: none; stroke: #ffffff; stroke-width: 1.875; stroke-linejoin: miter; stroke-linecap: square"/>
   </g>
   <g id="text_13">
    <!-- Distribution of deadline obstacles by workplace size -->
    <g style="fill: #262626" transform="translate(-97.460625 34.4775) scale(0.2 -0.2)">
     <defs>
      <path id="SegoeUI-44" d="M 588 0 
L 588 4481 
L 1825 4481 
Q 4194 4481 4194 2297 
Q 4194 1259 3536 629 
Q 2878 0 1775 0 
L 588 0 
z
M 1113 4006 
L 1113 475 
L 1781 475 
Q 2663 475 3153 947 
Q 3644 1419 3644 2284 
Q 3644 4006 1813 4006 
L 1113 4006 
z
" transform="scale(0.015625)"/>
      <path id="SegoeUI-69" d="M 781 4013 
Q 644 4013 547 4106 
Q 450 4200 450 4344 
Q 450 4488 547 4583 
Q 644 4678 781 4678 
Q 922 4678 1020 4583 
Q 1119 4488 1119 4344 
Q 1119 4206 1020 4109 
Q 922 4013 781 4013 
z
M 1031 0 
L 519 0 
L 519 3200 
L 1031 3200 
L 1031 0 
z
" transform="scale(0.015625)"/>
      <path id="SegoeUI-62" d="M 1044 463 
L 1031 463 
L 1031 0 
L 519 0 
L 519 4738 
L 1031 4738 
L 1031 2638 
L 1044 2638 
Q 1422 3275 2150 3275 
Q 2766 3275 3114 2845 
Q 3463 2416 3463 1694 
Q 3463 891 3072 408 
Q 2681 -75 2003 -75 
Q 1369 -75 1044 463 
z
M 1031 1753 
L 1031 1306 
Q 1031 909 1289 632 
Q 1547 356 1944 356 
Q 2409 356 2673 712 
Q 2938 1069 2938 1703 
Q 2938 2238 2691 2541 
Q 2444 2844 2022 2844 
Q 1575 2844 1303 2533 
Q 1031 2222 1031 1753 
z
" transform="scale(0.015625)"/>
      <path id="SegoeUI-75" d="M 3106 0 
L 2594 0 
L 2594 506 
L 2581 506 
Q 2263 -75 1594 -75 
Q 450 -75 450 1288 
L 450 3200 
L 959 3200 
L 959 1369 
Q 959 356 1734 356 
Q 2109 356 2351 632 
Q 2594 909 2594 1356 
L 2594 3200 
L 3106 3200 
L 3106 0 
z
" transform="scale(0.015625)"/>
      <path id="SegoeUI-63" d="M 2700 147 
Q 2331 -75 1825 -75 
Q 1141 -75 720 370 
Q 300 816 300 1525 
Q 300 2316 753 2795 
Q 1206 3275 1963 3275 
Q 2384 3275 2706 3119 
L 2706 2594 
Q 2350 2844 1944 2844 
Q 1453 2844 1139 2492 
Q 825 2141 825 1569 
Q 825 1006 1120 681 
Q 1416 356 1913 356 
Q 2331 356 2700 634 
L 2700 147 
z
" transform="scale(0.015625)"/>
      <path id="SegoeUI-77" d="M 4550 3200 
L 3591 0 
L 3059 0 
L 2400 2291 
Q 2363 2422 2350 2588 
L 2338 2588 
Q 2328 2475 2272 2297 
L 1556 0 
L 1044 0 
L 75 3200 
L 613 3200 
L 1275 794 
Q 1306 684 1319 506 
L 1344 506 
Q 1353 644 1400 800 
L 2138 3200 
L 2606 3200 
L 3269 788 
Q 3300 672 3316 500 
L 3341 500 
Q 3347 622 3394 788 
L 4044 3200 
L 4550 3200 
z
" transform="scale(0.015625)"/>
      <path id="SegoeUI-6b" d="M 3175 0 
L 2456 0 
L 1044 1538 
L 1031 1538 
L 1031 0 
L 519 0 
L 519 4738 
L 1031 4738 
L 1031 1734 
L 1044 1734 
L 2388 3200 
L 3059 3200 
L 1575 1656 
L 3175 0 
z
" transform="scale(0.015625)"/>
      <path id="SegoeUI-7a" d="M 2750 3053 
L 856 438 
L 2731 438 
L 2731 0 
L 103 0 
L 103 159 
L 1997 2763 
L 281 2763 
L 281 3200 
L 2750 3200 
L 2750 3053 
z
" transform="scale(0.015625)"/>
     </defs>
     <use xlink:href="#SegoeUI-44"/>
     <use xlink:href="#SegoeUI-69" x="70.117188"/>
     <use xlink:href="#SegoeUI-73" x="94.335938"/>
     <use xlink:href="#SegoeUI-74" x="136.767578"/>
     <use xlink:href="#SegoeUI-72" x="170.654297"/>
     <use xlink:href="#SegoeUI-69" x="205.419922"/>
     <use xlink:href="#SegoeUI-62" x="229.638672"/>
     <use xlink:href="#SegoeUI-75" x="288.427734"/>
     <use xlink:href="#SegoeUI-74" x="345.019531"/>
     <use xlink:href="#SegoeUI-69" x="378.90625"/>
     <use xlink:href="#SegoeUI-6f" x="403.125"/>
     <use xlink:href="#SegoeUI-6e" x="461.71875"/>
     <use xlink:href="#SegoeUI-20" x="518.310547"/>
     <use xlink:href="#SegoeUI-6f" x="545.703125"/>
     <use xlink:href="#SegoeUI-66" x="602.546875"/>
     <use xlink:href="#SegoeUI-20" x="633.845703"/>
     <use xlink:href="#SegoeUI-64" x="661.238281"/>
     <use xlink:href="#SegoeUI-65" x="720.125"/>
     <use xlink:href="#SegoeUI-61" x="772.419922"/>
     <use xlink:href="#SegoeUI-64" x="823.298828"/>
     <use xlink:href="#SegoeUI-6c" x="882.185547"/>
     <use xlink:href="#SegoeUI-69" x="906.404297"/>
     <use xlink:href="#SegoeUI-6e" x="930.623047"/>
     <use xlink:href="#SegoeUI-65" x="987.214844"/>
     <use xlink:href="#SegoeUI-20" x="1039.509766"/>
     <use xlink:href="#SegoeUI-6f" x="1066.902344"/>
     <use xlink:href="#SegoeUI-62" x="1125.496094"/>
     <use xlink:href="#SegoeUI-73" x="1184.285156"/>
     <use xlink:href="#SegoeUI-74" x="1226.716797"/>
     <use xlink:href="#SegoeUI-61" x="1260.603516"/>
     <use xlink:href="#SegoeUI-63" x="1311.482422"/>
     <use xlink:href="#SegoeUI-6c" x="1357.673828"/>
     <use xlink:href="#SegoeUI-65" x="1381.892578"/>
     <use xlink:href="#SegoeUI-73" x="1434.1875"/>
     <use xlink:href="#SegoeUI-20" x="1476.619141"/>
     <use xlink:href="#SegoeUI-62" x="1504.011719"/>
     <use xlink:href="#SegoeUI-79" x="1562.800781"/>
     <use xlink:href="#SegoeUI-20" x="1611.189453"/>
     <use xlink:href="#SegoeUI-77" x="1638.582031"/>
     <use xlink:href="#SegoeUI-6f" x="1710.597656"/>
     <use xlink:href="#SegoeUI-72" x="1769.191406"/>
     <use xlink:href="#SegoeUI-6b" x="1803.957031"/>
     <use xlink:href="#SegoeUI-70" x="1853.664062"/>
     <use xlink:href="#SegoeUI-6c" x="1912.453125"/>
     <use xlink:href="#SegoeUI-61" x="1936.671875"/>
     <use xlink:href="#SegoeUI-63" x="1987.550781"/>
     <use xlink:href="#SegoeUI-65" x="2033.742188"/>
     <use xlink:href="#SegoeUI-20" x="2086.037109"/>
     <use xlink:href="#SegoeUI-73" x="2113.429688"/>
     <use xlink:href="#SegoeUI-69" x="2155.861328"/>
     <use xlink:href="#SegoeUI-7a" x="2180.080078"/>
     <use xlink:href="#SegoeUI-65" x="2225.294922"/>
    </g>
   </g>
   <g id="legend_1">
    <g id="patch_32">
     <path d="M 200.64 214.693906 
L 409.112344 214.693906 
Q 412.412344 214.693906 412.412344 211.393906 
L 412.412344 66.0275 
Q 412.412344 62.7275 409.112344 62.7275 
L 200.64 62.7275 
Q 197.34 62.7275 197.34 66.0275 
L 197.34 211.393906 
Q 197.34 214.693906 200.64 214.693906 
z
" style="fill: #eaeaf2; opacity: 0.8; stroke: #cccccc; stroke-width: 1.5; stroke-linejoin: miter"/>
    </g>
    <g id="text_14">
     <!-- Obstacle -->
     <g style="fill: #262626" transform="translate(270.307734 82.653125) scale(0.18 -0.18)">
      <defs>
       <path id="SegoeUI-4f" d="M 2394 -75 
Q 1441 -75 867 553 
Q 294 1181 294 2188 
Q 294 3269 878 3912 
Q 1463 4556 2469 4556 
Q 3397 4556 3964 3931 
Q 4531 3306 4531 2297 
Q 4531 1200 3950 562 
Q 3369 -75 2394 -75 
z
M 2431 4081 
Q 1725 4081 1284 3572 
Q 844 3063 844 2234 
Q 844 1406 1273 901 
Q 1703 397 2394 397 
Q 3131 397 3556 878 
Q 3981 1359 3981 2225 
Q 3981 3113 3568 3597 
Q 3156 4081 2431 4081 
z
" transform="scale(0.015625)"/>
      </defs>
      <use xlink:href="#SegoeUI-4f"/>
      <use xlink:href="#SegoeUI-62" x="75.390625"/>
      <use xlink:href="#SegoeUI-73" x="134.179688"/>
      <use xlink:href="#SegoeUI-74" x="176.611328"/>
      <use xlink:href="#SegoeUI-61" x="210.498047"/>
      <use xlink:href="#SegoeUI-63" x="261.376953"/>
      <use xlink:href="#SegoeUI-6c" x="307.568359"/>
      <use xlink:href="#SegoeUI-65" x="331.787109"/>
     </g>
    </g>
    <g id="patch_33">
     <path d="M 203.94 107.258281 
L 236.94 107.258281 
L 236.94 95.708281 
L 203.94 95.708281 
z
" style="fill: #0173b2; stroke: #ffffff; stroke-width: 1.5; stroke-linejoin: miter"/>
    </g>
    <g id="text_15">
     <!-- Lack of resources -->
     <g style="fill: #262626" transform="translate(250.14 107.258281) scale(0.165 -0.165)">
      <defs>
       <path id="SegoeUI-4c" d="M 2913 0 
L 588 0 
L 588 4481 
L 1113 4481 
L 1113 475 
L 2913 475 
L 2913 0 
z
" transform="scale(0.015625)"/>
      </defs>
      <use xlink:href="#SegoeUI-4c"/>
      <use xlink:href="#SegoeUI-61" x="47.070312"/>
      <use xlink:href="#SegoeUI-63" x="97.949219"/>
      <use xlink:href="#SegoeUI-6b" x="144.140625"/>
      <use xlink:href="#SegoeUI-20" x="193.847656"/>
      <use xlink:href="#SegoeUI-6f" x="221.240234"/>
      <use xlink:href="#SegoeUI-66" x="278.083984"/>
      <use xlink:href="#SegoeUI-20" x="309.382812"/>
      <use xlink:href="#SegoeUI-72" x="336.775391"/>
      <use xlink:href="#SegoeUI-65" x="370.166016"/>
      <use xlink:href="#SegoeUI-73" x="422.460938"/>
      <use xlink:href="#SegoeUI-6f" x="464.892578"/>
      <use xlink:href="#SegoeUI-75" x="523.486328"/>
      <use xlink:href="#SegoeUI-72" x="580.078125"/>
      <use xlink:href="#SegoeUI-63" x="613.46875"/>
      <use xlink:href="#SegoeUI-65" x="659.660156"/>
      <use xlink:href="#SegoeUI-73" x="711.955078"/>
     </g>
    </g>
    <g id="patch_34">
     <path d="M 203.94 131.518437 
L 236.94 131.518437 
L 236.94 119.968437 
L 203.94 119.968437 
z
" style="fill: #de8f05; stroke: #ffffff; stroke-width: 1.5; stroke-linejoin: miter"/>
    </g>
    <g id="text_16">
     <!-- Other -->
     <g style="fill: #262626" transform="translate(250.14 131.518437) scale(0.165 -0.165)">
      <use xlink:href="#SegoeUI-4f"/>
      <use xlink:href="#SegoeUI-74" x="75.390625"/>
      <use xlink:href="#SegoeUI-68" x="109.277344"/>
      <use xlink:href="#SegoeUI-65" x="165.869141"/>
      <use xlink:href="#SegoeUI-72" x="218.164062"/>
     </g>
    </g>
    <g id="patch_35">
     <path d="M 203.94 155.778594 
L 236.94 155.778594 
L 236.94 144.228594 
L 203.94 144.228594 
z
" style="fill: #029e73; stroke: #ffffff; stroke-width: 1.5; stroke-linejoin: miter"/>
    </g>
    <g id="text_17">
     <!-- Scope creep -->
     <g style="fill: #262626" transform="translate(250.14 155.778594) scale(0.165 -0.165)">
      <use xlink:href="#SegoeUI-53"/>
      <use xlink:href="#SegoeUI-63" x="53.125"/>
      <use xlink:href="#SegoeUI-6f" x="99.316406"/>
      <use xlink:href="#SegoeUI-70" x="157.910156"/>
      <use xlink:href="#SegoeUI-65" x="216.699219"/>
      <use xlink:href="#SegoeUI-20" x="268.994141"/>
      <use xlink:href="#SegoeUI-63" x="296.386719"/>
      <use xlink:href="#SegoeUI-72" x="342.578125"/>
      <use xlink:href="#SegoeUI-65" x="375.96875"/>
      <use xlink:href="#SegoeUI-65" x="428.263672"/>
      <use xlink:href="#SegoeUI-70" x="480.558594"/>
     </g>
    </g>
    <g id="patch_36">
     <path d="M 203.94 180.03875 
L 236.94 180.03875 
L 236.94 168.48875 
L 203.94 168.48875 
z
" style="fill: #d55e00; stroke: #ffffff; stroke-width: 1.5; stroke-linejoin: miter"/>
    </g>
    <g id="text_18">
     <!-- Team bottlenecks -->
     <g style="fill: #262626" transform="translate(250.14 180.03875) scale(0.165 -0.165)">
      <defs>
       <path id="SegoeUI-54" d="M 3238 4006 
L 1944 4006 
L 1944 0 
L 1419 0 
L 1419 4006 
L 128 4006 
L 128 4481 
L 3238 4481 
L 3238 4006 
z
" transform="scale(0.015625)"/>
      </defs>
      <use xlink:href="#SegoeUI-54"/>
      <use xlink:href="#SegoeUI-65" x="42.142578"/>
      <use xlink:href="#SegoeUI-61" x="94.4375"/>
      <use xlink:href="#SegoeUI-6d" x="145.316406"/>
      <use xlink:href="#SegoeUI-20" x="231.449219"/>
      <use xlink:href="#SegoeUI-62" x="258.841797"/>
      <use xlink:href="#SegoeUI-6f" x="317.630859"/>
      <use xlink:href="#SegoeUI-74" x="376.224609"/>
      <use xlink:href="#SegoeUI-74" x="410.111328"/>
      <use xlink:href="#SegoeUI-6c" x="443.998047"/>
      <use xlink:href="#SegoeUI-65" x="468.216797"/>
      <use xlink:href="#SegoeUI-6e" x="520.511719"/>
      <use xlink:href="#SegoeUI-65" x="577.103516"/>
      <use xlink:href="#SegoeUI-63" x="629.398438"/>
      <use xlink:href="#SegoeUI-6b" x="675.589844"/>
      <use xlink:href="#SegoeUI-73" x="725.296875"/>
     </g>
    </g>
    <g id="patch_37">
     <path d="M 203.94 204.298906 
L 236.94 204.298906 
L 236.94 192.748906 
L 203.94 192.748906 
z
" style="fill: #cc78bc; stroke: #ffffff; stroke-width: 1.5; stroke-linejoin: miter"/>
    </g>
    <g id="text_19">
     <!-- Unclear requirements -->
     <g style="fill: #262626" transform="translate(250.14 204.298906) scale(0.165 -0.165)">
      <defs>
       <path id="SegoeUI-55" d="M 3866 1813 
Q 3866 -75 2163 -75 
Q 531 -75 531 1741 
L 531 4481 
L 1056 4481 
L 1056 1775 
Q 1056 397 2219 397 
Q 3341 397 3341 1728 
L 3341 4481 
L 3866 4481 
L 3866 1813 
z
" transform="scale(0.015625)"/>
       <path id="SegoeUI-71" d="M 3250 -1472 
L 2738 -1472 
L 2738 550 
L 2725 550 
Q 2391 -75 1631 -75 
Q 1028 -75 664 354 
Q 300 784 300 1525 
Q 300 2322 700 2798 
Q 1100 3275 1775 3275 
Q 2431 3275 2725 2756 
L 2738 2756 
L 2738 3200 
L 3250 3200 
L 3250 -1472 
z
M 2738 1441 
L 2738 1906 
Q 2738 2300 2480 2572 
Q 2222 2844 1825 2844 
Q 1363 2844 1094 2501 
Q 825 2159 825 1538 
Q 825 984 1084 670 
Q 1344 356 1753 356 
Q 2203 356 2470 664 
Q 2738 972 2738 1441 
z
" transform="scale(0.015625)"/>
      </defs>
      <use xlink:href="#SegoeUI-55"/>
      <use xlink:href="#SegoeUI-6e" x="68.701172"/>
      <use xlink:href="#SegoeUI-63" x="125.292969"/>
      <use xlink:href="#SegoeUI-6c" x="171.484375"/>
      <use xlink:href="#SegoeUI-65" x="195.703125"/>
      <use xlink:href="#SegoeUI-61" x="247.998047"/>
      <use xlink:href="#SegoeUI-72" x="298.876953"/>
      <use xlink:href="#SegoeUI-20" x="333.642578"/>
      <use xlink:href="#SegoeUI-72" x="361.035156"/>
      <use xlink:href="#SegoeUI-65" x="394.425781"/>
      <use xlink:href="#SegoeUI-71" x="446.720703"/>
      <use xlink:href="#SegoeUI-75" x="505.607422"/>
      <use xlink:href="#SegoeUI-69" x="562.199219"/>
      <use xlink:href="#SegoeUI-72" x="586.417969"/>
      <use xlink:href="#SegoeUI-65" x="619.808594"/>
      <use xlink:href="#SegoeUI-6d" x="672.103516"/>
      <use xlink:href="#SegoeUI-65" x="758.236328"/>
      <use xlink:href="#SegoeUI-6e" x="810.53125"/>
      <use xlink:href="#SegoeUI-74" x="867.123047"/>
      <use xlink:href="#SegoeUI-73" x="901.009766"/>
     </g>
    </g>
   </g>
  </g>
 </g>
 <defs>
  <clipPath id="p6ec5fbf4b3">
   <rect x="71.52" y="54.4775" width="117.57" height="193.9025"/>
  </clipPath>
 </defs>
</svg>
