<?xml version="1.0" encoding="utf-8" standalone="no"?>
<!DOCTYPE svg PUBLIC "-//W3C//DTD SVG 1.1//EN"
  "http://www.w3.org/Graphics/SVG/1.1/DTD/svg11.dtd">
<svg xmlns:xlink="http://www.w3.org/1999/xlink" width="612.471875pt" height="392.402pt" viewBox="0 0 612.471875 392.402" xmlns="http://www.w3.org/2000/svg" version="1.1">
 <metadata>
  <rdf:RDF xmlns:dc="http://purl.org/dc/elements/1.1/" xmlns:cc="http://creativecommons.org/ns#" xmlns:rdf="http://www.w3.org/1999/02/22-rdf-syntax-ns#">
   <cc:Work>
    <dc:type rdf:resource="http://purl.org/dc/dcmitype/StillImage"/>
    <dc:date>2025-10-03T20:14:39.003994</dc:date>
    <dc:format>image/svg+xml</dc:format>
    <dc:creator>
     <cc:Agent>
      <dc:title>Matplotlib v3.9.2, https://matplotlib.org/</dc:title>
     </cc:Agent>
    </dc:creator>
   </cc:Work>
  </rdf:RDF>
 </metadata>
 <defs>
  <style type="text/css">*{stroke-linejoin: round; stroke-linecap: butt}</style>
 </defs>
 <g id="figure_1">
  <g id="patch_1">
   <path d="M 0 392.402 
L 612.471875 392.402 
L 612.471875 0 
L 0 0 
L 0 392.402 
z
" style="fill: none"/>
  </g>
  <g id="axes_1">
   <g id="patch_2">
    <path d="M 47.271875 355.95 
L 605.271875 355.95 
L 605.271875 7.2 
L 47.271875 7.2 
L 47.271875 355.95 
z
" style="fill: none"/>
   </g>
   <g id="matplotlib.axis_1">
    <g id="xtick_1">
     <g id="line2d_1">
      <path d="M 82.146875 355.95 
L 82.146875 7.2 
" clip-path="url(#pb38e4d53f5)" style="fill: none; stroke: #d3d3d3; stroke-width: 1.5; stroke-linecap: round"/>
     </g>
     <g id="text_1">
      <!-- Back-end -->
      <g style="fill: #262626" transform="translate(65.9425 374.3725) scale(0.08 -0.08)">
       <defs>
        <path id="SegoeUI-42" d="M 588 0 
L 588 4481 
L 1863 4481 
Q 2444 4481 2784 4197 
Q 3125 3913 3125 3456 
Q 3125 3075 2919 2794 
Q 2713 2513 2350 2394 
L 2350 2381 
Q 2803 2328 3075 2039 
Q 3347 1750 3347 1288 
Q 3347 713 2934 356 
Q 2522 0 1894 0 
L 588 0 
z
M 1113 4006 
L 1113 2559 
L 1650 2559 
Q 2081 2559 2328 2767 
Q 2575 2975 2575 3353 
Q 2575 4006 1716 4006 
L 1113 4006 
z
M 1113 2088 
L 1113 475 
L 1825 475 
Q 2288 475 2542 694 
Q 2797 913 2797 1294 
Q 2797 2088 1716 2088 
L 1113 2088 
z
" transform="scale(0.015625)"/>
        <path id="SegoeUI-61" d="M 2809 0 
L 2297 0 
L 2297 500 
L 2284 500 
Q 1950 -75 1300 -75 
Q 822 -75 551 178 
Q 281 431 281 850 
Q 281 1747 1338 1894 
L 2297 2028 
Q 2297 2844 1638 2844 
Q 1059 2844 594 2450 
L 594 2975 
Q 1066 3275 1681 3275 
Q 2809 3275 2809 2081 
L 2809 0 
z
M 2297 1619 
L 1525 1513 
Q 1169 1463 987 1336 
Q 806 1209 806 888 
Q 806 653 973 504 
Q 1141 356 1419 356 
Q 1800 356 2048 623 
Q 2297 891 2297 1300 
L 2297 1619 
z
" transform="scale(0.015625)"/>
        <path id="SegoeUI-63" d="M 2700 147 
Q 2331 -75 1825 -75 
Q 1141 -75 720 370 
Q 300 816 300 1525 
Q 300 2316 753 2795 
Q 1206 3275 1963 3275 
Q 2384 3275 2706 3119 
L 2706 2594 
Q 2350 2844 1944 2844 
Q 1453 2844 1139 2492 
Q 825 2141 825 1569 
Q 825 1006 1120 681 
Q 1416 356 1913 356 
Q 2331 356 2700 634 
L 2700 147 
z
" transform="scale(0.015625)"/>
        <path id="SegoeUI-6b" d="M 3175 0 
L 2456 0 
L 1044 1538 
L 1031 1538 
L 1031 0 
L 519 0 
L 519 4738 
L 1031 4738 
L 1031 1734 
L 1044 1734 
L 2388 3200 
L 3059 3200 
L 1575 1656 
L 3175 0 
z
" transform="scale(0.015625)"/>
        <path id="SegoeUI-2d" d="M 2156 1581 
L 450 1581 
L 450 1984 
L 2156 1984 
L 2156 1581 
z
" transform="scale(0.015625)"/>
        <path id="SegoeUI-65" d="M 3091 1472 
L 831 1472 
Q 844 938 1119 647 
Q 1394 356 1875 356 
Q 2416 356 2869 713 
L 2869 231 
Q 2447 -75 1753 -75 
Q 1075 -75 687 361 
Q 300 797 300 1588 
Q 300 2334 723 2804 
Q 1147 3275 1775 3275 
Q 2403 3275 2747 2869 
Q 3091 2463 3091 1741 
L 3091 1472 
z
M 2566 1906 
Q 2563 2350 2352 2597 
Q 2141 2844 1766 2844 
Q 1403 2844 1150 2584 
Q 897 2325 838 1906 
L 2566 1906 
z
" transform="scale(0.015625)"/>
        <path id="SegoeUI-6e" d="M 3175 0 
L 2663 0 
L 2663 1825 
Q 2663 2844 1919 2844 
Q 1534 2844 1282 2555 
Q 1031 2266 1031 1825 
L 1031 0 
L 519 0 
L 519 3200 
L 1031 3200 
L 1031 2669 
L 1044 2669 
Q 1406 3275 2094 3275 
Q 2619 3275 2897 2936 
Q 3175 2597 3175 1956 
L 3175 0 
z
" transform="scale(0.015625)"/>
        <path id="SegoeUI-64" d="M 3250 0 
L 2738 0 
L 2738 544 
L 2725 544 
Q 2369 -75 1625 -75 
Q 1022 -75 661 354 
Q 300 784 300 1525 
Q 300 2319 700 2797 
Q 1100 3275 1766 3275 
Q 2425 3275 2725 2756 
L 2738 2756 
L 2738 4738 
L 3250 4738 
L 3250 0 
z
M 2738 1447 
L 2738 1919 
Q 2738 2306 2481 2575 
Q 2225 2844 1831 2844 
Q 1363 2844 1094 2500 
Q 825 2156 825 1550 
Q 825 997 1083 676 
Q 1341 356 1775 356 
Q 2203 356 2470 665 
Q 2738 975 2738 1447 
z
" transform="scale(0.015625)"/>
       </defs>
       <use xlink:href="#SegoeUI-42"/>
       <use xlink:href="#SegoeUI-61" x="57.324219"/>
       <use xlink:href="#SegoeUI-63" x="108.203125"/>
       <use xlink:href="#SegoeUI-6b" x="154.394531"/>
       <use xlink:href="#SegoeUI-2d" x="197.351562"/>
       <use xlink:href="#SegoeUI-65" x="237.341797"/>
       <use xlink:href="#SegoeUI-6e" x="289.636719"/>
       <use xlink:href="#SegoeUI-64" x="346.228516"/>
      </g>
      <!-- development -->
      <g style="fill: #262626" transform="translate(58.895 383.3195) scale(0.08 -0.08)">
       <defs>
        <path id="SegoeUI-76" d="M 3034 3200 
L 1759 0 
L 1256 0 
L 44 3200 
L 606 3200 
L 1419 875 
Q 1509 619 1531 428 
L 1544 428 
Q 1575 669 1644 863 
L 2494 3200 
L 3034 3200 
z
" transform="scale(0.015625)"/>
        <path id="SegoeUI-6c" d="M 1031 0 
L 519 0 
L 519 4738 
L 1031 4738 
L 1031 0 
z
" transform="scale(0.015625)"/>
        <path id="SegoeUI-6f" d="M 1856 -75 
Q 1147 -75 723 373 
Q 300 822 300 1563 
Q 300 2369 740 2822 
Q 1181 3275 1931 3275 
Q 2647 3275 3048 2834 
Q 3450 2394 3450 1613 
Q 3450 847 3017 386 
Q 2584 -75 1856 -75 
z
M 1894 2844 
Q 1400 2844 1112 2508 
Q 825 2172 825 1581 
Q 825 1013 1115 684 
Q 1406 356 1894 356 
Q 2391 356 2658 678 
Q 2925 1000 2925 1594 
Q 2925 2194 2658 2519 
Q 2391 2844 1894 2844 
z
" transform="scale(0.015625)"/>
        <path id="SegoeUI-70" d="M 1044 463 
L 1031 463 
L 1031 -1472 
L 519 -1472 
L 519 3200 
L 1031 3200 
L 1031 2638 
L 1044 2638 
Q 1422 3275 2150 3275 
Q 2769 3275 3116 2845 
Q 3463 2416 3463 1694 
Q 3463 891 3072 408 
Q 2681 -75 2003 -75 
Q 1381 -75 1044 463 
z
M 1031 1753 
L 1031 1306 
Q 1031 909 1289 632 
Q 1547 356 1944 356 
Q 2409 356 2673 712 
Q 2938 1069 2938 1703 
Q 2938 2238 2691 2541 
Q 2444 2844 2022 2844 
Q 1575 2844 1303 2533 
Q 1031 2222 1031 1753 
z
" transform="scale(0.015625)"/>
        <path id="SegoeUI-6d" d="M 5063 0 
L 4550 0 
L 4550 1838 
Q 4550 2369 4386 2606 
Q 4222 2844 3834 2844 
Q 3506 2844 3276 2544 
Q 3047 2244 3047 1825 
L 3047 0 
L 2534 0 
L 2534 1900 
Q 2534 2844 1806 2844 
Q 1469 2844 1250 2561 
Q 1031 2278 1031 1825 
L 1031 0 
L 519 0 
L 519 3200 
L 1031 3200 
L 1031 2694 
L 1044 2694 
Q 1384 3275 2038 3275 
Q 2366 3275 2609 3092 
Q 2853 2909 2944 2613 
Q 3300 3275 4006 3275 
Q 5063 3275 5063 1972 
L 5063 0 
z
" transform="scale(0.015625)"/>
        <path id="SegoeUI-74" d="M 2003 31 
Q 1822 -69 1525 -69 
Q 684 -69 684 869 
L 684 2763 
L 134 2763 
L 134 3200 
L 684 3200 
L 684 3981 
L 1197 4147 
L 1197 3200 
L 2003 3200 
L 2003 2763 
L 1197 2763 
L 1197 959 
Q 1197 638 1306 500 
Q 1416 363 1669 363 
Q 1863 363 2003 469 
L 2003 31 
z
" transform="scale(0.015625)"/>
       </defs>
       <use xlink:href="#SegoeUI-64"/>
       <use xlink:href="#SegoeUI-65" x="58.886719"/>
       <use xlink:href="#SegoeUI-76" x="111.181641"/>
       <use xlink:href="#SegoeUI-65" x="158.457031"/>
       <use xlink:href="#SegoeUI-6c" x="210.751953"/>
       <use xlink:href="#SegoeUI-6f" x="234.970703"/>
       <use xlink:href="#SegoeUI-70" x="293.564453"/>
       <use xlink:href="#SegoeUI-6d" x="352.353516"/>
       <use xlink:href="#SegoeUI-65" x="438.486328"/>
       <use xlink:href="#SegoeUI-6e" x="490.78125"/>
       <use xlink:href="#SegoeUI-74" x="547.373047"/>
      </g>
     </g>
    </g>
    <g id="xtick_2">
     <g id="line2d_2">
      <path d="M 151.896875 355.95 
L 151.896875 7.2 
" clip-path="url(#pb38e4d53f5)" style="fill: none; stroke: #d3d3d3; stroke-width: 1.5; stroke-linecap: round"/>
     </g>
     <g id="text_2">
      <!-- Front-end -->
      <g style="fill: #262626" transform="translate(134.554375 374.3725) scale(0.08 -0.08)">
       <defs>
        <path id="SegoeUI-46" d="M 2863 4006 
L 1113 4006 
L 1113 2456 
L 2731 2456 
L 2731 1984 
L 1113 1984 
L 1113 0 
L 588 0 
L 588 4481 
L 2863 4481 
L 2863 4006 
z
" transform="scale(0.015625)"/>
        <path id="SegoeUI-72" d="M 2188 2681 
Q 2053 2784 1800 2784 
Q 1472 2784 1251 2475 
Q 1031 2166 1031 1631 
L 1031 0 
L 519 0 
L 519 3200 
L 1031 3200 
L 1031 2541 
L 1044 2541 
Q 1153 2878 1378 3067 
Q 1603 3256 1881 3256 
Q 2081 3256 2188 3213 
L 2188 2681 
z
" transform="scale(0.015625)"/>
       </defs>
       <use xlink:href="#SegoeUI-46"/>
       <use xlink:href="#SegoeUI-72" x="48.828125"/>
       <use xlink:href="#SegoeUI-6f" x="82.21875"/>
       <use xlink:href="#SegoeUI-6e" x="140.8125"/>
       <use xlink:href="#SegoeUI-74" x="197.404297"/>
       <use xlink:href="#SegoeUI-2d" x="225.791016"/>
       <use xlink:href="#SegoeUI-65" x="265.78125"/>
       <use xlink:href="#SegoeUI-6e" x="318.076172"/>
       <use xlink:href="#SegoeUI-64" x="374.667969"/>
      </g>
      <!-- development -->
      <g style="fill: #262626" transform="translate(128.645 383.3195) scale(0.08 -0.08)">
       <use xlink:href="#SegoeUI-64"/>
       <use xlink:href="#SegoeUI-65" x="58.886719"/>
       <use xlink:href="#SegoeUI-76" x="111.181641"/>
       <use xlink:href="#SegoeUI-65" x="158.457031"/>
       <use xlink:href="#SegoeUI-6c" x="210.751953"/>
       <use xlink:href="#SegoeUI-6f" x="234.970703"/>
       <use xlink:href="#SegoeUI-70" x="293.564453"/>
       <use xlink:href="#SegoeUI-6d" x="352.353516"/>
       <use xlink:href="#SegoeUI-65" x="438.486328"/>
       <use xlink:href="#SegoeUI-6e" x="490.78125"/>
       <use xlink:href="#SegoeUI-74" x="547.373047"/>
      </g>
     </g>
    </g>
    <g id="xtick_3">
     <g id="line2d_3">
      <path d="M 221.646875 355.95 
L 221.646875 7.2 
" clip-path="url(#pb38e4d53f5)" style="fill: none; stroke: #d3d3d3; stroke-width: 1.5; stroke-linecap: round"/>
     </g>
     <g id="text_3">
      <!-- DevOps -->
      <g style="fill: #262626" transform="translate(207.76875 374.3725) scale(0.08 -0.08)">
       <defs>
        <path id="SegoeUI-44" d="M 588 0 
L 588 4481 
L 1825 4481 
Q 4194 4481 4194 2297 
Q 4194 1259 3536 629 
Q 2878 0 1775 0 
L 588 0 
z
M 1113 4006 
L 1113 475 
L 1781 475 
Q 2663 475 3153 947 
Q 3644 1419 3644 2284 
Q 3644 4006 1813 4006 
L 1113 4006 
z
" transform="scale(0.015625)"/>
        <path id="SegoeUI-4f" d="M 2394 -75 
Q 1441 -75 867 553 
Q 294 1181 294 2188 
Q 294 3269 878 3912 
Q 1463 4556 2469 4556 
Q 3397 4556 3964 3931 
Q 4531 3306 4531 2297 
Q 4531 1200 3950 562 
Q 3369 -75 2394 -75 
z
M 2431 4081 
Q 1725 4081 1284 3572 
Q 844 3063 844 2234 
Q 844 1406 1273 901 
Q 1703 397 2394 397 
Q 3131 397 3556 878 
Q 3981 1359 3981 2225 
Q 3981 3113 3568 3597 
Q 3156 4081 2431 4081 
z
" transform="scale(0.015625)"/>
        <path id="SegoeUI-73" d="M 325 116 
L 325 666 
Q 744 356 1247 356 
Q 1922 356 1922 806 
Q 1922 934 1864 1023 
Q 1806 1113 1707 1181 
Q 1609 1250 1476 1304 
Q 1344 1359 1191 1419 
Q 978 1503 817 1589 
Q 656 1675 548 1783 
Q 441 1891 386 2028 
Q 331 2166 331 2350 
Q 331 2575 434 2748 
Q 538 2922 709 3039 
Q 881 3156 1101 3215 
Q 1322 3275 1556 3275 
Q 1972 3275 2300 3131 
L 2300 2613 
Q 1947 2844 1488 2844 
Q 1344 2844 1228 2811 
Q 1113 2778 1030 2718 
Q 947 2659 901 2576 
Q 856 2494 856 2394 
Q 856 2269 901 2184 
Q 947 2100 1034 2034 
Q 1122 1969 1247 1916 
Q 1372 1863 1531 1800 
Q 1744 1719 1912 1633 
Q 2081 1547 2200 1439 
Q 2319 1331 2383 1190 
Q 2447 1050 2447 856 
Q 2447 619 2342 444 
Q 2238 269 2063 153 
Q 1888 38 1659 -18 
Q 1431 -75 1181 -75 
Q 688 -75 325 116 
z
" transform="scale(0.015625)"/>
       </defs>
       <use xlink:href="#SegoeUI-44"/>
       <use xlink:href="#SegoeUI-65" x="70.117188"/>
       <use xlink:href="#SegoeUI-76" x="122.412109"/>
       <use xlink:href="#SegoeUI-4f" x="170.3125"/>
       <use xlink:href="#SegoeUI-70" x="245.703125"/>
       <use xlink:href="#SegoeUI-73" x="304.492188"/>
      </g>
      <!-- SysOps -->
      <g style="fill: #262626" transform="translate(208.91375 383.3195) scale(0.08 -0.08)">
       <defs>
        <path id="SegoeUI-53" d="M 378 181 
L 378 800 
Q 484 706 632 631 
Q 781 556 945 504 
Q 1109 453 1275 425 
Q 1441 397 1581 397 
Q 2066 397 2305 576 
Q 2544 756 2544 1094 
Q 2544 1275 2464 1409 
Q 2384 1544 2243 1655 
Q 2103 1766 1911 1867 
Q 1719 1969 1497 2081 
Q 1263 2200 1059 2322 
Q 856 2444 706 2591 
Q 556 2738 470 2923 
Q 384 3109 384 3359 
Q 384 3666 518 3892 
Q 653 4119 872 4266 
Q 1091 4413 1370 4484 
Q 1650 4556 1941 4556 
Q 2603 4556 2906 4397 
L 2906 3806 
Q 2509 4081 1888 4081 
Q 1716 4081 1544 4045 
Q 1372 4009 1237 3928 
Q 1103 3847 1018 3719 
Q 934 3591 934 3406 
Q 934 3234 998 3109 
Q 1063 2984 1188 2881 
Q 1313 2778 1492 2681 
Q 1672 2584 1906 2469 
Q 2147 2350 2362 2219 
Q 2578 2088 2740 1928 
Q 2903 1769 2998 1575 
Q 3094 1381 3094 1131 
Q 3094 800 2964 570 
Q 2834 341 2614 197 
Q 2394 53 2106 -11 
Q 1819 -75 1500 -75 
Q 1394 -75 1237 -58 
Q 1081 -41 918 -8 
Q 756 25 611 73 
Q 466 122 378 181 
z
" transform="scale(0.015625)"/>
        <path id="SegoeUI-79" d="M 3066 3200 
L 1594 -513 
Q 1200 -1506 488 -1506 
Q 288 -1506 153 -1466 
L 153 -1006 
Q 319 -1063 456 -1063 
Q 844 -1063 1038 -600 
L 1294 6 
L 44 3200 
L 613 3200 
L 1478 738 
Q 1494 691 1544 494 
L 1563 494 
Q 1578 569 1625 731 
L 2534 3200 
L 3066 3200 
z
" transform="scale(0.015625)"/>
       </defs>
       <use xlink:href="#SegoeUI-53"/>
       <use xlink:href="#SegoeUI-79" x="50.875"/>
       <use xlink:href="#SegoeUI-73" x="99.263672"/>
       <use xlink:href="#SegoeUI-4f" x="141.695312"/>
       <use xlink:href="#SegoeUI-70" x="217.085938"/>
       <use xlink:href="#SegoeUI-73" x="275.875"/>
      </g>
     </g>
    </g>
    <g id="xtick_4">
     <g id="line2d_4">
      <path d="M 291.396875 355.95 
L 291.396875 7.2 
" clip-path="url(#pb38e4d53f5)" style="fill: none; stroke: #d3d3d3; stroke-width: 1.5; stroke-linecap: round"/>
     </g>
     <g id="text_4">
      <!-- Data Science -->
      <g style="fill: #262626" transform="translate(268.834375 374.3725) scale(0.08 -0.08)">
       <defs>
        <path id="SegoeUI-20" transform="scale(0.015625)"/>
        <path id="SegoeUI-69" d="M 781 4013 
Q 644 4013 547 4106 
Q 450 4200 450 4344 
Q 450 4488 547 4583 
Q 644 4678 781 4678 
Q 922 4678 1020 4583 
Q 1119 4488 1119 4344 
Q 1119 4206 1020 4109 
Q 922 4013 781 4013 
z
M 1031 0 
L 519 0 
L 519 3200 
L 1031 3200 
L 1031 0 
z
" transform="scale(0.015625)"/>
       </defs>
       <use xlink:href="#SegoeUI-44"/>
       <use xlink:href="#SegoeUI-61" x="70.117188"/>
       <use xlink:href="#SegoeUI-74" x="120.996094"/>
       <use xlink:href="#SegoeUI-61" x="154.882812"/>
       <use xlink:href="#SegoeUI-20" x="205.761719"/>
       <use xlink:href="#SegoeUI-53" x="233.154297"/>
       <use xlink:href="#SegoeUI-63" x="286.279297"/>
       <use xlink:href="#SegoeUI-69" x="332.470703"/>
       <use xlink:href="#SegoeUI-65" x="356.689453"/>
       <use xlink:href="#SegoeUI-6e" x="408.984375"/>
       <use xlink:href="#SegoeUI-63" x="465.576172"/>
       <use xlink:href="#SegoeUI-65" x="511.767578"/>
      </g>
      <!-- Big Data/ML -->
      <g style="fill: #262626" transform="translate(269.419375 383.3195) scale(0.08 -0.08)">
       <defs>
        <path id="SegoeUI-67" d="M 3250 256 
Q 3250 -1506 1563 -1506 
Q 969 -1506 525 -1281 
L 525 -769 
Q 1066 -1069 1556 -1069 
Q 2738 -1069 2738 188 
L 2738 538 
L 2725 538 
Q 2359 -75 1625 -75 
Q 1028 -75 664 351 
Q 300 778 300 1497 
Q 300 2313 692 2794 
Q 1084 3275 1766 3275 
Q 2413 3275 2725 2756 
L 2738 2756 
L 2738 3200 
L 3250 3200 
L 3250 256 
z
M 2738 1447 
L 2738 1919 
Q 2738 2300 2480 2572 
Q 2222 2844 1838 2844 
Q 1363 2844 1094 2498 
Q 825 2153 825 1531 
Q 825 997 1083 676 
Q 1341 356 1766 356 
Q 2197 356 2467 662 
Q 2738 969 2738 1447 
z
" transform="scale(0.015625)"/>
        <path id="SegoeUI-2f" d="M 2541 4481 
L 391 -744 
L -88 -744 
L 2056 4481 
L 2541 4481 
z
" transform="scale(0.015625)"/>
        <path id="SegoeUI-4d" d="M 5156 0 
L 4634 0 
L 4634 3006 
Q 4634 3363 4678 3878 
L 4666 3878 
Q 4591 3575 4531 3444 
L 3000 0 
L 2744 0 
L 1216 3419 
Q 1150 3569 1081 3878 
L 1069 3878 
Q 1094 3609 1094 3000 
L 1094 0 
L 588 0 
L 588 4481 
L 1281 4481 
L 2656 1356 
Q 2816 997 2863 819 
L 2881 819 
Q 3016 1188 3097 1369 
L 4500 4481 
L 5156 4481 
L 5156 0 
z
" transform="scale(0.015625)"/>
        <path id="SegoeUI-4c" d="M 2913 0 
L 588 0 
L 588 4481 
L 1113 4481 
L 1113 475 
L 2913 475 
L 2913 0 
z
" transform="scale(0.015625)"/>
       </defs>
       <use xlink:href="#SegoeUI-42"/>
       <use xlink:href="#SegoeUI-69" x="57.324219"/>
       <use xlink:href="#SegoeUI-67" x="81.542969"/>
       <use xlink:href="#SegoeUI-20" x="140.429688"/>
       <use xlink:href="#SegoeUI-44" x="167.822266"/>
       <use xlink:href="#SegoeUI-61" x="237.939453"/>
       <use xlink:href="#SegoeUI-74" x="288.818359"/>
       <use xlink:href="#SegoeUI-61" x="322.705078"/>
       <use xlink:href="#SegoeUI-2f" x="373.583984"/>
       <use xlink:href="#SegoeUI-4d" x="412.548828"/>
       <use xlink:href="#SegoeUI-4c" x="502.34375"/>
      </g>
     </g>
    </g>
    <g id="xtick_5">
     <g id="line2d_5">
      <path d="M 361.146875 355.95 
L 361.146875 7.2 
" clip-path="url(#pb38e4d53f5)" style="fill: none; stroke: #d3d3d3; stroke-width: 1.5; stroke-linecap: round"/>
     </g>
     <g id="text_5">
      <!-- Desktop -->
      <g style="fill: #262626" transform="translate(346.573125 374.3725) scale(0.08 -0.08)">
       <use xlink:href="#SegoeUI-44"/>
       <use xlink:href="#SegoeUI-65" x="70.117188"/>
       <use xlink:href="#SegoeUI-73" x="122.412109"/>
       <use xlink:href="#SegoeUI-6b" x="164.84375"/>
       <use xlink:href="#SegoeUI-74" x="213.800781"/>
       <use xlink:href="#SegoeUI-6f" x="246.9375"/>
       <use xlink:href="#SegoeUI-70" x="305.53125"/>
      </g>
      <!-- development -->
      <g style="fill: #262626" transform="translate(337.895 383.3195) scale(0.08 -0.08)">
       <use xlink:href="#SegoeUI-64"/>
       <use xlink:href="#SegoeUI-65" x="58.886719"/>
       <use xlink:href="#SegoeUI-76" x="111.181641"/>
       <use xlink:href="#SegoeUI-65" x="158.457031"/>
       <use xlink:href="#SegoeUI-6c" x="210.751953"/>
       <use xlink:href="#SegoeUI-6f" x="234.970703"/>
       <use xlink:href="#SegoeUI-70" x="293.564453"/>
       <use xlink:href="#SegoeUI-6d" x="352.353516"/>
       <use xlink:href="#SegoeUI-65" x="438.486328"/>
       <use xlink:href="#SegoeUI-6e" x="490.78125"/>
       <use xlink:href="#SegoeUI-74" x="547.373047"/>
      </g>
     </g>
    </g>
    <g id="xtick_6">
     <g id="line2d_6">
      <path d="M 430.896875 355.95 
L 430.896875 7.2 
" clip-path="url(#pb38e4d53f5)" style="fill: none; stroke: #d3d3d3; stroke-width: 1.5; stroke-linecap: round"/>
     </g>
     <g id="text_6">
      <!-- Mobile -->
      <g style="fill: #262626" transform="translate(418.58 374.3725) scale(0.08 -0.08)">
       <defs>
        <path id="SegoeUI-62" d="M 1044 463 
L 1031 463 
L 1031 0 
L 519 0 
L 519 4738 
L 1031 4738 
L 1031 2638 
L 1044 2638 
Q 1422 3275 2150 3275 
Q 2766 3275 3114 2845 
Q 3463 2416 3463 1694 
Q 3463 891 3072 408 
Q 2681 -75 2003 -75 
Q 1369 -75 1044 463 
z
M 1031 1753 
L 1031 1306 
Q 1031 909 1289 632 
Q 1547 356 1944 356 
Q 2409 356 2673 712 
Q 2938 1069 2938 1703 
Q 2938 2238 2691 2541 
Q 2444 2844 2022 2844 
Q 1575 2844 1303 2533 
Q 1031 2222 1031 1753 
z
" transform="scale(0.015625)"/>
       </defs>
       <use xlink:href="#SegoeUI-4d"/>
       <use xlink:href="#SegoeUI-6f" x="89.794922"/>
       <use xlink:href="#SegoeUI-62" x="148.388672"/>
       <use xlink:href="#SegoeUI-69" x="207.177734"/>
       <use xlink:href="#SegoeUI-6c" x="231.396484"/>
       <use xlink:href="#SegoeUI-65" x="255.615234"/>
      </g>
      <!-- development -->
      <g style="fill: #262626" transform="translate(407.645 383.3195) scale(0.08 -0.08)">
       <use xlink:href="#SegoeUI-64"/>
       <use xlink:href="#SegoeUI-65" x="58.886719"/>
       <use xlink:href="#SegoeUI-76" x="111.181641"/>
       <use xlink:href="#SegoeUI-65" x="158.457031"/>
       <use xlink:href="#SegoeUI-6c" x="210.751953"/>
       <use xlink:href="#SegoeUI-6f" x="234.970703"/>
       <use xlink:href="#SegoeUI-70" x="293.564453"/>
       <use xlink:href="#SegoeUI-6d" x="352.353516"/>
       <use xlink:href="#SegoeUI-65" x="438.486328"/>
       <use xlink:href="#SegoeUI-6e" x="490.78125"/>
       <use xlink:href="#SegoeUI-74" x="547.373047"/>
      </g>
     </g>
    </g>
    <g id="xtick_7">
     <g id="line2d_7">
      <path d="M 500.646875 355.95 
L 500.646875 7.2 
" clip-path="url(#pb38e4d53f5)" style="fill: none; stroke: #d3d3d3; stroke-width: 1.5; stroke-linecap: round"/>
     </g>
     <g id="text_7">
      <!-- Embedded -->
      <g style="fill: #262626" transform="translate(481.575 374.3725) scale(0.08 -0.08)">
       <defs>
        <path id="SegoeUI-45" d="M 2963 0 
L 588 0 
L 588 4481 
L 2863 4481 
L 2863 4006 
L 1113 4006 
L 1113 2516 
L 2731 2516 
L 2731 2044 
L 1113 2044 
L 1113 475 
L 2963 475 
L 2963 0 
z
" transform="scale(0.015625)"/>
       </defs>
       <use xlink:href="#SegoeUI-45"/>
       <use xlink:href="#SegoeUI-6d" x="50.585938"/>
       <use xlink:href="#SegoeUI-62" x="136.71875"/>
       <use xlink:href="#SegoeUI-65" x="195.507812"/>
       <use xlink:href="#SegoeUI-64" x="247.802734"/>
       <use xlink:href="#SegoeUI-64" x="306.689453"/>
       <use xlink:href="#SegoeUI-65" x="365.576172"/>
       <use xlink:href="#SegoeUI-64" x="417.871094"/>
      </g>
      <!-- development -->
      <g style="fill: #262626" transform="translate(477.395 383.3195) scale(0.08 -0.08)">
       <use xlink:href="#SegoeUI-64"/>
       <use xlink:href="#SegoeUI-65" x="58.886719"/>
       <use xlink:href="#SegoeUI-76" x="111.181641"/>
       <use xlink:href="#SegoeUI-65" x="158.457031"/>
       <use xlink:href="#SegoeUI-6c" x="210.751953"/>
       <use xlink:href="#SegoeUI-6f" x="234.970703"/>
       <use xlink:href="#SegoeUI-70" x="293.564453"/>
       <use xlink:href="#SegoeUI-6d" x="352.353516"/>
       <use xlink:href="#SegoeUI-65" x="438.486328"/>
       <use xlink:href="#SegoeUI-6e" x="490.78125"/>
       <use xlink:href="#SegoeUI-74" x="547.373047"/>
      </g>
     </g>
    </g>
    <g id="xtick_8">
     <g id="line2d_8">
      <path d="M 570.396875 355.95 
L 570.396875 7.2 
" clip-path="url(#pb38e4d53f5)" style="fill: none; stroke: #d3d3d3; stroke-width: 1.5; stroke-linecap: round"/>
     </g>
     <g id="text_8">
      <!-- Other -->
      <g style="fill: #262626" transform="translate(560.279375 374.3725) scale(0.08 -0.08)">
       <defs>
        <path id="SegoeUI-68" d="M 3175 0 
L 2663 0 
L 2663 1844 
Q 2663 2844 1919 2844 
Q 1544 2844 1287 2555 
Q 1031 2266 1031 1813 
L 1031 0 
L 519 0 
L 519 4738 
L 1031 4738 
L 1031 2669 
L 1044 2669 
Q 1413 3275 2094 3275 
Q 3175 3275 3175 1972 
L 3175 0 
z
" transform="scale(0.015625)"/>
       </defs>
       <use xlink:href="#SegoeUI-4f"/>
       <use xlink:href="#SegoeUI-74" x="75.390625"/>
       <use xlink:href="#SegoeUI-68" x="109.277344"/>
       <use xlink:href="#SegoeUI-65" x="165.869141"/>
       <use xlink:href="#SegoeUI-72" x="218.164062"/>
      </g>
     </g>
    </g>
   </g>
   <g id="matplotlib.axis_2">
    <g id="ytick_1">
     <g id="line2d_9">
      <path d="M 47.271875 42.075 
L 605.271875 42.075 
" clip-path="url(#pb38e4d53f5)" style="fill: none; stroke: #d3d3d3; stroke-width: 1.5; stroke-linecap: round"/>
     </g>
     <g id="text_9">
      <!-- &lt;2 -->
      <g style="fill: #262626" transform="translate(32.931875 46.9675) rotate(-90) scale(0.08 -0.08)">
       <defs>
        <path id="SegoeUI-3c" d="M 3538 397 
L 850 1747 
L 850 1931 
L 3538 3438 
L 3538 2969 
L 1531 1856 
L 1531 1844 
L 3538 863 
L 3538 397 
z
" transform="scale(0.015625)"/>
        <path id="SegoeUI-32" d="M 2413 3306 
Q 2413 3513 2348 3666 
Q 2284 3819 2173 3920 
Q 2063 4022 1913 4072 
Q 1763 4122 1588 4122 
Q 1438 4122 1294 4081 
Q 1150 4041 1014 3969 
Q 878 3897 751 3797 
Q 625 3697 516 3575 
L 516 4125 
Q 731 4334 998 4445 
Q 1266 4556 1650 4556 
Q 1925 4556 2159 4476 
Q 2394 4397 2566 4244 
Q 2738 4091 2836 3866 
Q 2934 3641 2934 3350 
Q 2934 3084 2873 2868 
Q 2813 2653 2689 2462 
Q 2566 2272 2378 2097 
Q 2191 1922 1938 1741 
Q 1622 1516 1417 1356 
Q 1213 1197 1092 1058 
Q 972 919 923 780 
Q 875 641 875 459 
L 3106 459 
L 3106 0 
L 341 0 
L 341 222 
Q 341 509 403 728 
Q 466 947 609 1144 
Q 753 1341 986 1537 
Q 1219 1734 1556 1981 
Q 1800 2156 1964 2315 
Q 2128 2475 2228 2634 
Q 2328 2794 2370 2958 
Q 2413 3122 2413 3306 
z
" transform="scale(0.015625)"/>
       </defs>
       <use xlink:href="#SegoeUI-3c"/>
       <use xlink:href="#SegoeUI-32" x="68.408203"/>
      </g>
     </g>
    </g>
    <g id="ytick_2">
     <g id="line2d_10">
      <path d="M 47.271875 111.825 
L 605.271875 111.825 
" clip-path="url(#pb38e4d53f5)" style="fill: none; stroke: #d3d3d3; stroke-width: 1.5; stroke-linecap: round"/>
     </g>
     <g id="text_10">
      <!-- 2-3 -->
      <g style="fill: #262626" transform="translate(32.931875 117.736875) rotate(-90) scale(0.08 -0.08)">
       <defs>
        <path id="SegoeUI-33" d="M 2978 1269 
Q 2978 966 2864 717 
Q 2750 469 2542 292 
Q 2334 116 2043 19 
Q 1753 -78 1403 -78 
Q 763 -78 384 166 
L 384 716 
Q 838 359 1422 359 
Q 1656 359 1845 418 
Q 2034 478 2170 590 
Q 2306 703 2379 862 
Q 2453 1022 2453 1222 
Q 2453 2100 1203 2100 
L 831 2100 
L 831 2534 
L 1184 2534 
Q 2291 2534 2291 3359 
Q 2291 4122 1447 4122 
Q 972 4122 556 3803 
L 556 4300 
Q 984 4556 1575 4556 
Q 1856 4556 2084 4478 
Q 2313 4400 2475 4259 
Q 2638 4119 2727 3922 
Q 2816 3725 2816 3488 
Q 2816 2603 1922 2350 
L 1922 2338 
Q 2150 2313 2344 2227 
Q 2538 2141 2678 2003 
Q 2819 1866 2898 1680 
Q 2978 1494 2978 1269 
z
" transform="scale(0.015625)"/>
       </defs>
       <use xlink:href="#SegoeUI-32"/>
       <use xlink:href="#SegoeUI-2d" x="53.90625"/>
       <use xlink:href="#SegoeUI-33" x="93.896484"/>
      </g>
     </g>
    </g>
    <g id="ytick_3">
     <g id="line2d_11">
      <path d="M 47.271875 181.575 
L 605.271875 181.575 
" clip-path="url(#pb38e4d53f5)" style="fill: none; stroke: #d3d3d3; stroke-width: 1.5; stroke-linecap: round"/>
     </g>
     <g id="text_11">
      <!-- 4-6 -->
      <g style="fill: #262626" transform="translate(32.931875 187.486875) rotate(-90) scale(0.08 -0.08)">
       <defs>
        <path id="SegoeUI-34" d="M 2656 4481 
L 2656 1522 
L 3231 1522 
L 3231 1053 
L 2656 1053 
L 2656 0 
L 2150 0 
L 2150 1053 
L 44 1053 
L 44 1497 
Q 338 1828 638 2204 
Q 938 2581 1211 2968 
Q 1484 3356 1717 3742 
Q 1950 4128 2109 4481 
L 2656 4481 
z
M 622 1522 
L 2150 1522 
L 2150 3716 
Q 1916 3306 1706 2984 
Q 1497 2663 1308 2400 
Q 1119 2138 947 1925 
Q 775 1713 622 1522 
z
" transform="scale(0.015625)"/>
        <path id="SegoeUI-36" d="M 3194 1422 
Q 3194 1094 3087 819 
Q 2981 544 2793 344 
Q 2606 144 2347 33 
Q 2088 -78 1784 -78 
Q 1447 -78 1180 62 
Q 913 203 727 467 
Q 541 731 444 1112 
Q 347 1494 347 1972 
Q 347 2556 476 3032 
Q 606 3509 845 3848 
Q 1084 4188 1421 4372 
Q 1759 4556 2175 4556 
Q 2638 4556 2919 4428 
L 2919 3944 
Q 2572 4122 2188 4122 
Q 1888 4122 1647 3987 
Q 1406 3853 1234 3608 
Q 1063 3363 970 3016 
Q 878 2669 878 2244 
L 891 2244 
Q 1200 2803 1913 2803 
Q 2206 2803 2442 2703 
Q 2678 2603 2845 2420 
Q 3013 2238 3103 1984 
Q 3194 1731 3194 1422 
z
M 2669 1356 
Q 2669 1591 2609 1778 
Q 2550 1966 2439 2097 
Q 2328 2228 2165 2298 
Q 2003 2369 1797 2369 
Q 1606 2369 1443 2297 
Q 1281 2225 1162 2101 
Q 1044 1978 976 1814 
Q 909 1650 909 1466 
Q 909 1234 975 1032 
Q 1041 831 1159 681 
Q 1278 531 1442 445 
Q 1606 359 1806 359 
Q 2000 359 2159 432 
Q 2319 506 2431 637 
Q 2544 769 2606 951 
Q 2669 1134 2669 1356 
z
" transform="scale(0.015625)"/>
       </defs>
       <use xlink:href="#SegoeUI-34"/>
       <use xlink:href="#SegoeUI-2d" x="53.90625"/>
       <use xlink:href="#SegoeUI-36" x="93.896484"/>
      </g>
     </g>
    </g>
    <g id="ytick_4">
     <g id="line2d_12">
      <path d="M 47.271875 251.325 
L 605.271875 251.325 
" clip-path="url(#pb38e4d53f5)" style="fill: none; stroke: #d3d3d3; stroke-width: 1.5; stroke-linecap: round"/>
     </g>
     <g id="text_12">
      <!-- 7-10 -->
      <g style="fill: #262626" transform="translate(32.931875 259.393125) rotate(-90) scale(0.08 -0.08)">
       <defs>
        <path id="SegoeUI-37" d="M 3156 4184 
Q 3053 4006 2908 3740 
Q 2763 3475 2600 3144 
Q 2438 2813 2269 2431 
Q 2100 2050 1953 1644 
Q 1806 1238 1695 820 
Q 1584 403 1534 0 
L 984 0 
Q 1041 400 1158 817 
Q 1275 1234 1423 1636 
Q 1572 2038 1737 2409 
Q 1903 2781 2059 3093 
Q 2216 3406 2345 3645 
Q 2475 3884 2553 4019 
L 306 4019 
L 306 4481 
L 3156 4481 
L 3156 4184 
z
" transform="scale(0.015625)"/>
        <path id="SegoeUI-31" d="M 2263 0 
L 1750 0 
L 1750 3872 
Q 1691 3813 1577 3736 
Q 1463 3659 1320 3584 
Q 1178 3509 1020 3443 
Q 863 3378 713 3341 
L 713 3859 
Q 881 3906 1070 3986 
Q 1259 4066 1442 4164 
Q 1625 4263 1787 4370 
Q 1950 4478 2069 4581 
L 2263 4581 
L 2263 0 
z
" transform="scale(0.015625)"/>
        <path id="SegoeUI-30" d="M 3188 2259 
Q 3188 1697 3086 1262 
Q 2984 828 2792 529 
Q 2600 231 2320 76 
Q 2041 -78 1684 -78 
Q 1347 -78 1083 70 
Q 819 219 637 503 
Q 456 788 362 1202 
Q 269 1616 269 2150 
Q 269 2738 367 3188 
Q 466 3638 656 3942 
Q 847 4247 1130 4401 
Q 1413 4556 1778 4556 
Q 3188 4556 3188 2259 
z
M 2663 2209 
Q 2663 4122 1753 4122 
Q 794 4122 794 2175 
Q 794 359 1734 359 
Q 2663 359 2663 2209 
z
" transform="scale(0.015625)"/>
       </defs>
       <use xlink:href="#SegoeUI-37"/>
       <use xlink:href="#SegoeUI-2d" x="53.90625"/>
       <use xlink:href="#SegoeUI-31" x="93.896484"/>
       <use xlink:href="#SegoeUI-30" x="147.802734"/>
      </g>
     </g>
    </g>
    <g id="ytick_5">
     <g id="line2d_13">
      <path d="M 47.271875 321.075 
L 605.271875 321.075 
" clip-path="url(#pb38e4d53f5)" style="fill: none; stroke: #d3d3d3; stroke-width: 1.5; stroke-linecap: round"/>
     </g>
     <g id="text_13">
      <!-- &gt;10 -->
      <g style="fill: #262626" transform="translate(32.931875 328.12375) rotate(-90) scale(0.08 -0.08)">
       <defs>
        <path id="SegoeUI-3e" d="M 3538 1747 
L 850 397 
L 850 863 
L 2863 1838 
L 2863 1856 
L 850 2969 
L 850 3438 
L 3538 1931 
L 3538 1747 
z
" transform="scale(0.015625)"/>
       </defs>
       <use xlink:href="#SegoeUI-3e"/>
       <use xlink:href="#SegoeUI-31" x="68.408203"/>
       <use xlink:href="#SegoeUI-30" x="122.314453"/>
      </g>
     </g>
    </g>
    <g id="text_14">
     <!-- Years of experience -->
     <g style="fill: #262626" transform="translate(14.709375 223.880469) rotate(-90) scale(0.1 -0.1)">
      <defs>
       <path id="SegoeUI-59" d="M 3500 4481 
L 2022 1656 
L 2022 0 
L 1497 0 
L 1497 1644 
L 56 4481 
L 653 4481 
L 1656 2456 
Q 1675 2419 1766 2181 
L 1775 2181 
Q 1806 2288 1894 2456 
L 2944 4481 
L 3500 4481 
z
" transform="scale(0.015625)"/>
       <path id="SegoeUI-66" d="M 2100 4288 
Q 1950 4372 1759 4372 
Q 1222 4372 1222 3694 
L 1222 3200 
L 1972 3200 
L 1972 2763 
L 1222 2763 
L 1222 0 
L 713 0 
L 713 2763 
L 166 2763 
L 166 3200 
L 713 3200 
L 713 3719 
Q 713 4222 1003 4514 
Q 1294 4806 1728 4806 
Q 1963 4806 2100 4750 
L 2100 4288 
z
" transform="scale(0.015625)"/>
       <path id="SegoeUI-78" d="M 2856 3200 
L 1781 1581 
L 2838 0 
L 2241 0 
L 1613 1038 
Q 1553 1134 1472 1281 
L 1459 1281 
Q 1444 1253 1313 1038 
L 672 0 
L 81 0 
L 1172 1569 
L 128 3200 
L 725 3200 
L 1344 2106 
Q 1413 1984 1478 1856 
L 1491 1856 
L 2291 3200 
L 2856 3200 
z
" transform="scale(0.015625)"/>
      </defs>
      <use xlink:href="#SegoeUI-59"/>
      <use xlink:href="#SegoeUI-65" x="46.523438"/>
      <use xlink:href="#SegoeUI-61" x="98.818359"/>
      <use xlink:href="#SegoeUI-72" x="149.697266"/>
      <use xlink:href="#SegoeUI-73" x="185.087891"/>
      <use xlink:href="#SegoeUI-20" x="227.519531"/>
      <use xlink:href="#SegoeUI-6f" x="254.912109"/>
      <use xlink:href="#SegoeUI-66" x="311.755859"/>
      <use xlink:href="#SegoeUI-20" x="343.054688"/>
      <use xlink:href="#SegoeUI-65" x="370.447266"/>
      <use xlink:href="#SegoeUI-78" x="422.742188"/>
      <use xlink:href="#SegoeUI-70" x="468.640625"/>
      <use xlink:href="#SegoeUI-65" x="527.429688"/>
      <use xlink:href="#SegoeUI-72" x="579.724609"/>
      <use xlink:href="#SegoeUI-69" x="614.490234"/>
      <use xlink:href="#SegoeUI-65" x="638.708984"/>
      <use xlink:href="#SegoeUI-6e" x="691.003906"/>
      <use xlink:href="#SegoeUI-63" x="747.595703"/>
      <use xlink:href="#SegoeUI-65" x="793.787109"/>
     </g>
    </g>
   </g>
   <g id="QuadMesh_1">
    <path d="M 47.271875 7.2 
L 117.021875 7.2 
L 117.021875 76.95 
L 47.271875 76.95 
L 47.271875 7.2 
" clip-path="url(#pb38e4d53f5)" style="fill: #43938f; stroke: #ffffff; stroke-width: 0.5"/>
    <path d="M 117.021875 7.2 
L 186.771875 7.2 
L 186.771875 76.95 
L 117.021875 76.95 
L 117.021875 7.2 
" clip-path="url(#pb38e4d53f5)" style="fill: #7fbb91; stroke: #ffffff; stroke-width: 0.5"/>
    <path d="M 186.771875 7.2 
L 256.521875 7.2 
L 256.521875 76.95 
L 186.771875 76.95 
L 186.771875 7.2 
" clip-path="url(#pb38e4d53f5)" style="fill: #7fbb91; stroke: #ffffff; stroke-width: 0.5"/>
    <path d="M 256.521875 7.2 
L 326.271875 7.2 
L 326.271875 76.95 
L 256.521875 76.95 
L 256.521875 7.2 
" clip-path="url(#pb38e4d53f5)" style="fill: #7fbb91; stroke: #ffffff; stroke-width: 0.5"/>
    <path d="M 326.271875 7.2 
L 396.021875 7.2 
L 396.021875 76.95 
L 326.271875 76.95 
L 326.271875 7.2 
" clip-path="url(#pb38e4d53f5)" style="fill: #99c791; stroke: #ffffff; stroke-width: 0.5"/>
    <path d="M 396.021875 7.2 
L 465.771875 7.2 
L 465.771875 76.95 
L 396.021875 76.95 
L 396.021875 7.2 
" clip-path="url(#pb38e4d53f5)" style="fill: #a5cd90; stroke: #ffffff; stroke-width: 0.5"/>
    <path d="M 465.771875 7.2 
L 535.521875 7.2 
L 535.521875 76.95 
L 465.771875 76.95 
L 465.771875 7.2 
" clip-path="url(#pb38e4d53f5)" style="fill: #8bc191; stroke: #ffffff; stroke-width: 0.5"/>
    <path d="M 535.521875 7.2 
L 605.271875 7.2 
L 605.271875 76.95 
L 535.521875 76.95 
L 535.521875 7.2 
" clip-path="url(#pb38e4d53f5)" style="fill: #99c791; stroke: #ffffff; stroke-width: 0.5"/>
    <path d="M 47.271875 76.95 
L 117.021875 76.95 
L 117.021875 146.7 
L 47.271875 146.7 
L 47.271875 76.95 
" clip-path="url(#pb38e4d53f5)" style="fill: #26497e; stroke: #ffffff; stroke-width: 0.5"/>
    <path d="M 117.021875 76.95 
L 186.771875 76.95 
L 186.771875 146.7 
L 117.021875 146.7 
L 117.021875 76.95 
" clip-path="url(#pb38e4d53f5)" style="fill: #43938f; stroke: #ffffff; stroke-width: 0.5"/>
    <path d="M 186.771875 76.95 
L 256.521875 76.95 
L 256.521875 146.7 
L 186.771875 146.7 
L 186.771875 76.95 
" clip-path="url(#pb38e4d53f5)" style="fill: #8bc191; stroke: #ffffff; stroke-width: 0.5"/>
    <path d="M 256.521875 76.95 
L 326.271875 76.95 
L 326.271875 146.7 
L 256.521875 146.7 
L 256.521875 76.95 
" clip-path="url(#pb38e4d53f5)" style="fill: #5ca890; stroke: #ffffff; stroke-width: 0.5"/>
    <path d="M 326.271875 76.95 
L 396.021875 76.95 
L 396.021875 146.7 
L 326.271875 146.7 
L 326.271875 76.95 
" clip-path="url(#pb38e4d53f5)" style="fill: #99c791; stroke: #ffffff; stroke-width: 0.5"/>
    <path d="M 396.021875 76.95 
L 465.771875 76.95 
L 465.771875 146.7 
L 396.021875 146.7 
L 396.021875 76.95 
" clip-path="url(#pb38e4d53f5)" style="fill: #99c791; stroke: #ffffff; stroke-width: 0.5"/>
    <path d="M 465.771875 76.95 
L 535.521875 76.95 
L 535.521875 146.7 
L 465.771875 146.7 
L 465.771875 76.95 
" clip-path="url(#pb38e4d53f5)" style="fill: #8bc191; stroke: #ffffff; stroke-width: 0.5"/>
    <path d="M 535.521875 76.95 
L 605.271875 76.95 
L 605.271875 146.7 
L 535.521875 146.7 
L 535.521875 76.95 
" clip-path="url(#pb38e4d53f5)" style="fill: #8bc191; stroke: #ffffff; stroke-width: 0.5"/>
    <path d="M 47.271875 146.7 
L 117.021875 146.7 
L 117.021875 216.45 
L 47.271875 216.45 
L 47.271875 146.7 
" clip-path="url(#pb38e4d53f5)" style="fill: #2b3975; stroke: #ffffff; stroke-width: 0.5"/>
    <path d="M 117.021875 146.7 
L 186.771875 146.7 
L 186.771875 216.45 
L 117.021875 216.45 
L 117.021875 146.7 
" clip-path="url(#pb38e4d53f5)" style="fill: #1c6989; stroke: #ffffff; stroke-width: 0.5"/>
    <path d="M 186.771875 146.7 
L 256.521875 146.7 
L 256.521875 216.45 
L 186.771875 216.45 
L 186.771875 146.7 
" clip-path="url(#pb38e4d53f5)" style="fill: #4a9a8f; stroke: #ffffff; stroke-width: 0.5"/>
    <path d="M 256.521875 146.7 
L 326.271875 146.7 
L 326.271875 216.45 
L 256.521875 216.45 
L 256.521875 146.7 
" clip-path="url(#pb38e4d53f5)" style="fill: #7fbb91; stroke: #ffffff; stroke-width: 0.5"/>
    <path d="M 326.271875 146.7 
L 396.021875 146.7 
L 396.021875 216.45 
L 326.271875 216.45 
L 326.271875 146.7 
" clip-path="url(#pb38e4d53f5)" style="fill: #7fbb91; stroke: #ffffff; stroke-width: 0.5"/>
    <path d="M 396.021875 146.7 
L 465.771875 146.7 
L 465.771875 216.45 
L 396.021875 216.45 
L 396.021875 146.7 
" clip-path="url(#pb38e4d53f5)" style="fill: #66ae90; stroke: #ffffff; stroke-width: 0.5"/>
    <path d="M 465.771875 146.7 
L 535.521875 146.7 
L 535.521875 216.45 
L 465.771875 216.45 
L 465.771875 146.7 
" clip-path="url(#pb38e4d53f5)" style="fill: #72b490; stroke: #ffffff; stroke-width: 0.5"/>
    <path d="M 535.521875 146.7 
L 605.271875 146.7 
L 605.271875 216.45 
L 535.521875 216.45 
L 535.521875 146.7 
" clip-path="url(#pb38e4d53f5)" style="fill: #99c791; stroke: #ffffff; stroke-width: 0.5"/>
    <path d="M 47.271875 216.45 
L 117.021875 216.45 
L 117.021875 286.2 
L 47.271875 286.2 
L 47.271875 216.45 
" clip-path="url(#pb38e4d53f5)" style="fill: #4a9a8f; stroke: #ffffff; stroke-width: 0.5"/>
    <path d="M 117.021875 216.45 
L 186.771875 216.45 
L 186.771875 286.2 
L 117.021875 286.2 
L 117.021875 216.45 
" clip-path="url(#pb38e4d53f5)" style="fill: #5ca890; stroke: #ffffff; stroke-width: 0.5"/>
    <path d="M 186.771875 216.45 
L 256.521875 216.45 
L 256.521875 286.2 
L 186.771875 286.2 
L 186.771875 216.45 
" clip-path="url(#pb38e4d53f5)" style="fill: #7fbb91; stroke: #ffffff; stroke-width: 0.5"/>
    <path d="M 256.521875 216.45 
L 326.271875 216.45 
L 326.271875 286.2 
L 256.521875 286.2 
L 256.521875 216.45 
" clip-path="url(#pb38e4d53f5)" style="fill: #8bc191; stroke: #ffffff; stroke-width: 0.5"/>
    <path d="M 326.271875 216.45 
L 396.021875 216.45 
L 396.021875 286.2 
L 326.271875 286.2 
L 326.271875 216.45 
" clip-path="url(#pb38e4d53f5)" style="fill: #a5cd90; stroke: #ffffff; stroke-width: 0.5"/>
    <path d="M 396.021875 216.45 
L 465.771875 216.45 
L 465.771875 286.2 
L 396.021875 286.2 
L 396.021875 216.45 
" clip-path="url(#pb38e4d53f5)" style="fill: #a5cd90; stroke: #ffffff; stroke-width: 0.5"/>
    <path d="M 465.771875 216.45 
L 535.521875 216.45 
L 535.521875 286.2 
L 465.771875 286.2 
L 465.771875 216.45 
" clip-path="url(#pb38e4d53f5)" style="fill: #99c791; stroke: #ffffff; stroke-width: 0.5"/>
    <path d="M 535.521875 216.45 
L 605.271875 216.45 
L 605.271875 286.2 
L 535.521875 286.2 
L 535.521875 216.45 
" clip-path="url(#pb38e4d53f5)" style="fill: #a5cd90; stroke: #ffffff; stroke-width: 0.5"/>
    <path d="M 47.271875 286.2 
L 117.021875 286.2 
L 117.021875 355.95 
L 47.271875 355.95 
L 47.271875 286.2 
" clip-path="url(#pb38e4d53f5)" style="fill: #2c3172; stroke: #ffffff; stroke-width: 0.5"/>
    <path d="M 117.021875 286.2 
L 186.771875 286.2 
L 186.771875 355.95 
L 117.021875 355.95 
L 117.021875 286.2 
" clip-path="url(#pb38e4d53f5)" style="fill: #2c7e8c; stroke: #ffffff; stroke-width: 0.5"/>
    <path d="M 186.771875 286.2 
L 256.521875 286.2 
L 256.521875 355.95 
L 186.771875 355.95 
L 186.771875 286.2 
" clip-path="url(#pb38e4d53f5)" style="fill: #4a9a8f; stroke: #ffffff; stroke-width: 0.5"/>
    <path d="M 256.521875 286.2 
L 326.271875 286.2 
L 326.271875 355.95 
L 256.521875 355.95 
L 256.521875 286.2 
" clip-path="url(#pb38e4d53f5)" style="fill: #7fbb91; stroke: #ffffff; stroke-width: 0.5"/>
    <path d="M 326.271875 286.2 
L 396.021875 286.2 
L 396.021875 355.95 
L 326.271875 355.95 
L 326.271875 286.2 
" clip-path="url(#pb38e4d53f5)" style="fill: #66ae90; stroke: #ffffff; stroke-width: 0.5"/>
    <path d="M 396.021875 286.2 
L 465.771875 286.2 
L 465.771875 355.95 
L 396.021875 355.95 
L 396.021875 286.2 
" clip-path="url(#pb38e4d53f5)" style="fill: #66ae90; stroke: #ffffff; stroke-width: 0.5"/>
    <path d="M 465.771875 286.2 
L 535.521875 286.2 
L 535.521875 355.95 
L 465.771875 355.95 
L 465.771875 286.2 
" clip-path="url(#pb38e4d53f5)" style="fill: #8bc191; stroke: #ffffff; stroke-width: 0.5"/>
    <path d="M 535.521875 286.2 
L 605.271875 286.2 
L 605.271875 355.95 
L 535.521875 355.95 
L 535.521875 286.2 
" clip-path="url(#pb38e4d53f5)" style="fill: #7fbb91; stroke: #ffffff; stroke-width: 0.5"/>
   </g>
   <g id="text_15">
    <!-- 9 -->
    <g style="fill: #ffffff" transform="translate(79.990625 44.11625) scale(0.08 -0.08)">
     <defs>
      <path id="SegoeUI-39" d="M 3138 2509 
Q 3138 1894 3016 1414 
Q 2894 934 2659 601 
Q 2425 269 2087 95 
Q 1750 -78 1319 -78 
Q 875 -78 538 78 
L 538 569 
Q 909 359 1331 359 
Q 1634 359 1873 484 
Q 2113 609 2278 848 
Q 2444 1088 2531 1438 
Q 2619 1788 2619 2241 
L 2606 2241 
Q 2319 1663 1606 1663 
Q 1319 1663 1078 1764 
Q 838 1866 663 2052 
Q 488 2238 391 2494 
Q 294 2750 294 3059 
Q 294 3391 401 3666 
Q 509 3941 701 4139 
Q 894 4338 1158 4447 
Q 1422 4556 1734 4556 
Q 2072 4556 2333 4420 
Q 2594 4284 2772 4023 
Q 2950 3763 3044 3381 
Q 3138 3000 3138 2509 
z
M 2584 2969 
Q 2584 3228 2517 3440 
Q 2450 3653 2331 3804 
Q 2213 3956 2048 4039 
Q 1884 4122 1691 4122 
Q 1506 4122 1347 4048 
Q 1188 3975 1070 3842 
Q 953 3709 886 3526 
Q 819 3344 819 3128 
Q 819 2891 883 2703 
Q 947 2516 1065 2386 
Q 1184 2256 1351 2187 
Q 1519 2119 1722 2119 
Q 1900 2119 2058 2186 
Q 2216 2253 2333 2367 
Q 2450 2481 2517 2636 
Q 2584 2791 2584 2969 
z
" transform="scale(0.015625)"/>
     </defs>
     <use xlink:href="#SegoeUI-39"/>
    </g>
   </g>
   <g id="text_16">
    <!-- 3 -->
    <g style="fill: #262626" transform="translate(149.740625 44.11625) scale(0.08 -0.08)">
     <use xlink:href="#SegoeUI-33"/>
    </g>
   </g>
   <g id="text_17">
    <!-- 3 -->
    <g style="fill: #262626" transform="translate(219.490625 44.11625) scale(0.08 -0.08)">
     <use xlink:href="#SegoeUI-33"/>
    </g>
   </g>
   <g id="text_18">
    <!-- 3 -->
    <g style="fill: #262626" transform="translate(289.240625 44.11625) scale(0.08 -0.08)">
     <use xlink:href="#SegoeUI-33"/>
    </g>
   </g>
   <g id="text_19">
    <!-- 1 -->
    <g style="fill: #262626" transform="translate(358.990625 44.11625) scale(0.08 -0.08)">
     <use xlink:href="#SegoeUI-31"/>
    </g>
   </g>
   <g id="text_20">
    <!-- 0 -->
    <g style="fill: #262626" transform="translate(428.740625 44.11625) scale(0.08 -0.08)">
     <use xlink:href="#SegoeUI-30"/>
    </g>
   </g>
   <g id="text_21">
    <!-- 2 -->
    <g style="fill: #262626" transform="translate(498.490625 44.11625) scale(0.08 -0.08)">
     <use xlink:href="#SegoeUI-32"/>
    </g>
   </g>
   <g id="text_22">
    <!-- 1 -->
    <g style="fill: #262626" transform="translate(568.240625 44.11625) scale(0.08 -0.08)">
     <use xlink:href="#SegoeUI-31"/>
    </g>
   </g>
   <g id="text_23">
    <!-- 19 -->
    <g style="fill: #ffffff" transform="translate(77.834375 113.86625) scale(0.08 -0.08)">
     <use xlink:href="#SegoeUI-31"/>
     <use xlink:href="#SegoeUI-39" x="53.90625"/>
    </g>
   </g>
   <g id="text_24">
    <!-- 9 -->
    <g style="fill: #ffffff" transform="translate(149.740625 113.86625) scale(0.08 -0.08)">
     <use xlink:href="#SegoeUI-39"/>
    </g>
   </g>
   <g id="text_25">
    <!-- 2 -->
    <g style="fill: #262626" transform="translate(219.490625 113.86625) scale(0.08 -0.08)">
     <use xlink:href="#SegoeUI-32"/>
    </g>
   </g>
   <g id="text_26">
    <!-- 6 -->
    <g style="fill: #ffffff" transform="translate(289.240625 113.86625) scale(0.08 -0.08)">
     <use xlink:href="#SegoeUI-36"/>
    </g>
   </g>
   <g id="text_27">
    <!-- 1 -->
    <g style="fill: #262626" transform="translate(358.990625 113.86625) scale(0.08 -0.08)">
     <use xlink:href="#SegoeUI-31"/>
    </g>
   </g>
   <g id="text_28">
    <!-- 1 -->
    <g style="fill: #262626" transform="translate(428.740625 113.86625) scale(0.08 -0.08)">
     <use xlink:href="#SegoeUI-31"/>
    </g>
   </g>
   <g id="text_29">
    <!-- 2 -->
    <g style="fill: #262626" transform="translate(498.490625 113.86625) scale(0.08 -0.08)">
     <use xlink:href="#SegoeUI-32"/>
    </g>
   </g>
   <g id="text_30">
    <!-- 2 -->
    <g style="fill: #262626" transform="translate(568.240625 113.86625) scale(0.08 -0.08)">
     <use xlink:href="#SegoeUI-32"/>
    </g>
   </g>
   <g id="text_31">
    <!-- 21 -->
    <g style="fill: #ffffff" transform="translate(77.834375 183.61625) scale(0.08 -0.08)">
     <use xlink:href="#SegoeUI-32"/>
     <use xlink:href="#SegoeUI-31" x="53.90625"/>
    </g>
   </g>
   <g id="text_32">
    <!-- 15 -->
    <g style="fill: #ffffff" transform="translate(147.584375 183.61625) scale(0.08 -0.08)">
     <defs>
      <path id="SegoeUI-35" d="M 3028 1369 
Q 3028 1041 2915 775 
Q 2803 509 2595 318 
Q 2388 128 2094 25 
Q 1800 -78 1441 -78 
Q 816 -78 513 109 
L 513 653 
Q 969 359 1447 359 
Q 1691 359 1886 431 
Q 2081 503 2218 631 
Q 2356 759 2429 940 
Q 2503 1122 2503 1338 
Q 2503 1775 2209 2023 
Q 1916 2272 1356 2272 
Q 1266 2272 1166 2269 
Q 1066 2266 966 2261 
Q 866 2256 770 2250 
Q 675 2244 597 2234 
L 750 4481 
L 2822 4481 
L 2822 4019 
L 1194 4019 
L 1103 2703 
Q 1203 2709 1315 2714 
Q 1428 2719 1516 2719 
Q 1872 2719 2153 2625 
Q 2434 2531 2629 2357 
Q 2825 2184 2926 1932 
Q 3028 1681 3028 1369 
z
" transform="scale(0.015625)"/>
     </defs>
     <use xlink:href="#SegoeUI-31"/>
     <use xlink:href="#SegoeUI-35" x="53.90625"/>
    </g>
   </g>
   <g id="text_33">
    <!-- 8 -->
    <g style="fill: #ffffff" transform="translate(219.490625 183.61625) scale(0.08 -0.08)">
     <defs>
      <path id="SegoeUI-38" d="M 281 1250 
Q 281 1428 337 1608 
Q 394 1788 498 1944 
Q 603 2100 758 2228 
Q 913 2356 1109 2431 
Q 819 2594 647 2848 
Q 475 3103 475 3413 
Q 475 3659 570 3868 
Q 666 4078 834 4231 
Q 1003 4384 1234 4470 
Q 1466 4556 1734 4556 
Q 2006 4556 2237 4468 
Q 2469 4381 2637 4228 
Q 2806 4075 2900 3865 
Q 2994 3656 2994 3413 
Q 2994 3103 2822 2848 
Q 2650 2594 2366 2431 
Q 2559 2356 2712 2228 
Q 2866 2100 2970 1944 
Q 3075 1788 3131 1608 
Q 3188 1428 3188 1250 
Q 3188 956 3081 712 
Q 2975 469 2783 295 
Q 2591 122 2323 25 
Q 2056 -72 1734 -72 
Q 1416 -72 1150 25 
Q 884 122 690 295 
Q 497 469 389 712 
Q 281 956 281 1250 
z
M 838 1294 
Q 838 1084 902 915 
Q 966 747 1083 628 
Q 1200 509 1367 445 
Q 1534 381 1738 381 
Q 1934 381 2100 447 
Q 2266 513 2386 631 
Q 2506 750 2573 919 
Q 2641 1088 2641 1294 
Q 2641 1481 2577 1645 
Q 2513 1809 2394 1934 
Q 2275 2059 2109 2131 
Q 1944 2203 1738 2203 
Q 1544 2203 1380 2136 
Q 1216 2069 1095 1948 
Q 975 1828 906 1661 
Q 838 1494 838 1294 
z
M 997 3372 
Q 997 3213 1055 3077 
Q 1113 2941 1214 2839 
Q 1316 2738 1450 2680 
Q 1584 2622 1738 2622 
Q 1891 2622 2027 2681 
Q 2163 2741 2263 2842 
Q 2363 2944 2422 3080 
Q 2481 3216 2481 3372 
Q 2481 3534 2423 3671 
Q 2366 3809 2266 3909 
Q 2166 4009 2030 4067 
Q 1894 4125 1738 4125 
Q 1572 4125 1436 4065 
Q 1300 4006 1201 3904 
Q 1103 3803 1050 3665 
Q 997 3528 997 3372 
z
" transform="scale(0.015625)"/>
     </defs>
     <use xlink:href="#SegoeUI-38"/>
    </g>
   </g>
   <g id="text_34">
    <!-- 3 -->
    <g style="fill: #262626" transform="translate(289.240625 183.61625) scale(0.08 -0.08)">
     <use xlink:href="#SegoeUI-33"/>
    </g>
   </g>
   <g id="text_35">
    <!-- 3 -->
    <g style="fill: #262626" transform="translate(358.990625 183.61625) scale(0.08 -0.08)">
     <use xlink:href="#SegoeUI-33"/>
    </g>
   </g>
   <g id="text_36">
    <!-- 5 -->
    <g style="fill: #ffffff" transform="translate(428.740625 183.61625) scale(0.08 -0.08)">
     <use xlink:href="#SegoeUI-35"/>
    </g>
   </g>
   <g id="text_37">
    <!-- 4 -->
    <g style="fill: #ffffff" transform="translate(498.490625 183.61625) scale(0.08 -0.08)">
     <use xlink:href="#SegoeUI-34"/>
    </g>
   </g>
   <g id="text_38">
    <!-- 1 -->
    <g style="fill: #262626" transform="translate(568.240625 183.61625) scale(0.08 -0.08)">
     <use xlink:href="#SegoeUI-31"/>
    </g>
   </g>
   <g id="text_39">
    <!-- 8 -->
    <g style="fill: #ffffff" transform="translate(79.990625 253.36625) scale(0.08 -0.08)">
     <use xlink:href="#SegoeUI-38"/>
    </g>
   </g>
   <g id="text_40">
    <!-- 6 -->
    <g style="fill: #ffffff" transform="translate(149.740625 253.36625) scale(0.08 -0.08)">
     <use xlink:href="#SegoeUI-36"/>
    </g>
   </g>
   <g id="text_41">
    <!-- 3 -->
    <g style="fill: #262626" transform="translate(219.490625 253.36625) scale(0.08 -0.08)">
     <use xlink:href="#SegoeUI-33"/>
    </g>
   </g>
   <g id="text_42">
    <!-- 2 -->
    <g style="fill: #262626" transform="translate(289.240625 253.36625) scale(0.08 -0.08)">
     <use xlink:href="#SegoeUI-32"/>
    </g>
   </g>
   <g id="text_43">
    <!-- 0 -->
    <g style="fill: #262626" transform="translate(358.990625 253.36625) scale(0.08 -0.08)">
     <use xlink:href="#SegoeUI-30"/>
    </g>
   </g>
   <g id="text_44">
    <!-- 0 -->
    <g style="fill: #262626" transform="translate(428.740625 253.36625) scale(0.08 -0.08)">
     <use xlink:href="#SegoeUI-30"/>
    </g>
   </g>
   <g id="text_45">
    <!-- 1 -->
    <g style="fill: #262626" transform="translate(498.490625 253.36625) scale(0.08 -0.08)">
     <use xlink:href="#SegoeUI-31"/>
    </g>
   </g>
   <g id="text_46">
    <!-- 0 -->
    <g style="fill: #262626" transform="translate(568.240625 253.36625) scale(0.08 -0.08)">
     <use xlink:href="#SegoeUI-30"/>
    </g>
   </g>
   <g id="text_47">
    <!-- 22 -->
    <g style="fill: #ffffff" transform="translate(77.834375 323.11625) scale(0.08 -0.08)">
     <use xlink:href="#SegoeUI-32"/>
     <use xlink:href="#SegoeUI-32" x="53.90625"/>
    </g>
   </g>
   <g id="text_48">
    <!-- 12 -->
    <g style="fill: #ffffff" transform="translate(147.584375 323.11625) scale(0.08 -0.08)">
     <use xlink:href="#SegoeUI-31"/>
     <use xlink:href="#SegoeUI-32" x="53.90625"/>
    </g>
   </g>
   <g id="text_49">
    <!-- 8 -->
    <g style="fill: #ffffff" transform="translate(219.490625 323.11625) scale(0.08 -0.08)">
     <use xlink:href="#SegoeUI-38"/>
    </g>
   </g>
   <g id="text_50">
    <!-- 3 -->
    <g style="fill: #262626" transform="translate(289.240625 323.11625) scale(0.08 -0.08)">
     <use xlink:href="#SegoeUI-33"/>
    </g>
   </g>
   <g id="text_51">
    <!-- 5 -->
    <g style="fill: #ffffff" transform="translate(358.990625 323.11625) scale(0.08 -0.08)">
     <use xlink:href="#SegoeUI-35"/>
    </g>
   </g>
   <g id="text_52">
    <!-- 5 -->
    <g style="fill: #ffffff" transform="translate(428.740625 323.11625) scale(0.08 -0.08)">
     <use xlink:href="#SegoeUI-35"/>
    </g>
   </g>
   <g id="text_53">
    <!-- 2 -->
    <g style="fill: #262626" transform="translate(498.490625 323.11625) scale(0.08 -0.08)">
     <use xlink:href="#SegoeUI-32"/>
    </g>
   </g>
   <g id="text_54">
    <!-- 3 -->
    <g style="fill: #262626" transform="translate(568.240625 323.11625) scale(0.08 -0.08)">
     <use xlink:href="#SegoeUI-33"/>
    </g>
   </g>
  </g>
 </g>
 <defs>
  <clipPath id="pb38e4d53f5">
   <rect x="47.271875" y="7.2" width="558" height="348.75"/>
  </clipPath>
 </defs>
</svg>
