<?xml version="1.0" encoding="utf-8" standalone="no"?>
<!DOCTYPE svg PUBLIC "-//W3C//DTD SVG 1.1//EN"
  "http://www.w3.org/Graphics/SVG/1.1/DTD/svg11.dtd">
<svg xmlns:xlink="http://www.w3.org/1999/xlink" width="733.2pt" height="432pt" viewBox="0 0 733.2 432" xmlns="http://www.w3.org/2000/svg" version="1.1">
 <metadata>
  <rdf:RDF xmlns:dc="http://purl.org/dc/elements/1.1/" xmlns:cc="http://creativecommons.org/ns#" xmlns:rdf="http://www.w3.org/1999/02/22-rdf-syntax-ns#">
   <cc:Work>
    <dc:type rdf:resource="http://purl.org/dc/dcmitype/StillImage"/>
    <dc:date>2025-09-21T22:22:37.598868</dc:date>
    <dc:format>image/svg+xml</dc:format>
    <dc:creator>
     <cc:Agent>
      <dc:title>Matplotlib v3.9.2, https://matplotlib.org/</dc:title>
     </cc:Agent>
    </dc:creator>
   </cc:Work>
  </rdf:RDF>
 </metadata>
 <defs>
  <style type="text/css">*{stroke-linejoin: round; stroke-linecap: butt}</style>
 </defs>
 <g id="figure_1">
  <g id="patch_1">
   <path d="M 0 432 
L 733.2 432 
L 733.2 0 
L 0 0 
z
" style="fill: #ffffff"/>
  </g>
  <g id="axes_1">
   <g id="patch_2">
    <path d="M 71.24 383.548 
L 713.76 383.548 
L 713.76 59.76 
L 71.24 59.76 
z
" style="fill: #eaeaf2"/>
   </g>
   <g id="matplotlib.axis_1">
    <g id="xtick_1">
     <g id="text_1">
      <!-- Solo -->
      <g style="fill: #262626" transform="translate(117.002083 401.9705) scale(0.08 -0.08)">
       <defs>
        <path id="SegoeUI-53" d="M 378 181 
L 378 800 
Q 484 706 632 631 
Q 781 556 945 504 
Q 1109 453 1275 425 
Q 1441 397 1581 397 
Q 2066 397 2305 576 
Q 2544 756 2544 1094 
Q 2544 1275 2464 1409 
Q 2384 1544 2243 1655 
Q 2103 1766 1911 1867 
Q 1719 1969 1497 2081 
Q 1263 2200 1059 2322 
Q 856 2444 706 2591 
Q 556 2738 470 2923 
Q 384 3109 384 3359 
Q 384 3666 518 3892 
Q 653 4119 872 4266 
Q 1091 4413 1370 4484 
Q 1650 4556 1941 4556 
Q 2603 4556 2906 4397 
L 2906 3806 
Q 2509 4081 1888 4081 
Q 1716 4081 1544 4045 
Q 1372 4009 1237 3928 
Q 1103 3847 1018 3719 
Q 934 3591 934 3406 
Q 934 3234 998 3109 
Q 1063 2984 1188 2881 
Q 1313 2778 1492 2681 
Q 1672 2584 1906 2469 
Q 2147 2350 2362 2219 
Q 2578 2088 2740 1928 
Q 2903 1769 2998 1575 
Q 3094 1381 3094 1131 
Q 3094 800 2964 570 
Q 2834 341 2614 197 
Q 2394 53 2106 -11 
Q 1819 -75 1500 -75 
Q 1394 -75 1237 -58 
Q 1081 -41 918 -8 
Q 756 25 611 73 
Q 466 122 378 181 
z
" transform="scale(0.015625)"/>
        <path id="SegoeUI-6f" d="M 1856 -75 
Q 1147 -75 723 373 
Q 300 822 300 1563 
Q 300 2369 740 2822 
Q 1181 3275 1931 3275 
Q 2647 3275 3048 2834 
Q 3450 2394 3450 1613 
Q 3450 847 3017 386 
Q 2584 -75 1856 -75 
z
M 1894 2844 
Q 1400 2844 1112 2508 
Q 825 2172 825 1581 
Q 825 1013 1115 684 
Q 1406 356 1894 356 
Q 2391 356 2658 678 
Q 2925 1000 2925 1594 
Q 2925 2194 2658 2519 
Q 2391 2844 1894 2844 
z
" transform="scale(0.015625)"/>
        <path id="SegoeUI-6c" d="M 1031 0 
L 519 0 
L 519 4738 
L 1031 4738 
L 1031 0 
z
" transform="scale(0.015625)"/>
       </defs>
       <use xlink:href="#SegoeUI-53"/>
       <use xlink:href="#SegoeUI-6f" x="53.125"/>
       <use xlink:href="#SegoeUI-6c" x="111.71875"/>
       <use xlink:href="#SegoeUI-6f" x="135.9375"/>
      </g>
      <!-- (1 member) -->
      <g style="fill: #262626" transform="translate(104.300208 410.9175) scale(0.08 -0.08)">
       <defs>
        <path id="SegoeUI-28" d="M 1863 -1019 
L 1406 -1019 
Q 438 88 438 1709 
Q 438 3338 1406 4481 
L 1869 4481 
Q 888 3294 888 1716 
Q 888 150 1863 -1019 
z
" transform="scale(0.015625)"/>
        <path id="SegoeUI-31" d="M 2263 0 
L 1750 0 
L 1750 3872 
Q 1691 3813 1577 3736 
Q 1463 3659 1320 3584 
Q 1178 3509 1020 3443 
Q 863 3378 713 3341 
L 713 3859 
Q 881 3906 1070 3986 
Q 1259 4066 1442 4164 
Q 1625 4263 1787 4370 
Q 1950 4478 2069 4581 
L 2263 4581 
L 2263 0 
z
" transform="scale(0.015625)"/>
        <path id="SegoeUI-20" transform="scale(0.015625)"/>
        <path id="SegoeUI-6d" d="M 5063 0 
L 4550 0 
L 4550 1838 
Q 4550 2369 4386 2606 
Q 4222 2844 3834 2844 
Q 3506 2844 3276 2544 
Q 3047 2244 3047 1825 
L 3047 0 
L 2534 0 
L 2534 1900 
Q 2534 2844 1806 2844 
Q 1469 2844 1250 2561 
Q 1031 2278 1031 1825 
L 1031 0 
L 519 0 
L 519 3200 
L 1031 3200 
L 1031 2694 
L 1044 2694 
Q 1384 3275 2038 3275 
Q 2366 3275 2609 3092 
Q 2853 2909 2944 2613 
Q 3300 3275 4006 3275 
Q 5063 3275 5063 1972 
L 5063 0 
z
" transform="scale(0.015625)"/>
        <path id="SegoeUI-65" d="M 3091 1472 
L 831 1472 
Q 844 938 1119 647 
Q 1394 356 1875 356 
Q 2416 356 2869 713 
L 2869 231 
Q 2447 -75 1753 -75 
Q 1075 -75 687 361 
Q 300 797 300 1588 
Q 300 2334 723 2804 
Q 1147 3275 1775 3275 
Q 2403 3275 2747 2869 
Q 3091 2463 3091 1741 
L 3091 1472 
z
M 2566 1906 
Q 2563 2350 2352 2597 
Q 2141 2844 1766 2844 
Q 1403 2844 1150 2584 
Q 897 2325 838 1906 
L 2566 1906 
z
" transform="scale(0.015625)"/>
        <path id="SegoeUI-62" d="M 1044 463 
L 1031 463 
L 1031 0 
L 519 0 
L 519 4738 
L 1031 4738 
L 1031 2638 
L 1044 2638 
Q 1422 3275 2150 3275 
Q 2766 3275 3114 2845 
Q 3463 2416 3463 1694 
Q 3463 891 3072 408 
Q 2681 -75 2003 -75 
Q 1369 -75 1044 463 
z
M 1031 1753 
L 1031 1306 
Q 1031 909 1289 632 
Q 1547 356 1944 356 
Q 2409 356 2673 712 
Q 2938 1069 2938 1703 
Q 2938 2238 2691 2541 
Q 2444 2844 2022 2844 
Q 1575 2844 1303 2533 
Q 1031 2222 1031 1753 
z
" transform="scale(0.015625)"/>
        <path id="SegoeUI-72" d="M 2188 2681 
Q 2053 2784 1800 2784 
Q 1472 2784 1251 2475 
Q 1031 2166 1031 1631 
L 1031 0 
L 519 0 
L 519 3200 
L 1031 3200 
L 1031 2541 
L 1044 2541 
Q 1153 2878 1378 3067 
Q 1603 3256 1881 3256 
Q 2081 3256 2188 3213 
L 2188 2681 
z
" transform="scale(0.015625)"/>
        <path id="SegoeUI-29" d="M 531 -1019 
L 75 -1019 
Q 1050 150 1050 1716 
Q 1050 3294 69 4481 
L 531 4481 
Q 1506 3338 1506 1709 
Q 1506 88 531 -1019 
z
" transform="scale(0.015625)"/>
       </defs>
       <use xlink:href="#SegoeUI-28"/>
       <use xlink:href="#SegoeUI-31" x="30.175781"/>
       <use xlink:href="#SegoeUI-20" x="84.082031"/>
       <use xlink:href="#SegoeUI-6d" x="111.474609"/>
       <use xlink:href="#SegoeUI-65" x="197.607422"/>
       <use xlink:href="#SegoeUI-6d" x="249.902344"/>
       <use xlink:href="#SegoeUI-62" x="336.035156"/>
       <use xlink:href="#SegoeUI-65" x="394.824219"/>
       <use xlink:href="#SegoeUI-72" x="447.119141"/>
       <use xlink:href="#SegoeUI-29" x="481.884766"/>
      </g>
     </g>
    </g>
    <g id="xtick_2">
     <g id="text_2">
      <!-- Pair -->
      <g style="fill: #262626" transform="translate(225.365625 401.9705) scale(0.08 -0.08)">
       <defs>
        <path id="SegoeUI-50" d="M 1113 1694 
L 1113 0 
L 588 0 
L 588 4481 
L 1819 4481 
Q 2538 4481 2933 4131 
Q 3328 3781 3328 3144 
Q 3328 2506 2889 2100 
Q 2450 1694 1703 1694 
L 1113 1694 
z
M 1113 4006 
L 1113 2169 
L 1663 2169 
Q 2206 2169 2492 2417 
Q 2778 2666 2778 3119 
Q 2778 4006 1728 4006 
L 1113 4006 
z
" transform="scale(0.015625)"/>
        <path id="SegoeUI-61" d="M 2809 0 
L 2297 0 
L 2297 500 
L 2284 500 
Q 1950 -75 1300 -75 
Q 822 -75 551 178 
Q 281 431 281 850 
Q 281 1747 1338 1894 
L 2297 2028 
Q 2297 2844 1638 2844 
Q 1059 2844 594 2450 
L 594 2975 
Q 1066 3275 1681 3275 
Q 2809 3275 2809 2081 
L 2809 0 
z
M 2297 1619 
L 1525 1513 
Q 1169 1463 987 1336 
Q 806 1209 806 888 
Q 806 653 973 504 
Q 1141 356 1419 356 
Q 1800 356 2048 623 
Q 2297 891 2297 1300 
L 2297 1619 
z
" transform="scale(0.015625)"/>
        <path id="SegoeUI-69" d="M 781 4013 
Q 644 4013 547 4106 
Q 450 4200 450 4344 
Q 450 4488 547 4583 
Q 644 4678 781 4678 
Q 922 4678 1020 4583 
Q 1119 4488 1119 4344 
Q 1119 4206 1020 4109 
Q 922 4013 781 4013 
z
M 1031 0 
L 519 0 
L 519 3200 
L 1031 3200 
L 1031 0 
z
" transform="scale(0.015625)"/>
       </defs>
       <use xlink:href="#SegoeUI-50"/>
       <use xlink:href="#SegoeUI-61" x="52.755859"/>
       <use xlink:href="#SegoeUI-69" x="103.634766"/>
       <use xlink:href="#SegoeUI-72" x="127.853516"/>
      </g>
      <!-- (2 members) -->
      <g style="fill: #262626" transform="translate(209.664375 410.9175) scale(0.08 -0.08)">
       <defs>
        <path id="SegoeUI-32" d="M 2413 3306 
Q 2413 3513 2348 3666 
Q 2284 3819 2173 3920 
Q 2063 4022 1913 4072 
Q 1763 4122 1588 4122 
Q 1438 4122 1294 4081 
Q 1150 4041 1014 3969 
Q 878 3897 751 3797 
Q 625 3697 516 3575 
L 516 4125 
Q 731 4334 998 4445 
Q 1266 4556 1650 4556 
Q 1925 4556 2159 4476 
Q 2394 4397 2566 4244 
Q 2738 4091 2836 3866 
Q 2934 3641 2934 3350 
Q 2934 3084 2873 2868 
Q 2813 2653 2689 2462 
Q 2566 2272 2378 2097 
Q 2191 1922 1938 1741 
Q 1622 1516 1417 1356 
Q 1213 1197 1092 1058 
Q 972 919 923 780 
Q 875 641 875 459 
L 3106 459 
L 3106 0 
L 341 0 
L 341 222 
Q 341 509 403 728 
Q 466 947 609 1144 
Q 753 1341 986 1537 
Q 1219 1734 1556 1981 
Q 1800 2156 1964 2315 
Q 2128 2475 2228 2634 
Q 2328 2794 2370 2958 
Q 2413 3122 2413 3306 
z
" transform="scale(0.015625)"/>
        <path id="SegoeUI-73" d="M 325 116 
L 325 666 
Q 744 356 1247 356 
Q 1922 356 1922 806 
Q 1922 934 1864 1023 
Q 1806 1113 1707 1181 
Q 1609 1250 1476 1304 
Q 1344 1359 1191 1419 
Q 978 1503 817 1589 
Q 656 1675 548 1783 
Q 441 1891 386 2028 
Q 331 2166 331 2350 
Q 331 2575 434 2748 
Q 538 2922 709 3039 
Q 881 3156 1101 3215 
Q 1322 3275 1556 3275 
Q 1972 3275 2300 3131 
L 2300 2613 
Q 1947 2844 1488 2844 
Q 1344 2844 1228 2811 
Q 1113 2778 1030 2718 
Q 947 2659 901 2576 
Q 856 2494 856 2394 
Q 856 2269 901 2184 
Q 947 2100 1034 2034 
Q 1122 1969 1247 1916 
Q 1372 1863 1531 1800 
Q 1744 1719 1912 1633 
Q 2081 1547 2200 1439 
Q 2319 1331 2383 1190 
Q 2447 1050 2447 856 
Q 2447 619 2342 444 
Q 2238 269 2063 153 
Q 1888 38 1659 -18 
Q 1431 -75 1181 -75 
Q 688 -75 325 116 
z
" transform="scale(0.015625)"/>
       </defs>
       <use xlink:href="#SegoeUI-28"/>
       <use xlink:href="#SegoeUI-32" x="30.175781"/>
       <use xlink:href="#SegoeUI-20" x="84.082031"/>
       <use xlink:href="#SegoeUI-6d" x="111.474609"/>
       <use xlink:href="#SegoeUI-65" x="197.607422"/>
       <use xlink:href="#SegoeUI-6d" x="249.902344"/>
       <use xlink:href="#SegoeUI-62" x="336.035156"/>
       <use xlink:href="#SegoeUI-65" x="394.824219"/>
       <use xlink:href="#SegoeUI-72" x="447.119141"/>
       <use xlink:href="#SegoeUI-73" x="482.509766"/>
       <use xlink:href="#SegoeUI-29" x="524.941406"/>
      </g>
     </g>
    </g>
    <g id="xtick_3">
     <g id="text_3">
      <!-- Small -->
      <g style="fill: #262626" transform="translate(329.413542 401.9705) scale(0.08 -0.08)">
       <use xlink:href="#SegoeUI-53"/>
       <use xlink:href="#SegoeUI-6d" x="53.125"/>
       <use xlink:href="#SegoeUI-61" x="139.257812"/>
       <use xlink:href="#SegoeUI-6c" x="190.136719"/>
       <use xlink:href="#SegoeUI-6c" x="214.355469"/>
      </g>
      <!-- (3–5 members) -->
      <g style="fill: #262626" transform="translate(312.594792 410.9175) scale(0.08 -0.08)">
       <defs>
        <path id="SegoeUI-33" d="M 2978 1269 
Q 2978 966 2864 717 
Q 2750 469 2542 292 
Q 2334 116 2043 19 
Q 1753 -78 1403 -78 
Q 763 -78 384 166 
L 384 716 
Q 838 359 1422 359 
Q 1656 359 1845 418 
Q 2034 478 2170 590 
Q 2306 703 2379 862 
Q 2453 1022 2453 1222 
Q 2453 2100 1203 2100 
L 831 2100 
L 831 2534 
L 1184 2534 
Q 2291 2534 2291 3359 
Q 2291 4122 1447 4122 
Q 972 4122 556 3803 
L 556 4300 
Q 984 4556 1575 4556 
Q 1856 4556 2084 4478 
Q 2313 4400 2475 4259 
Q 2638 4119 2727 3922 
Q 2816 3725 2816 3488 
Q 2816 2603 1922 2350 
L 1922 2338 
Q 2150 2313 2344 2227 
Q 2538 2141 2678 2003 
Q 2819 1866 2898 1680 
Q 2978 1494 2978 1269 
z
" transform="scale(0.015625)"/>
        <path id="SegoeUI-2013" d="M 3200 1581 
L 0 1581 
L 0 1984 
L 3200 1984 
L 3200 1581 
z
" transform="scale(0.015625)"/>
        <path id="SegoeUI-35" d="M 3028 1369 
Q 3028 1041 2915 775 
Q 2803 509 2595 318 
Q 2388 128 2094 25 
Q 1800 -78 1441 -78 
Q 816 -78 513 109 
L 513 653 
Q 969 359 1447 359 
Q 1691 359 1886 431 
Q 2081 503 2218 631 
Q 2356 759 2429 940 
Q 2503 1122 2503 1338 
Q 2503 1775 2209 2023 
Q 1916 2272 1356 2272 
Q 1266 2272 1166 2269 
Q 1066 2266 966 2261 
Q 866 2256 770 2250 
Q 675 2244 597 2234 
L 750 4481 
L 2822 4481 
L 2822 4019 
L 1194 4019 
L 1103 2703 
Q 1203 2709 1315 2714 
Q 1428 2719 1516 2719 
Q 1872 2719 2153 2625 
Q 2434 2531 2629 2357 
Q 2825 2184 2926 1932 
Q 3028 1681 3028 1369 
z
" transform="scale(0.015625)"/>
       </defs>
       <use xlink:href="#SegoeUI-28"/>
       <use xlink:href="#SegoeUI-33" x="30.175781"/>
       <use xlink:href="#SegoeUI-2013" x="84.082031"/>
       <use xlink:href="#SegoeUI-35" x="134.082031"/>
       <use xlink:href="#SegoeUI-20" x="187.988281"/>
       <use xlink:href="#SegoeUI-6d" x="215.380859"/>
       <use xlink:href="#SegoeUI-65" x="301.513672"/>
       <use xlink:href="#SegoeUI-6d" x="353.808594"/>
       <use xlink:href="#SegoeUI-62" x="439.941406"/>
       <use xlink:href="#SegoeUI-65" x="498.730469"/>
       <use xlink:href="#SegoeUI-72" x="551.025391"/>
       <use xlink:href="#SegoeUI-73" x="586.416016"/>
       <use xlink:href="#SegoeUI-29" x="628.847656"/>
      </g>
     </g>
    </g>
    <g id="xtick_4">
     <g id="text_4">
      <!-- Medium -->
      <g style="fill: #262626" transform="translate(431.325833 401.9705) scale(0.08 -0.08)">
       <defs>
        <path id="SegoeUI-4d" d="M 5156 0 
L 4634 0 
L 4634 3006 
Q 4634 3363 4678 3878 
L 4666 3878 
Q 4591 3575 4531 3444 
L 3000 0 
L 2744 0 
L 1216 3419 
Q 1150 3569 1081 3878 
L 1069 3878 
Q 1094 3609 1094 3000 
L 1094 0 
L 588 0 
L 588 4481 
L 1281 4481 
L 2656 1356 
Q 2816 997 2863 819 
L 2881 819 
Q 3016 1188 3097 1369 
L 4500 4481 
L 5156 4481 
L 5156 0 
z
" transform="scale(0.015625)"/>
        <path id="SegoeUI-64" d="M 3250 0 
L 2738 0 
L 2738 544 
L 2725 544 
Q 2369 -75 1625 -75 
Q 1022 -75 661 354 
Q 300 784 300 1525 
Q 300 2319 700 2797 
Q 1100 3275 1766 3275 
Q 2425 3275 2725 2756 
L 2738 2756 
L 2738 4738 
L 3250 4738 
L 3250 0 
z
M 2738 1447 
L 2738 1919 
Q 2738 2306 2481 2575 
Q 2225 2844 1831 2844 
Q 1363 2844 1094 2500 
Q 825 2156 825 1550 
Q 825 997 1083 676 
Q 1341 356 1775 356 
Q 2203 356 2470 665 
Q 2738 975 2738 1447 
z
" transform="scale(0.015625)"/>
        <path id="SegoeUI-75" d="M 3106 0 
L 2594 0 
L 2594 506 
L 2581 506 
Q 2263 -75 1594 -75 
Q 450 -75 450 1288 
L 450 3200 
L 959 3200 
L 959 1369 
Q 959 356 1734 356 
Q 2109 356 2351 632 
Q 2594 909 2594 1356 
L 2594 3200 
L 3106 3200 
L 3106 0 
z
" transform="scale(0.015625)"/>
       </defs>
       <use xlink:href="#SegoeUI-4d"/>
       <use xlink:href="#SegoeUI-65" x="89.794922"/>
       <use xlink:href="#SegoeUI-64" x="142.089844"/>
       <use xlink:href="#SegoeUI-69" x="200.976562"/>
       <use xlink:href="#SegoeUI-75" x="225.195312"/>
       <use xlink:href="#SegoeUI-6d" x="281.787109"/>
      </g>
      <!-- (6–10 members) -->
      <g style="fill: #262626" transform="translate(417.525208 410.9175) scale(0.08 -0.08)">
       <defs>
        <path id="SegoeUI-36" d="M 3194 1422 
Q 3194 1094 3087 819 
Q 2981 544 2793 344 
Q 2606 144 2347 33 
Q 2088 -78 1784 -78 
Q 1447 -78 1180 62 
Q 913 203 727 467 
Q 541 731 444 1112 
Q 347 1494 347 1972 
Q 347 2556 476 3032 
Q 606 3509 845 3848 
Q 1084 4188 1421 4372 
Q 1759 4556 2175 4556 
Q 2638 4556 2919 4428 
L 2919 3944 
Q 2572 4122 2188 4122 
Q 1888 4122 1647 3987 
Q 1406 3853 1234 3608 
Q 1063 3363 970 3016 
Q 878 2669 878 2244 
L 891 2244 
Q 1200 2803 1913 2803 
Q 2206 2803 2442 2703 
Q 2678 2603 2845 2420 
Q 3013 2238 3103 1984 
Q 3194 1731 3194 1422 
z
M 2669 1356 
Q 2669 1591 2609 1778 
Q 2550 1966 2439 2097 
Q 2328 2228 2165 2298 
Q 2003 2369 1797 2369 
Q 1606 2369 1443 2297 
Q 1281 2225 1162 2101 
Q 1044 1978 976 1814 
Q 909 1650 909 1466 
Q 909 1234 975 1032 
Q 1041 831 1159 681 
Q 1278 531 1442 445 
Q 1606 359 1806 359 
Q 2000 359 2159 432 
Q 2319 506 2431 637 
Q 2544 769 2606 951 
Q 2669 1134 2669 1356 
z
" transform="scale(0.015625)"/>
        <path id="SegoeUI-30" d="M 3188 2259 
Q 3188 1697 3086 1262 
Q 2984 828 2792 529 
Q 2600 231 2320 76 
Q 2041 -78 1684 -78 
Q 1347 -78 1083 70 
Q 819 219 637 503 
Q 456 788 362 1202 
Q 269 1616 269 2150 
Q 269 2738 367 3188 
Q 466 3638 656 3942 
Q 847 4247 1130 4401 
Q 1413 4556 1778 4556 
Q 3188 4556 3188 2259 
z
M 2663 2209 
Q 2663 4122 1753 4122 
Q 794 4122 794 2175 
Q 794 359 1734 359 
Q 2663 359 2663 2209 
z
" transform="scale(0.015625)"/>
       </defs>
       <use xlink:href="#SegoeUI-28"/>
       <use xlink:href="#SegoeUI-36" x="30.175781"/>
       <use xlink:href="#SegoeUI-2013" x="84.082031"/>
       <use xlink:href="#SegoeUI-31" x="134.082031"/>
       <use xlink:href="#SegoeUI-30" x="187.988281"/>
       <use xlink:href="#SegoeUI-20" x="241.894531"/>
       <use xlink:href="#SegoeUI-6d" x="269.287109"/>
       <use xlink:href="#SegoeUI-65" x="355.419922"/>
       <use xlink:href="#SegoeUI-6d" x="407.714844"/>
       <use xlink:href="#SegoeUI-62" x="493.847656"/>
       <use xlink:href="#SegoeUI-65" x="552.636719"/>
       <use xlink:href="#SegoeUI-72" x="604.931641"/>
       <use xlink:href="#SegoeUI-73" x="640.322266"/>
       <use xlink:href="#SegoeUI-29" x="682.753906"/>
      </g>
     </g>
    </g>
    <g id="xtick_5">
     <g id="text_5">
      <!-- Large -->
      <g style="fill: #262626" transform="translate(543.42875 401.928) scale(0.08 -0.08)">
       <defs>
        <path id="SegoeUI-4c" d="M 2913 0 
L 588 0 
L 588 4481 
L 1113 4481 
L 1113 475 
L 2913 475 
L 2913 0 
z
" transform="scale(0.015625)"/>
        <path id="SegoeUI-67" d="M 3250 256 
Q 3250 -1506 1563 -1506 
Q 969 -1506 525 -1281 
L 525 -769 
Q 1066 -1069 1556 -1069 
Q 2738 -1069 2738 188 
L 2738 538 
L 2725 538 
Q 2359 -75 1625 -75 
Q 1028 -75 664 351 
Q 300 778 300 1497 
Q 300 2313 692 2794 
Q 1084 3275 1766 3275 
Q 2413 3275 2725 2756 
L 2738 2756 
L 2738 3200 
L 3250 3200 
L 3250 256 
z
M 2738 1447 
L 2738 1919 
Q 2738 2300 2480 2572 
Q 2222 2844 1838 2844 
Q 1363 2844 1094 2498 
Q 825 2153 825 1531 
Q 825 997 1083 676 
Q 1341 356 1766 356 
Q 2197 356 2467 662 
Q 2738 969 2738 1447 
z
" transform="scale(0.015625)"/>
       </defs>
       <use xlink:href="#SegoeUI-4c"/>
       <use xlink:href="#SegoeUI-61" x="47.070312"/>
       <use xlink:href="#SegoeUI-72" x="97.949219"/>
       <use xlink:href="#SegoeUI-67" x="131.339844"/>
       <use xlink:href="#SegoeUI-65" x="190.226562"/>
      </g>
      <!-- (11–20 members) -->
      <g style="fill: #262626" transform="translate(522.455625 410.9175) scale(0.08 -0.08)">
       <use xlink:href="#SegoeUI-28"/>
       <use xlink:href="#SegoeUI-31" x="30.175781"/>
       <use xlink:href="#SegoeUI-31" x="84.082031"/>
       <use xlink:href="#SegoeUI-2013" x="137.988281"/>
       <use xlink:href="#SegoeUI-32" x="187.988281"/>
       <use xlink:href="#SegoeUI-30" x="241.894531"/>
       <use xlink:href="#SegoeUI-20" x="295.800781"/>
       <use xlink:href="#SegoeUI-6d" x="323.193359"/>
       <use xlink:href="#SegoeUI-65" x="409.326172"/>
       <use xlink:href="#SegoeUI-6d" x="461.621094"/>
       <use xlink:href="#SegoeUI-62" x="547.753906"/>
       <use xlink:href="#SegoeUI-65" x="606.542969"/>
       <use xlink:href="#SegoeUI-72" x="658.837891"/>
       <use xlink:href="#SegoeUI-73" x="694.228516"/>
       <use xlink:href="#SegoeUI-29" x="736.660156"/>
      </g>
     </g>
    </g>
    <g id="xtick_6">
     <g id="text_6">
      <!-- Very large -->
      <g style="fill: #262626" transform="translate(642.521667 401.9705) scale(0.08 -0.08)">
       <defs>
        <path id="SegoeUI-56" d="M 3919 4481 
L 2259 0 
L 1681 0 
L 56 4481 
L 641 4481 
L 1881 928 
Q 1941 756 1972 531 
L 1984 531 
Q 2009 719 2088 934 
L 3353 4481 
L 3919 4481 
z
" transform="scale(0.015625)"/>
        <path id="SegoeUI-79" d="M 3066 3200 
L 1594 -513 
Q 1200 -1506 488 -1506 
Q 288 -1506 153 -1466 
L 153 -1006 
Q 319 -1063 456 -1063 
Q 844 -1063 1038 -600 
L 1294 6 
L 44 3200 
L 613 3200 
L 1478 738 
Q 1494 691 1544 494 
L 1563 494 
Q 1578 569 1625 731 
L 2534 3200 
L 3066 3200 
z
" transform="scale(0.015625)"/>
       </defs>
       <use xlink:href="#SegoeUI-56"/>
       <use xlink:href="#SegoeUI-65" x="55.859375"/>
       <use xlink:href="#SegoeUI-72" x="108.154297"/>
       <use xlink:href="#SegoeUI-79" x="146.919922"/>
       <use xlink:href="#SegoeUI-20" x="195.308594"/>
       <use xlink:href="#SegoeUI-6c" x="222.701172"/>
       <use xlink:href="#SegoeUI-61" x="246.919922"/>
       <use xlink:href="#SegoeUI-72" x="297.798828"/>
       <use xlink:href="#SegoeUI-67" x="331.189453"/>
       <use xlink:href="#SegoeUI-65" x="390.076172"/>
      </g>
      <!-- (21+ members) -->
      <g style="fill: #262626" transform="translate(633.118542 410.96) scale(0.08 -0.08)">
       <defs>
        <path id="SegoeUI-2b" d="M 3663 1656 
L 2400 1656 
L 2400 397 
L 1984 397 
L 1984 1656 
L 725 1656 
L 725 2075 
L 1984 2075 
L 1984 3334 
L 2400 3334 
L 2400 2075 
L 3663 2075 
L 3663 1656 
z
" transform="scale(0.015625)"/>
       </defs>
       <use xlink:href="#SegoeUI-28"/>
       <use xlink:href="#SegoeUI-32" x="30.175781"/>
       <use xlink:href="#SegoeUI-31" x="84.082031"/>
       <use xlink:href="#SegoeUI-2b" x="137.988281"/>
       <use xlink:href="#SegoeUI-20" x="206.396484"/>
       <use xlink:href="#SegoeUI-6d" x="233.789062"/>
       <use xlink:href="#SegoeUI-65" x="319.921875"/>
       <use xlink:href="#SegoeUI-6d" x="372.216797"/>
       <use xlink:href="#SegoeUI-62" x="458.349609"/>
       <use xlink:href="#SegoeUI-65" x="517.138672"/>
       <use xlink:href="#SegoeUI-72" x="569.433594"/>
       <use xlink:href="#SegoeUI-73" x="604.824219"/>
       <use xlink:href="#SegoeUI-29" x="647.255859"/>
      </g>
     </g>
    </g>
   </g>
   <g id="matplotlib.axis_2">
    <g id="ytick_1">
     <g id="line2d_1">
      <path d="M 71.24 383.548 
L 713.76 383.548 
" clip-path="url(#pc2224d6dab)" style="fill: none; stroke: #ffffff; stroke-width: 1.5; stroke-linecap: round"/>
     </g>
     <g id="text_7">
      <!-- Never -->
      <g style="fill: #262626" transform="translate(37.82375 386.50925) scale(0.08 -0.08)">
       <defs>
        <path id="SegoeUI-4e" d="M 4200 0 
L 3556 0 
L 1250 3572 
Q 1163 3706 1106 3853 
L 1088 3853 
Q 1113 3709 1113 3238 
L 1113 0 
L 588 0 
L 588 4481 
L 1269 4481 
L 3513 966 
Q 3653 747 3694 666 
L 3706 666 
Q 3675 859 3675 1325 
L 3675 4481 
L 4200 4481 
L 4200 0 
z
" transform="scale(0.015625)"/>
        <path id="SegoeUI-76" d="M 3034 3200 
L 1759 0 
L 1256 0 
L 44 3200 
L 606 3200 
L 1419 875 
Q 1509 619 1531 428 
L 1544 428 
Q 1575 669 1644 863 
L 2494 3200 
L 3034 3200 
z
" transform="scale(0.015625)"/>
       </defs>
       <use xlink:href="#SegoeUI-4e"/>
       <use xlink:href="#SegoeUI-65" x="74.804688"/>
       <use xlink:href="#SegoeUI-76" x="127.099609"/>
       <use xlink:href="#SegoeUI-65" x="174.375"/>
       <use xlink:href="#SegoeUI-72" x="226.669922"/>
      </g>
     </g>
    </g>
    <g id="ytick_2">
     <g id="line2d_2">
      <path d="M 71.24 305.526795 
L 713.76 305.526795 
" clip-path="url(#pc2224d6dab)" style="fill: none; stroke: #ffffff; stroke-width: 1.5; stroke-linecap: round"/>
     </g>
     <g id="text_8">
      <!-- Rarely -->
      <g style="fill: #262626" transform="translate(37.22125 308.488045) scale(0.08 -0.08)">
       <defs>
        <path id="SegoeUI-52" d="M 3800 0 
L 3175 0 
L 2425 1256 
Q 2322 1431 2225 1554 
Q 2128 1678 2026 1756 
Q 1925 1834 1808 1870 
Q 1691 1906 1544 1906 
L 1113 1906 
L 1113 0 
L 588 0 
L 588 4481 
L 1925 4481 
Q 2219 4481 2467 4407 
Q 2716 4334 2898 4184 
Q 3081 4034 3184 3811 
Q 3288 3588 3288 3288 
Q 3288 3053 3217 2858 
Q 3147 2663 3017 2509 
Q 2888 2356 2705 2248 
Q 2522 2141 2294 2081 
L 2294 2069 
Q 2406 2019 2489 1955 
Q 2572 1891 2647 1803 
Q 2722 1716 2795 1605 
Q 2869 1494 2959 1347 
L 3800 0 
z
M 1113 4006 
L 1113 2381 
L 1825 2381 
Q 2022 2381 2189 2440 
Q 2356 2500 2478 2611 
Q 2600 2722 2669 2883 
Q 2738 3044 2738 3244 
Q 2738 3603 2505 3804 
Q 2272 4006 1831 4006 
L 1113 4006 
z
" transform="scale(0.015625)"/>
       </defs>
       <use xlink:href="#SegoeUI-52"/>
       <use xlink:href="#SegoeUI-61" x="59.814453"/>
       <use xlink:href="#SegoeUI-72" x="110.693359"/>
       <use xlink:href="#SegoeUI-65" x="144.083984"/>
       <use xlink:href="#SegoeUI-6c" x="196.378906"/>
       <use xlink:href="#SegoeUI-79" x="220.597656"/>
      </g>
     </g>
    </g>
    <g id="ytick_3">
     <g id="line2d_3">
      <path d="M 71.24 227.50559 
L 713.76 227.50559 
" clip-path="url(#pc2224d6dab)" style="fill: none; stroke: #ffffff; stroke-width: 1.5; stroke-linecap: round"/>
     </g>
     <g id="text_9">
      <!-- Sometimes -->
      <g style="fill: #262626" transform="translate(19.60875 230.46684) scale(0.08 -0.08)">
       <defs>
        <path id="SegoeUI-74" d="M 2003 31 
Q 1822 -69 1525 -69 
Q 684 -69 684 869 
L 684 2763 
L 134 2763 
L 134 3200 
L 684 3200 
L 684 3981 
L 1197 4147 
L 1197 3200 
L 2003 3200 
L 2003 2763 
L 1197 2763 
L 1197 959 
Q 1197 638 1306 500 
Q 1416 363 1669 363 
Q 1863 363 2003 469 
L 2003 31 
z
" transform="scale(0.015625)"/>
       </defs>
       <use xlink:href="#SegoeUI-53"/>
       <use xlink:href="#SegoeUI-6f" x="53.125"/>
       <use xlink:href="#SegoeUI-6d" x="111.71875"/>
       <use xlink:href="#SegoeUI-65" x="197.851562"/>
       <use xlink:href="#SegoeUI-74" x="250.146484"/>
       <use xlink:href="#SegoeUI-69" x="284.033203"/>
       <use xlink:href="#SegoeUI-6d" x="308.251953"/>
       <use xlink:href="#SegoeUI-65" x="394.384766"/>
       <use xlink:href="#SegoeUI-73" x="446.679688"/>
      </g>
     </g>
    </g>
    <g id="ytick_4">
     <g id="line2d_4">
      <path d="M 71.24 149.484386 
L 713.76 149.484386 
" clip-path="url(#pc2224d6dab)" style="fill: none; stroke: #ffffff; stroke-width: 1.5; stroke-linecap: round"/>
     </g>
     <g id="text_10">
      <!-- Usually -->
      <g style="fill: #262626" transform="translate(33.505 152.445636) scale(0.08 -0.08)">
       <defs>
        <path id="SegoeUI-55" d="M 3866 1813 
Q 3866 -75 2163 -75 
Q 531 -75 531 1741 
L 531 4481 
L 1056 4481 
L 1056 1775 
Q 1056 397 2219 397 
Q 3341 397 3341 1728 
L 3341 4481 
L 3866 4481 
L 3866 1813 
z
" transform="scale(0.015625)"/>
       </defs>
       <use xlink:href="#SegoeUI-55"/>
       <use xlink:href="#SegoeUI-73" x="68.701172"/>
       <use xlink:href="#SegoeUI-75" x="111.132812"/>
       <use xlink:href="#SegoeUI-61" x="167.724609"/>
       <use xlink:href="#SegoeUI-6c" x="218.603516"/>
       <use xlink:href="#SegoeUI-6c" x="242.822266"/>
       <use xlink:href="#SegoeUI-79" x="267.041016"/>
      </g>
     </g>
    </g>
    <g id="ytick_5">
     <g id="line2d_5">
      <path d="M 71.24 71.463181 
L 713.76 71.463181 
" clip-path="url(#pc2224d6dab)" style="fill: none; stroke: #ffffff; stroke-width: 1.5; stroke-linecap: round"/>
     </g>
     <g id="text_11">
      <!-- Always -->
      <g style="fill: #262626" transform="translate(34.525 74.424431) scale(0.08 -0.08)">
       <defs>
        <path id="SegoeUI-41" d="M 4056 0 
L 3475 0 
L 3000 1256 
L 1100 1256 
L 653 0 
L 69 0 
L 1788 4481 
L 2331 4481 
L 4056 0 
z
M 2828 1728 
L 2125 3638 
Q 2091 3731 2056 3938 
L 2044 3938 
Q 2013 3747 1972 3638 
L 1275 1728 
L 2828 1728 
z
" transform="scale(0.015625)"/>
        <path id="SegoeUI-77" d="M 4550 3200 
L 3591 0 
L 3059 0 
L 2400 2291 
Q 2363 2422 2350 2588 
L 2338 2588 
Q 2328 2475 2272 2297 
L 1556 0 
L 1044 0 
L 75 3200 
L 613 3200 
L 1275 794 
Q 1306 684 1319 506 
L 1344 506 
Q 1353 644 1400 800 
L 2138 3200 
L 2606 3200 
L 3269 788 
Q 3300 672 3316 500 
L 3341 500 
Q 3347 622 3394 788 
L 4044 3200 
L 4550 3200 
z
" transform="scale(0.015625)"/>
       </defs>
       <use xlink:href="#SegoeUI-41"/>
       <use xlink:href="#SegoeUI-6c" x="64.501953"/>
       <use xlink:href="#SegoeUI-77" x="88.720703"/>
       <use xlink:href="#SegoeUI-61" x="160.986328"/>
       <use xlink:href="#SegoeUI-79" x="211.865234"/>
       <use xlink:href="#SegoeUI-73" x="260.253906"/>
      </g>
     </g>
    </g>
   </g>
   <g id="patch_3">
    <path d="M 81.948667 227.50559 
L 167.618 227.50559 
L 167.618 149.484386 
L 81.948667 149.484386 
L 81.948667 227.50559 
z
" clip-path="url(#pc2224d6dab)" style="fill: #176d9c; stroke: #363636; stroke-linejoin: miter"/>
   </g>
   <g id="line2d_6">
    <path d="M 124.783333 227.50559 
L 124.783333 227.50559 
" clip-path="url(#pc2224d6dab)" style="fill: none; stroke: #363636"/>
   </g>
   <g id="line2d_7">
    <path d="M 124.783333 149.484386 
L 124.783333 71.463181 
" clip-path="url(#pc2224d6dab)" style="fill: none; stroke: #363636"/>
   </g>
   <g id="line2d_8">
    <path d="M 103.366 227.50559 
L 146.200667 227.50559 
" clip-path="url(#pc2224d6dab)" style="fill: none; stroke: #363636; stroke-linecap: round"/>
   </g>
   <g id="line2d_9">
    <path d="M 103.366 71.463181 
L 146.200667 71.463181 
" clip-path="url(#pc2224d6dab)" style="fill: none; stroke: #363636; stroke-linecap: round"/>
   </g>
   <g id="patch_4">
    <path d="M 189.035333 305.526795 
L 274.704667 305.526795 
L 274.704667 149.484386 
L 189.035333 149.484386 
L 189.035333 305.526795 
z
" clip-path="url(#pc2224d6dab)" style="fill: #176d9c; stroke: #363636; stroke-linejoin: miter"/>
   </g>
   <g id="line2d_10">
    <path d="M 231.87 305.526795 
L 231.87 305.526795 
" clip-path="url(#pc2224d6dab)" style="fill: none; stroke: #363636"/>
   </g>
   <g id="line2d_11">
    <path d="M 231.87 149.484386 
L 231.87 149.484386 
" clip-path="url(#pc2224d6dab)" style="fill: none; stroke: #363636"/>
   </g>
   <g id="line2d_12">
    <path d="M 210.452667 305.526795 
L 253.287333 305.526795 
" clip-path="url(#pc2224d6dab)" style="fill: none; stroke: #363636; stroke-linecap: round"/>
   </g>
   <g id="line2d_13">
    <path d="M 210.452667 149.484386 
L 253.287333 149.484386 
" clip-path="url(#pc2224d6dab)" style="fill: none; stroke: #363636; stroke-linecap: round"/>
   </g>
   <g id="patch_5">
    <path d="M 296.122 227.50559 
L 381.791333 227.50559 
L 381.791333 149.484386 
L 296.122 149.484386 
L 296.122 227.50559 
z
" clip-path="url(#pc2224d6dab)" style="fill: #176d9c; stroke: #363636; stroke-linejoin: miter"/>
   </g>
   <g id="line2d_14">
    <path d="M 338.956667 227.50559 
L 338.956667 305.526795 
" clip-path="url(#pc2224d6dab)" style="fill: none; stroke: #363636"/>
   </g>
   <g id="line2d_15">
    <path d="M 338.956667 149.484386 
L 338.956667 71.463181 
" clip-path="url(#pc2224d6dab)" style="fill: none; stroke: #363636"/>
   </g>
   <g id="line2d_16">
    <path d="M 317.539333 305.526795 
L 360.374 305.526795 
" clip-path="url(#pc2224d6dab)" style="fill: none; stroke: #363636; stroke-linecap: round"/>
   </g>
   <g id="line2d_17">
    <path d="M 317.539333 71.463181 
L 360.374 71.463181 
" clip-path="url(#pc2224d6dab)" style="fill: none; stroke: #363636; stroke-linecap: round"/>
   </g>
   <g id="patch_6">
    <path d="M 403.208667 227.50559 
L 488.878 227.50559 
L 488.878 149.484386 
L 403.208667 149.484386 
L 403.208667 227.50559 
z
" clip-path="url(#pc2224d6dab)" style="fill: #176d9c; stroke: #363636; stroke-linejoin: miter"/>
   </g>
   <g id="line2d_18">
    <path d="M 446.043333 227.50559 
L 446.043333 305.526795 
" clip-path="url(#pc2224d6dab)" style="fill: none; stroke: #363636"/>
   </g>
   <g id="line2d_19">
    <path d="M 446.043333 149.484386 
L 446.043333 71.463181 
" clip-path="url(#pc2224d6dab)" style="fill: none; stroke: #363636"/>
   </g>
   <g id="line2d_20">
    <path d="M 424.626 305.526795 
L 467.460667 305.526795 
" clip-path="url(#pc2224d6dab)" style="fill: none; stroke: #363636; stroke-linecap: round"/>
   </g>
   <g id="line2d_21">
    <path d="M 424.626 71.463181 
L 467.460667 71.463181 
" clip-path="url(#pc2224d6dab)" style="fill: none; stroke: #363636; stroke-linecap: round"/>
   </g>
   <g id="patch_7">
    <path d="M 510.295333 188.494988 
L 595.964667 188.494988 
L 595.964667 149.484386 
L 510.295333 149.484386 
L 510.295333 188.494988 
z
" clip-path="url(#pc2224d6dab)" style="fill: #176d9c; stroke: #363636; stroke-linejoin: miter"/>
   </g>
   <g id="line2d_22">
    <path d="M 553.13 188.494988 
L 553.13 188.494988 
" clip-path="url(#pc2224d6dab)" style="fill: none; stroke: #363636"/>
   </g>
   <g id="line2d_23">
    <path d="M 553.13 149.484386 
L 553.13 149.484386 
" clip-path="url(#pc2224d6dab)" style="fill: none; stroke: #363636"/>
   </g>
   <g id="line2d_24">
    <path d="M 531.712667 188.494988 
L 574.547333 188.494988 
" clip-path="url(#pc2224d6dab)" style="fill: none; stroke: #363636; stroke-linecap: round"/>
   </g>
   <g id="line2d_25">
    <path d="M 531.712667 149.484386 
L 574.547333 149.484386 
" clip-path="url(#pc2224d6dab)" style="fill: none; stroke: #363636; stroke-linecap: round"/>
   </g>
   <g id="patch_8">
    <path d="M 617.382 149.484386 
L 703.051333 149.484386 
L 703.051333 149.484386 
L 617.382 149.484386 
L 617.382 149.484386 
z
" clip-path="url(#pc2224d6dab)" style="fill: #176d9c; stroke: #363636; stroke-linejoin: miter"/>
   </g>
   <g id="line2d_26">
    <path d="M 660.216667 149.484386 
L 660.216667 149.484386 
" clip-path="url(#pc2224d6dab)" style="fill: none; stroke: #363636"/>
   </g>
   <g id="line2d_27">
    <path d="M 660.216667 149.484386 
L 660.216667 149.484386 
" clip-path="url(#pc2224d6dab)" style="fill: none; stroke: #363636"/>
   </g>
   <g id="line2d_28">
    <path d="M 638.799333 149.484386 
L 681.634 149.484386 
" clip-path="url(#pc2224d6dab)" style="fill: none; stroke: #363636; stroke-linecap: round"/>
   </g>
   <g id="line2d_29">
    <path d="M 638.799333 149.484386 
L 681.634 149.484386 
" clip-path="url(#pc2224d6dab)" style="fill: none; stroke: #363636; stroke-linecap: round"/>
   </g>
   <g id="line2d_30">
    <path d="M 81.948667 227.50559 
L 167.618 227.50559 
" clip-path="url(#pc2224d6dab)" style="fill: none; stroke: #363636"/>
   </g>
   <g id="line2d_31">
    <path d="M 189.035333 188.494988 
L 274.704667 188.494988 
" clip-path="url(#pc2224d6dab)" style="fill: none; stroke: #363636"/>
   </g>
   <g id="line2d_32">
    <path d="M 296.122 149.484386 
L 381.791333 149.484386 
" clip-path="url(#pc2224d6dab)" style="fill: none; stroke: #363636"/>
   </g>
   <g id="line2d_33">
    <path d="M 403.208667 149.484386 
L 488.878 149.484386 
" clip-path="url(#pc2224d6dab)" style="fill: none; stroke: #363636"/>
   </g>
   <g id="line2d_34">
    <path d="M 510.295333 149.484386 
L 595.964667 149.484386 
" clip-path="url(#pc2224d6dab)" style="fill: none; stroke: #363636"/>
   </g>
   <g id="line2d_35">
    <path d="M 617.382 149.484386 
L 703.051333 149.484386 
" clip-path="url(#pc2224d6dab)" style="fill: none; stroke: #363636"/>
   </g>
   <g id="patch_9">
    <path d="M 71.24 383.548 
L 71.24 59.76 
" style="fill: none; stroke: #ffffff; stroke-width: 1.875; stroke-linejoin: miter; stroke-linecap: square"/>
   </g>
   <g id="patch_10">
    <path d="M 71.24 383.548 
L 713.76 383.548 
" style="fill: none; stroke: #ffffff; stroke-width: 1.875; stroke-linejoin: miter; stroke-linecap: square"/>
   </g>
  </g>
  <g id="text_12">
   <!-- Deadlines being met by team size -->
   <g style="fill: #262626" transform="translate(206.128875 24.63075) scale(0.216 -0.216)">
    <defs>
     <path id="SegoeUI-44" d="M 588 0 
L 588 4481 
L 1825 4481 
Q 4194 4481 4194 2297 
Q 4194 1259 3536 629 
Q 2878 0 1775 0 
L 588 0 
z
M 1113 4006 
L 1113 475 
L 1781 475 
Q 2663 475 3153 947 
Q 3644 1419 3644 2284 
Q 3644 4006 1813 4006 
L 1113 4006 
z
" transform="scale(0.015625)"/>
     <path id="SegoeUI-6e" d="M 3175 0 
L 2663 0 
L 2663 1825 
Q 2663 2844 1919 2844 
Q 1534 2844 1282 2555 
Q 1031 2266 1031 1825 
L 1031 0 
L 519 0 
L 519 3200 
L 1031 3200 
L 1031 2669 
L 1044 2669 
Q 1406 3275 2094 3275 
Q 2619 3275 2897 2936 
Q 3175 2597 3175 1956 
L 3175 0 
z
" transform="scale(0.015625)"/>
     <path id="SegoeUI-7a" d="M 2750 3053 
L 856 438 
L 2731 438 
L 2731 0 
L 103 0 
L 103 159 
L 1997 2763 
L 281 2763 
L 281 3200 
L 2750 3200 
L 2750 3053 
z
" transform="scale(0.015625)"/>
    </defs>
    <use xlink:href="#SegoeUI-44"/>
    <use xlink:href="#SegoeUI-65" x="70.117188"/>
    <use xlink:href="#SegoeUI-61" x="122.412109"/>
    <use xlink:href="#SegoeUI-64" x="173.291016"/>
    <use xlink:href="#SegoeUI-6c" x="232.177734"/>
    <use xlink:href="#SegoeUI-69" x="256.396484"/>
    <use xlink:href="#SegoeUI-6e" x="280.615234"/>
    <use xlink:href="#SegoeUI-65" x="337.207031"/>
    <use xlink:href="#SegoeUI-73" x="389.501953"/>
    <use xlink:href="#SegoeUI-20" x="431.933594"/>
    <use xlink:href="#SegoeUI-62" x="459.326172"/>
    <use xlink:href="#SegoeUI-65" x="518.115234"/>
    <use xlink:href="#SegoeUI-69" x="570.410156"/>
    <use xlink:href="#SegoeUI-6e" x="594.628906"/>
    <use xlink:href="#SegoeUI-67" x="651.220703"/>
    <use xlink:href="#SegoeUI-20" x="710.107422"/>
    <use xlink:href="#SegoeUI-6d" x="737.5"/>
    <use xlink:href="#SegoeUI-65" x="823.632812"/>
    <use xlink:href="#SegoeUI-74" x="875.927734"/>
    <use xlink:href="#SegoeUI-20" x="909.814453"/>
    <use xlink:href="#SegoeUI-62" x="937.207031"/>
    <use xlink:href="#SegoeUI-79" x="995.996094"/>
    <use xlink:href="#SegoeUI-20" x="1044.384766"/>
    <use xlink:href="#SegoeUI-74" x="1071.777344"/>
    <use xlink:href="#SegoeUI-65" x="1104.914062"/>
    <use xlink:href="#SegoeUI-61" x="1157.208984"/>
    <use xlink:href="#SegoeUI-6d" x="1208.087891"/>
    <use xlink:href="#SegoeUI-20" x="1294.220703"/>
    <use xlink:href="#SegoeUI-73" x="1321.613281"/>
    <use xlink:href="#SegoeUI-69" x="1364.044922"/>
    <use xlink:href="#SegoeUI-7a" x="1388.263672"/>
    <use xlink:href="#SegoeUI-65" x="1433.478516"/>
   </g>
  </g>
  <g id="legend_1"/>
 </g>
 <defs>
  <clipPath id="pc2224d6dab">
   <rect x="71.24" y="59.76" width="642.52" height="323.788"/>
  </clipPath>
 </defs>
</svg>
