<?xml version="1.0" encoding="utf-8" standalone="no"?>
<!DOCTYPE svg PUBLIC "-//W3C//DTD SVG 1.1//EN"
  "http://www.w3.org/Graphics/SVG/1.1/DTD/svg11.dtd">
<svg xmlns:xlink="http://www.w3.org/1999/xlink" width="583.91pt" height="256.465pt" viewBox="0 0 583.91 256.465" xmlns="http://www.w3.org/2000/svg" version="1.1">
 <metadata>
  <rdf:RDF xmlns:dc="http://purl.org/dc/elements/1.1/" xmlns:cc="http://creativecommons.org/ns#" xmlns:rdf="http://www.w3.org/1999/02/22-rdf-syntax-ns#">
   <cc:Work>
    <dc:type rdf:resource="http://purl.org/dc/dcmitype/StillImage"/>
    <dc:date>2025-10-03T20:14:42.836823</dc:date>
    <dc:format>image/svg+xml</dc:format>
    <dc:creator>
     <cc:Agent>
      <dc:title>Matplotlib v3.9.2, https://matplotlib.org/</dc:title>
     </cc:Agent>
    </dc:creator>
   </cc:Work>
  </rdf:RDF>
 </metadata>
 <defs>
  <style type="text/css">*{stroke-linejoin: round; stroke-linecap: butt}</style>
 </defs>
 <g id="figure_1">
  <g id="patch_1">
   <path d="M 0 256.465 
L 583.91 256.465 
L 583.91 0 
L 0 0 
L 0 256.465 
z
" style="fill: none"/>
  </g>
  <g id="axes_1">
   <g id="patch_2">
    <path d="M 48.134375 228.96 
L 382.934375 228.96 
L 382.934375 7.2 
L 48.134375 7.2 
L 48.134375 228.96 
z
" style="fill: none"/>
   </g>
   <g id="matplotlib.axis_1">
    <g id="xtick_1">
     <g id="line2d_1">
      <path d="M 95.390834 228.96 
L 95.390834 7.2 
" clip-path="url(#pb79292d020)" style="fill: none; stroke: #d3d3d3; stroke-width: 1.5; stroke-linecap: round"/>
     </g>
     <g id="text_1">
      <!-- Microsoft Teams -->
      <g style="fill: #262626" transform="translate(66.603334 247.3825) scale(0.08 -0.08)">
       <defs>
        <path id="SegoeUI-4d" d="M 5156 0 
L 4634 0 
L 4634 3006 
Q 4634 3363 4678 3878 
L 4666 3878 
Q 4591 3575 4531 3444 
L 3000 0 
L 2744 0 
L 1216 3419 
Q 1150 3569 1081 3878 
L 1069 3878 
Q 1094 3609 1094 3000 
L 1094 0 
L 588 0 
L 588 4481 
L 1281 4481 
L 2656 1356 
Q 2816 997 2863 819 
L 2881 819 
Q 3016 1188 3097 1369 
L 4500 4481 
L 5156 4481 
L 5156 0 
z
" transform="scale(0.015625)"/>
        <path id="SegoeUI-69" d="M 781 4013 
Q 644 4013 547 4106 
Q 450 4200 450 4344 
Q 450 4488 547 4583 
Q 644 4678 781 4678 
Q 922 4678 1020 4583 
Q 1119 4488 1119 4344 
Q 1119 4206 1020 4109 
Q 922 4013 781 4013 
z
M 1031 0 
L 519 0 
L 519 3200 
L 1031 3200 
L 1031 0 
z
" transform="scale(0.015625)"/>
        <path id="SegoeUI-63" d="M 2700 147 
Q 2331 -75 1825 -75 
Q 1141 -75 720 370 
Q 300 816 300 1525 
Q 300 2316 753 2795 
Q 1206 3275 1963 3275 
Q 2384 3275 2706 3119 
L 2706 2594 
Q 2350 2844 1944 2844 
Q 1453 2844 1139 2492 
Q 825 2141 825 1569 
Q 825 1006 1120 681 
Q 1416 356 1913 356 
Q 2331 356 2700 634 
L 2700 147 
z
" transform="scale(0.015625)"/>
        <path id="SegoeUI-72" d="M 2188 2681 
Q 2053 2784 1800 2784 
Q 1472 2784 1251 2475 
Q 1031 2166 1031 1631 
L 1031 0 
L 519 0 
L 519 3200 
L 1031 3200 
L 1031 2541 
L 1044 2541 
Q 1153 2878 1378 3067 
Q 1603 3256 1881 3256 
Q 2081 3256 2188 3213 
L 2188 2681 
z
" transform="scale(0.015625)"/>
        <path id="SegoeUI-6f" d="M 1856 -75 
Q 1147 -75 723 373 
Q 300 822 300 1563 
Q 300 2369 740 2822 
Q 1181 3275 1931 3275 
Q 2647 3275 3048 2834 
Q 3450 2394 3450 1613 
Q 3450 847 3017 386 
Q 2584 -75 1856 -75 
z
M 1894 2844 
Q 1400 2844 1112 2508 
Q 825 2172 825 1581 
Q 825 1013 1115 684 
Q 1406 356 1894 356 
Q 2391 356 2658 678 
Q 2925 1000 2925 1594 
Q 2925 2194 2658 2519 
Q 2391 2844 1894 2844 
z
" transform="scale(0.015625)"/>
        <path id="SegoeUI-73" d="M 325 116 
L 325 666 
Q 744 356 1247 356 
Q 1922 356 1922 806 
Q 1922 934 1864 1023 
Q 1806 1113 1707 1181 
Q 1609 1250 1476 1304 
Q 1344 1359 1191 1419 
Q 978 1503 817 1589 
Q 656 1675 548 1783 
Q 441 1891 386 2028 
Q 331 2166 331 2350 
Q 331 2575 434 2748 
Q 538 2922 709 3039 
Q 881 3156 1101 3215 
Q 1322 3275 1556 3275 
Q 1972 3275 2300 3131 
L 2300 2613 
Q 1947 2844 1488 2844 
Q 1344 2844 1228 2811 
Q 1113 2778 1030 2718 
Q 947 2659 901 2576 
Q 856 2494 856 2394 
Q 856 2269 901 2184 
Q 947 2100 1034 2034 
Q 1122 1969 1247 1916 
Q 1372 1863 1531 1800 
Q 1744 1719 1912 1633 
Q 2081 1547 2200 1439 
Q 2319 1331 2383 1190 
Q 2447 1050 2447 856 
Q 2447 619 2342 444 
Q 2238 269 2063 153 
Q 1888 38 1659 -18 
Q 1431 -75 1181 -75 
Q 688 -75 325 116 
z
" transform="scale(0.015625)"/>
        <path id="SegoeUI-66" d="M 2100 4288 
Q 1950 4372 1759 4372 
Q 1222 4372 1222 3694 
L 1222 3200 
L 1972 3200 
L 1972 2763 
L 1222 2763 
L 1222 0 
L 713 0 
L 713 2763 
L 166 2763 
L 166 3200 
L 713 3200 
L 713 3719 
Q 713 4222 1003 4514 
Q 1294 4806 1728 4806 
Q 1963 4806 2100 4750 
L 2100 4288 
z
" transform="scale(0.015625)"/>
        <path id="SegoeUI-74" d="M 2003 31 
Q 1822 -69 1525 -69 
Q 684 -69 684 869 
L 684 2763 
L 134 2763 
L 134 3200 
L 684 3200 
L 684 3981 
L 1197 4147 
L 1197 3200 
L 2003 3200 
L 2003 2763 
L 1197 2763 
L 1197 959 
Q 1197 638 1306 500 
Q 1416 363 1669 363 
Q 1863 363 2003 469 
L 2003 31 
z
" transform="scale(0.015625)"/>
        <path id="SegoeUI-20" transform="scale(0.015625)"/>
        <path id="SegoeUI-54" d="M 3238 4006 
L 1944 4006 
L 1944 0 
L 1419 0 
L 1419 4006 
L 128 4006 
L 128 4481 
L 3238 4481 
L 3238 4006 
z
" transform="scale(0.015625)"/>
        <path id="SegoeUI-65" d="M 3091 1472 
L 831 1472 
Q 844 938 1119 647 
Q 1394 356 1875 356 
Q 2416 356 2869 713 
L 2869 231 
Q 2447 -75 1753 -75 
Q 1075 -75 687 361 
Q 300 797 300 1588 
Q 300 2334 723 2804 
Q 1147 3275 1775 3275 
Q 2403 3275 2747 2869 
Q 3091 2463 3091 1741 
L 3091 1472 
z
M 2566 1906 
Q 2563 2350 2352 2597 
Q 2141 2844 1766 2844 
Q 1403 2844 1150 2584 
Q 897 2325 838 1906 
L 2566 1906 
z
" transform="scale(0.015625)"/>
        <path id="SegoeUI-61" d="M 2809 0 
L 2297 0 
L 2297 500 
L 2284 500 
Q 1950 -75 1300 -75 
Q 822 -75 551 178 
Q 281 431 281 850 
Q 281 1747 1338 1894 
L 2297 2028 
Q 2297 2844 1638 2844 
Q 1059 2844 594 2450 
L 594 2975 
Q 1066 3275 1681 3275 
Q 2809 3275 2809 2081 
L 2809 0 
z
M 2297 1619 
L 1525 1513 
Q 1169 1463 987 1336 
Q 806 1209 806 888 
Q 806 653 973 504 
Q 1141 356 1419 356 
Q 1800 356 2048 623 
Q 2297 891 2297 1300 
L 2297 1619 
z
" transform="scale(0.015625)"/>
        <path id="SegoeUI-6d" d="M 5063 0 
L 4550 0 
L 4550 1838 
Q 4550 2369 4386 2606 
Q 4222 2844 3834 2844 
Q 3506 2844 3276 2544 
Q 3047 2244 3047 1825 
L 3047 0 
L 2534 0 
L 2534 1900 
Q 2534 2844 1806 2844 
Q 1469 2844 1250 2561 
Q 1031 2278 1031 1825 
L 1031 0 
L 519 0 
L 519 3200 
L 1031 3200 
L 1031 2694 
L 1044 2694 
Q 1384 3275 2038 3275 
Q 2366 3275 2609 3092 
Q 2853 2909 2944 2613 
Q 3300 3275 4006 3275 
Q 5063 3275 5063 1972 
L 5063 0 
z
" transform="scale(0.015625)"/>
       </defs>
       <use xlink:href="#SegoeUI-4d"/>
       <use xlink:href="#SegoeUI-69" x="89.794922"/>
       <use xlink:href="#SegoeUI-63" x="114.013672"/>
       <use xlink:href="#SegoeUI-72" x="160.205078"/>
       <use xlink:href="#SegoeUI-6f" x="193.595703"/>
       <use xlink:href="#SegoeUI-73" x="252.189453"/>
       <use xlink:href="#SegoeUI-6f" x="294.621094"/>
       <use xlink:href="#SegoeUI-66" x="351.464844"/>
       <use xlink:href="#SegoeUI-74" x="384.513672"/>
       <use xlink:href="#SegoeUI-20" x="418.400391"/>
       <use xlink:href="#SegoeUI-54" x="445.792969"/>
       <use xlink:href="#SegoeUI-65" x="487.935547"/>
       <use xlink:href="#SegoeUI-61" x="540.230469"/>
       <use xlink:href="#SegoeUI-6d" x="591.109375"/>
       <use xlink:href="#SegoeUI-73" x="677.242188"/>
      </g>
     </g>
    </g>
    <g id="xtick_2">
     <g id="line2d_2">
      <path d="M 175.486528 228.96 
L 175.486528 7.2 
" clip-path="url(#pb79292d020)" style="fill: none; stroke: #d3d3d3; stroke-width: 1.5; stroke-linecap: round"/>
     </g>
     <g id="text_2">
      <!-- Slack -->
      <g style="fill: #262626" transform="translate(166.522153 247.3825) scale(0.08 -0.08)">
       <defs>
        <path id="SegoeUI-53" d="M 378 181 
L 378 800 
Q 484 706 632 631 
Q 781 556 945 504 
Q 1109 453 1275 425 
Q 1441 397 1581 397 
Q 2066 397 2305 576 
Q 2544 756 2544 1094 
Q 2544 1275 2464 1409 
Q 2384 1544 2243 1655 
Q 2103 1766 1911 1867 
Q 1719 1969 1497 2081 
Q 1263 2200 1059 2322 
Q 856 2444 706 2591 
Q 556 2738 470 2923 
Q 384 3109 384 3359 
Q 384 3666 518 3892 
Q 653 4119 872 4266 
Q 1091 4413 1370 4484 
Q 1650 4556 1941 4556 
Q 2603 4556 2906 4397 
L 2906 3806 
Q 2509 4081 1888 4081 
Q 1716 4081 1544 4045 
Q 1372 4009 1237 3928 
Q 1103 3847 1018 3719 
Q 934 3591 934 3406 
Q 934 3234 998 3109 
Q 1063 2984 1188 2881 
Q 1313 2778 1492 2681 
Q 1672 2584 1906 2469 
Q 2147 2350 2362 2219 
Q 2578 2088 2740 1928 
Q 2903 1769 2998 1575 
Q 3094 1381 3094 1131 
Q 3094 800 2964 570 
Q 2834 341 2614 197 
Q 2394 53 2106 -11 
Q 1819 -75 1500 -75 
Q 1394 -75 1237 -58 
Q 1081 -41 918 -8 
Q 756 25 611 73 
Q 466 122 378 181 
z
" transform="scale(0.015625)"/>
        <path id="SegoeUI-6c" d="M 1031 0 
L 519 0 
L 519 4738 
L 1031 4738 
L 1031 0 
z
" transform="scale(0.015625)"/>
        <path id="SegoeUI-6b" d="M 3175 0 
L 2456 0 
L 1044 1538 
L 1031 1538 
L 1031 0 
L 519 0 
L 519 4738 
L 1031 4738 
L 1031 1734 
L 1044 1734 
L 2388 3200 
L 3059 3200 
L 1575 1656 
L 3175 0 
z
" transform="scale(0.015625)"/>
       </defs>
       <use xlink:href="#SegoeUI-53"/>
       <use xlink:href="#SegoeUI-6c" x="53.125"/>
       <use xlink:href="#SegoeUI-61" x="77.34375"/>
       <use xlink:href="#SegoeUI-63" x="128.222656"/>
       <use xlink:href="#SegoeUI-6b" x="174.414062"/>
      </g>
     </g>
    </g>
    <g id="xtick_3">
     <g id="line2d_3">
      <path d="M 255.582222 228.96 
L 255.582222 7.2 
" clip-path="url(#pb79292d020)" style="fill: none; stroke: #d3d3d3; stroke-width: 1.5; stroke-linecap: round"/>
     </g>
     <g id="text_3">
      <!-- Google Chat -->
      <g style="fill: #262626" transform="translate(233.507222 247.3825) scale(0.08 -0.08)">
       <defs>
        <path id="SegoeUI-47" d="M 3938 306 
Q 3263 -75 2438 -75 
Q 1478 -75 886 544 
Q 294 1163 294 2181 
Q 294 3222 951 3889 
Q 1609 4556 2619 4556 
Q 3350 4556 3847 4319 
L 3847 3738 
Q 3303 4081 2559 4081 
Q 1806 4081 1325 3562 
Q 844 3044 844 2219 
Q 844 1369 1291 883 
Q 1738 397 2503 397 
Q 3028 397 3413 606 
L 3413 1863 
L 2431 1863 
L 2431 2338 
L 3938 2338 
L 3938 306 
z
" transform="scale(0.015625)"/>
        <path id="SegoeUI-67" d="M 3250 256 
Q 3250 -1506 1563 -1506 
Q 969 -1506 525 -1281 
L 525 -769 
Q 1066 -1069 1556 -1069 
Q 2738 -1069 2738 188 
L 2738 538 
L 2725 538 
Q 2359 -75 1625 -75 
Q 1028 -75 664 351 
Q 300 778 300 1497 
Q 300 2313 692 2794 
Q 1084 3275 1766 3275 
Q 2413 3275 2725 2756 
L 2738 2756 
L 2738 3200 
L 3250 3200 
L 3250 256 
z
M 2738 1447 
L 2738 1919 
Q 2738 2300 2480 2572 
Q 2222 2844 1838 2844 
Q 1363 2844 1094 2498 
Q 825 2153 825 1531 
Q 825 997 1083 676 
Q 1341 356 1766 356 
Q 2197 356 2467 662 
Q 2738 969 2738 1447 
z
" transform="scale(0.015625)"/>
        <path id="SegoeUI-43" d="M 3638 188 
Q 3141 -75 2400 -75 
Q 1444 -75 869 540 
Q 294 1156 294 2156 
Q 294 3231 941 3893 
Q 1588 4556 2581 4556 
Q 3219 4556 3638 4372 
L 3638 3813 
Q 3156 4081 2575 4081 
Q 1803 4081 1323 3565 
Q 844 3050 844 2188 
Q 844 1369 1292 883 
Q 1741 397 2469 397 
Q 3144 397 3638 697 
L 3638 188 
z
" transform="scale(0.015625)"/>
        <path id="SegoeUI-68" d="M 3175 0 
L 2663 0 
L 2663 1844 
Q 2663 2844 1919 2844 
Q 1544 2844 1287 2555 
Q 1031 2266 1031 1813 
L 1031 0 
L 519 0 
L 519 4738 
L 1031 4738 
L 1031 2669 
L 1044 2669 
Q 1413 3275 2094 3275 
Q 3175 3275 3175 1972 
L 3175 0 
z
" transform="scale(0.015625)"/>
       </defs>
       <use xlink:href="#SegoeUI-47"/>
       <use xlink:href="#SegoeUI-6f" x="68.603516"/>
       <use xlink:href="#SegoeUI-6f" x="127.197266"/>
       <use xlink:href="#SegoeUI-67" x="185.791016"/>
       <use xlink:href="#SegoeUI-6c" x="244.677734"/>
       <use xlink:href="#SegoeUI-65" x="268.896484"/>
       <use xlink:href="#SegoeUI-20" x="321.191406"/>
       <use xlink:href="#SegoeUI-43" x="348.583984"/>
       <use xlink:href="#SegoeUI-68" x="410.498047"/>
       <use xlink:href="#SegoeUI-61" x="467.089844"/>
       <use xlink:href="#SegoeUI-74" x="517.96875"/>
      </g>
     </g>
    </g>
    <g id="xtick_4">
     <g id="line2d_4">
      <path d="M 335.677916 228.96 
L 335.677916 7.2 
" clip-path="url(#pb79292d020)" style="fill: none; stroke: #d3d3d3; stroke-width: 1.5; stroke-linecap: round"/>
     </g>
     <g id="text_4">
      <!-- Other -->
      <g style="fill: #262626" transform="translate(325.560416 247.3825) scale(0.08 -0.08)">
       <defs>
        <path id="SegoeUI-4f" d="M 2394 -75 
Q 1441 -75 867 553 
Q 294 1181 294 2188 
Q 294 3269 878 3912 
Q 1463 4556 2469 4556 
Q 3397 4556 3964 3931 
Q 4531 3306 4531 2297 
Q 4531 1200 3950 562 
Q 3369 -75 2394 -75 
z
M 2431 4081 
Q 1725 4081 1284 3572 
Q 844 3063 844 2234 
Q 844 1406 1273 901 
Q 1703 397 2394 397 
Q 3131 397 3556 878 
Q 3981 1359 3981 2225 
Q 3981 3113 3568 3597 
Q 3156 4081 2431 4081 
z
" transform="scale(0.015625)"/>
       </defs>
       <use xlink:href="#SegoeUI-4f"/>
       <use xlink:href="#SegoeUI-74" x="75.390625"/>
       <use xlink:href="#SegoeUI-68" x="109.277344"/>
       <use xlink:href="#SegoeUI-65" x="165.869141"/>
       <use xlink:href="#SegoeUI-72" x="218.164062"/>
      </g>
     </g>
    </g>
   </g>
   <g id="matplotlib.axis_2">
    <g id="ytick_1">
     <g id="line2d_5">
      <path d="M 48.134375 228.96 
L 382.934375 228.96 
" clip-path="url(#pb79292d020)" style="fill: none; stroke: #d3d3d3; stroke-width: 1.5; stroke-linecap: round"/>
     </g>
     <g id="text_5">
      <!-- 0 -->
      <g style="fill: #262626" transform="translate(31.321875 231.92125) scale(0.08 -0.08)">
       <defs>
        <path id="SegoeUI-30" d="M 3188 2259 
Q 3188 1697 3086 1262 
Q 2984 828 2792 529 
Q 2600 231 2320 76 
Q 2041 -78 1684 -78 
Q 1347 -78 1083 70 
Q 819 219 637 503 
Q 456 788 362 1202 
Q 269 1616 269 2150 
Q 269 2738 367 3188 
Q 466 3638 656 3942 
Q 847 4247 1130 4401 
Q 1413 4556 1778 4556 
Q 3188 4556 3188 2259 
z
M 2663 2209 
Q 2663 4122 1753 4122 
Q 794 4122 794 2175 
Q 794 359 1734 359 
Q 2663 359 2663 2209 
z
" transform="scale(0.015625)"/>
       </defs>
       <use xlink:href="#SegoeUI-30"/>
      </g>
     </g>
    </g>
    <g id="ytick_2">
     <g id="line2d_6">
      <path d="M 48.134375 182.026667 
L 382.934375 182.026667 
" clip-path="url(#pb79292d020)" style="fill: none; stroke: #d3d3d3; stroke-width: 1.5; stroke-linecap: round"/>
     </g>
     <g id="text_6">
      <!-- 10 -->
      <g style="fill: #262626" transform="translate(27.009375 184.987917) scale(0.08 -0.08)">
       <defs>
        <path id="SegoeUI-31" d="M 2263 0 
L 1750 0 
L 1750 3872 
Q 1691 3813 1577 3736 
Q 1463 3659 1320 3584 
Q 1178 3509 1020 3443 
Q 863 3378 713 3341 
L 713 3859 
Q 881 3906 1070 3986 
Q 1259 4066 1442 4164 
Q 1625 4263 1787 4370 
Q 1950 4478 2069 4581 
L 2263 4581 
L 2263 0 
z
" transform="scale(0.015625)"/>
       </defs>
       <use xlink:href="#SegoeUI-31"/>
       <use xlink:href="#SegoeUI-30" x="53.90625"/>
      </g>
     </g>
    </g>
    <g id="ytick_3">
     <g id="line2d_7">
      <path d="M 48.134375 135.093333 
L 382.934375 135.093333 
" clip-path="url(#pb79292d020)" style="fill: none; stroke: #d3d3d3; stroke-width: 1.5; stroke-linecap: round"/>
     </g>
     <g id="text_7">
      <!-- 20 -->
      <g style="fill: #262626" transform="translate(27.009375 138.054583) scale(0.08 -0.08)">
       <defs>
        <path id="SegoeUI-32" d="M 2413 3306 
Q 2413 3513 2348 3666 
Q 2284 3819 2173 3920 
Q 2063 4022 1913 4072 
Q 1763 4122 1588 4122 
Q 1438 4122 1294 4081 
Q 1150 4041 1014 3969 
Q 878 3897 751 3797 
Q 625 3697 516 3575 
L 516 4125 
Q 731 4334 998 4445 
Q 1266 4556 1650 4556 
Q 1925 4556 2159 4476 
Q 2394 4397 2566 4244 
Q 2738 4091 2836 3866 
Q 2934 3641 2934 3350 
Q 2934 3084 2873 2868 
Q 2813 2653 2689 2462 
Q 2566 2272 2378 2097 
Q 2191 1922 1938 1741 
Q 1622 1516 1417 1356 
Q 1213 1197 1092 1058 
Q 972 919 923 780 
Q 875 641 875 459 
L 3106 459 
L 3106 0 
L 341 0 
L 341 222 
Q 341 509 403 728 
Q 466 947 609 1144 
Q 753 1341 986 1537 
Q 1219 1734 1556 1981 
Q 1800 2156 1964 2315 
Q 2128 2475 2228 2634 
Q 2328 2794 2370 2958 
Q 2413 3122 2413 3306 
z
" transform="scale(0.015625)"/>
       </defs>
       <use xlink:href="#SegoeUI-32"/>
       <use xlink:href="#SegoeUI-30" x="53.90625"/>
      </g>
     </g>
    </g>
    <g id="ytick_4">
     <g id="line2d_8">
      <path d="M 48.134375 88.16 
L 382.934375 88.16 
" clip-path="url(#pb79292d020)" style="fill: none; stroke: #d3d3d3; stroke-width: 1.5; stroke-linecap: round"/>
     </g>
     <g id="text_8">
      <!-- 30 -->
      <g style="fill: #262626" transform="translate(27.009375 91.12125) scale(0.08 -0.08)">
       <defs>
        <path id="SegoeUI-33" d="M 2978 1269 
Q 2978 966 2864 717 
Q 2750 469 2542 292 
Q 2334 116 2043 19 
Q 1753 -78 1403 -78 
Q 763 -78 384 166 
L 384 716 
Q 838 359 1422 359 
Q 1656 359 1845 418 
Q 2034 478 2170 590 
Q 2306 703 2379 862 
Q 2453 1022 2453 1222 
Q 2453 2100 1203 2100 
L 831 2100 
L 831 2534 
L 1184 2534 
Q 2291 2534 2291 3359 
Q 2291 4122 1447 4122 
Q 972 4122 556 3803 
L 556 4300 
Q 984 4556 1575 4556 
Q 1856 4556 2084 4478 
Q 2313 4400 2475 4259 
Q 2638 4119 2727 3922 
Q 2816 3725 2816 3488 
Q 2816 2603 1922 2350 
L 1922 2338 
Q 2150 2313 2344 2227 
Q 2538 2141 2678 2003 
Q 2819 1866 2898 1680 
Q 2978 1494 2978 1269 
z
" transform="scale(0.015625)"/>
       </defs>
       <use xlink:href="#SegoeUI-33"/>
       <use xlink:href="#SegoeUI-30" x="53.90625"/>
      </g>
     </g>
    </g>
    <g id="ytick_5">
     <g id="line2d_9">
      <path d="M 48.134375 41.226667 
L 382.934375 41.226667 
" clip-path="url(#pb79292d020)" style="fill: none; stroke: #d3d3d3; stroke-width: 1.5; stroke-linecap: round"/>
     </g>
     <g id="text_9">
      <!-- 40 -->
      <g style="fill: #262626" transform="translate(27.009375 44.187917) scale(0.08 -0.08)">
       <defs>
        <path id="SegoeUI-34" d="M 2656 4481 
L 2656 1522 
L 3231 1522 
L 3231 1053 
L 2656 1053 
L 2656 0 
L 2150 0 
L 2150 1053 
L 44 1053 
L 44 1497 
Q 338 1828 638 2204 
Q 938 2581 1211 2968 
Q 1484 3356 1717 3742 
Q 1950 4128 2109 4481 
L 2656 4481 
z
M 622 1522 
L 2150 1522 
L 2150 3716 
Q 1916 3306 1706 2984 
Q 1497 2663 1308 2400 
Q 1119 2138 947 1925 
Q 775 1713 622 1522 
z
" transform="scale(0.015625)"/>
       </defs>
       <use xlink:href="#SegoeUI-34"/>
       <use xlink:href="#SegoeUI-30" x="53.90625"/>
      </g>
     </g>
    </g>
    <g id="text_10">
     <!-- Number of respondents -->
     <g style="fill: #262626" transform="translate(14.709375 170.707344) rotate(-90) scale(0.1 -0.1)">
      <defs>
       <path id="SegoeUI-4e" d="M 4200 0 
L 3556 0 
L 1250 3572 
Q 1163 3706 1106 3853 
L 1088 3853 
Q 1113 3709 1113 3238 
L 1113 0 
L 588 0 
L 588 4481 
L 1269 4481 
L 3513 966 
Q 3653 747 3694 666 
L 3706 666 
Q 3675 859 3675 1325 
L 3675 4481 
L 4200 4481 
L 4200 0 
z
" transform="scale(0.015625)"/>
       <path id="SegoeUI-75" d="M 3106 0 
L 2594 0 
L 2594 506 
L 2581 506 
Q 2263 -75 1594 -75 
Q 450 -75 450 1288 
L 450 3200 
L 959 3200 
L 959 1369 
Q 959 356 1734 356 
Q 2109 356 2351 632 
Q 2594 909 2594 1356 
L 2594 3200 
L 3106 3200 
L 3106 0 
z
" transform="scale(0.015625)"/>
       <path id="SegoeUI-62" d="M 1044 463 
L 1031 463 
L 1031 0 
L 519 0 
L 519 4738 
L 1031 4738 
L 1031 2638 
L 1044 2638 
Q 1422 3275 2150 3275 
Q 2766 3275 3114 2845 
Q 3463 2416 3463 1694 
Q 3463 891 3072 408 
Q 2681 -75 2003 -75 
Q 1369 -75 1044 463 
z
M 1031 1753 
L 1031 1306 
Q 1031 909 1289 632 
Q 1547 356 1944 356 
Q 2409 356 2673 712 
Q 2938 1069 2938 1703 
Q 2938 2238 2691 2541 
Q 2444 2844 2022 2844 
Q 1575 2844 1303 2533 
Q 1031 2222 1031 1753 
z
" transform="scale(0.015625)"/>
       <path id="SegoeUI-70" d="M 1044 463 
L 1031 463 
L 1031 -1472 
L 519 -1472 
L 519 3200 
L 1031 3200 
L 1031 2638 
L 1044 2638 
Q 1422 3275 2150 3275 
Q 2769 3275 3116 2845 
Q 3463 2416 3463 1694 
Q 3463 891 3072 408 
Q 2681 -75 2003 -75 
Q 1381 -75 1044 463 
z
M 1031 1753 
L 1031 1306 
Q 1031 909 1289 632 
Q 1547 356 1944 356 
Q 2409 356 2673 712 
Q 2938 1069 2938 1703 
Q 2938 2238 2691 2541 
Q 2444 2844 2022 2844 
Q 1575 2844 1303 2533 
Q 1031 2222 1031 1753 
z
" transform="scale(0.015625)"/>
       <path id="SegoeUI-6e" d="M 3175 0 
L 2663 0 
L 2663 1825 
Q 2663 2844 1919 2844 
Q 1534 2844 1282 2555 
Q 1031 2266 1031 1825 
L 1031 0 
L 519 0 
L 519 3200 
L 1031 3200 
L 1031 2669 
L 1044 2669 
Q 1406 3275 2094 3275 
Q 2619 3275 2897 2936 
Q 3175 2597 3175 1956 
L 3175 0 
z
" transform="scale(0.015625)"/>
       <path id="SegoeUI-64" d="M 3250 0 
L 2738 0 
L 2738 544 
L 2725 544 
Q 2369 -75 1625 -75 
Q 1022 -75 661 354 
Q 300 784 300 1525 
Q 300 2319 700 2797 
Q 1100 3275 1766 3275 
Q 2425 3275 2725 2756 
L 2738 2756 
L 2738 4738 
L 3250 4738 
L 3250 0 
z
M 2738 1447 
L 2738 1919 
Q 2738 2306 2481 2575 
Q 2225 2844 1831 2844 
Q 1363 2844 1094 2500 
Q 825 2156 825 1550 
Q 825 997 1083 676 
Q 1341 356 1775 356 
Q 2203 356 2470 665 
Q 2738 975 2738 1447 
z
" transform="scale(0.015625)"/>
      </defs>
      <use xlink:href="#SegoeUI-4e"/>
      <use xlink:href="#SegoeUI-75" x="74.804688"/>
      <use xlink:href="#SegoeUI-6d" x="131.396484"/>
      <use xlink:href="#SegoeUI-62" x="217.529297"/>
      <use xlink:href="#SegoeUI-65" x="276.318359"/>
      <use xlink:href="#SegoeUI-72" x="328.613281"/>
      <use xlink:href="#SegoeUI-20" x="363.378906"/>
      <use xlink:href="#SegoeUI-6f" x="390.771484"/>
      <use xlink:href="#SegoeUI-66" x="447.615234"/>
      <use xlink:href="#SegoeUI-20" x="478.914062"/>
      <use xlink:href="#SegoeUI-72" x="506.306641"/>
      <use xlink:href="#SegoeUI-65" x="539.697266"/>
      <use xlink:href="#SegoeUI-73" x="591.992188"/>
      <use xlink:href="#SegoeUI-70" x="634.423828"/>
      <use xlink:href="#SegoeUI-6f" x="693.212891"/>
      <use xlink:href="#SegoeUI-6e" x="751.806641"/>
      <use xlink:href="#SegoeUI-64" x="808.398438"/>
      <use xlink:href="#SegoeUI-65" x="867.285156"/>
      <use xlink:href="#SegoeUI-6e" x="919.580078"/>
      <use xlink:href="#SegoeUI-74" x="976.171875"/>
      <use xlink:href="#SegoeUI-73" x="1010.058594"/>
     </g>
    </g>
   </g>
   <g id="patch_3">
    <path d="M 63.352557 228.96 
L 127.429112 228.96 
L 127.429112 125.706667 
L 63.352557 125.706667 
z
" clip-path="url(#pb79292d020)" style="fill: #ca9161; fill-opacity: 0.75; stroke: #ffffff; stroke-width: 1.5; stroke-linejoin: miter"/>
   </g>
   <g id="patch_4">
    <path d="M 143.448251 228.96 
L 207.524806 228.96 
L 207.524806 177.333333 
L 143.448251 177.333333 
z
" clip-path="url(#pb79292d020)" style="fill: #ca9161; fill-opacity: 0.75; stroke: #ffffff; stroke-width: 1.5; stroke-linejoin: miter"/>
   </g>
   <g id="patch_5">
    <path d="M 223.543944 228.96 
L 287.620499 228.96 
L 287.620499 200.8 
L 223.543944 200.8 
z
" clip-path="url(#pb79292d020)" style="fill: #ca9161; fill-opacity: 0.75; stroke: #ffffff; stroke-width: 1.5; stroke-linejoin: miter"/>
   </g>
   <g id="patch_6">
    <path d="M 303.639638 228.96 
L 367.716193 228.96 
L 367.716193 219.573333 
L 303.639638 219.573333 
z
" clip-path="url(#pb79292d020)" style="fill: #ca9161; fill-opacity: 0.75; stroke: #ffffff; stroke-width: 1.5; stroke-linejoin: miter"/>
   </g>
   <g id="patch_7">
    <path d="M 63.352557 125.706667 
L 127.429112 125.706667 
L 127.429112 106.933333 
L 63.352557 106.933333 
z
" clip-path="url(#pb79292d020)" style="fill: #cc78bc; fill-opacity: 0.75; stroke: #ffffff; stroke-width: 1.5; stroke-linejoin: miter"/>
   </g>
   <g id="patch_8">
    <path d="M 143.448251 177.333333 
L 207.524806 177.333333 
L 207.524806 158.56 
L 143.448251 158.56 
z
" clip-path="url(#pb79292d020)" style="fill: #cc78bc; fill-opacity: 0.75; stroke: #ffffff; stroke-width: 1.5; stroke-linejoin: miter"/>
   </g>
   <g id="patch_9">
    <path d="M 223.543944 200.8 
L 287.620499 200.8 
L 287.620499 196.106667 
L 223.543944 196.106667 
z
" clip-path="url(#pb79292d020)" style="fill: #cc78bc; fill-opacity: 0.75; stroke: #ffffff; stroke-width: 1.5; stroke-linejoin: miter"/>
   </g>
   <g id="patch_10">
    <path d="M 303.639638 219.573333 
L 367.716193 219.573333 
L 367.716193 214.88 
L 303.639638 214.88 
z
" clip-path="url(#pb79292d020)" style="fill: #cc78bc; fill-opacity: 0.75; stroke: #ffffff; stroke-width: 1.5; stroke-linejoin: miter"/>
   </g>
   <g id="patch_11">
    <path d="M 63.352557 106.933333 
L 127.429112 106.933333 
L 127.429112 92.853333 
L 63.352557 92.853333 
z
" clip-path="url(#pb79292d020)" style="fill: #d55e00; fill-opacity: 0.75; stroke: #ffffff; stroke-width: 1.5; stroke-linejoin: miter"/>
   </g>
   <g id="patch_12">
    <path d="M 143.448251 158.56 
L 207.524806 158.56 
L 207.524806 153.866667 
L 143.448251 153.866667 
z
" clip-path="url(#pb79292d020)" style="fill: #d55e00; fill-opacity: 0.75; stroke: #ffffff; stroke-width: 1.5; stroke-linejoin: miter"/>
   </g>
   <g id="patch_13">
    <path d="M 223.543944 196.106667 
L 287.620499 196.106667 
L 287.620499 186.72 
L 223.543944 186.72 
z
" clip-path="url(#pb79292d020)" style="fill: #d55e00; fill-opacity: 0.75; stroke: #ffffff; stroke-width: 1.5; stroke-linejoin: miter"/>
   </g>
   <g id="patch_14">
    <path d="M 303.639638 214.88 
L 367.716193 214.88 
L 367.716193 210.186667 
L 303.639638 210.186667 
z
" clip-path="url(#pb79292d020)" style="fill: #d55e00; fill-opacity: 0.75; stroke: #ffffff; stroke-width: 1.5; stroke-linejoin: miter"/>
   </g>
   <g id="patch_15">
    <path d="M 63.352557 92.853333 
L 127.429112 92.853333 
L 127.429112 64.693333 
L 63.352557 64.693333 
z
" clip-path="url(#pb79292d020)" style="fill: #029e73; fill-opacity: 0.75; stroke: #ffffff; stroke-width: 1.5; stroke-linejoin: miter"/>
   </g>
   <g id="patch_16">
    <path d="M 143.448251 153.866667 
L 207.524806 153.866667 
L 207.524806 111.626667 
L 143.448251 111.626667 
z
" clip-path="url(#pb79292d020)" style="fill: #029e73; fill-opacity: 0.75; stroke: #ffffff; stroke-width: 1.5; stroke-linejoin: miter"/>
   </g>
   <g id="patch_17">
    <path d="M 223.543944 186.72 
L 287.620499 186.72 
L 287.620499 186.72 
L 223.543944 186.72 
z
" clip-path="url(#pb79292d020)" style="fill: #029e73; fill-opacity: 0.75; stroke: #ffffff; stroke-width: 1.5; stroke-linejoin: miter"/>
   </g>
   <g id="patch_18">
    <path d="M 303.639638 210.186667 
L 367.716193 210.186667 
L 367.716193 205.493333 
L 303.639638 205.493333 
z
" clip-path="url(#pb79292d020)" style="fill: #029e73; fill-opacity: 0.75; stroke: #ffffff; stroke-width: 1.5; stroke-linejoin: miter"/>
   </g>
   <g id="patch_19">
    <path d="M 63.352557 64.693333 
L 127.429112 64.693333 
L 127.429112 41.226667 
L 63.352557 41.226667 
z
" clip-path="url(#pb79292d020)" style="fill: #de8f05; fill-opacity: 0.75; stroke: #ffffff; stroke-width: 1.5; stroke-linejoin: miter"/>
   </g>
   <g id="patch_20">
    <path d="M 143.448251 111.626667 
L 207.524806 111.626667 
L 207.524806 55.306667 
L 143.448251 55.306667 
z
" clip-path="url(#pb79292d020)" style="fill: #de8f05; fill-opacity: 0.75; stroke: #ffffff; stroke-width: 1.5; stroke-linejoin: miter"/>
   </g>
   <g id="patch_21">
    <path d="M 223.543944 186.72 
L 287.620499 186.72 
L 287.620499 172.64 
L 223.543944 172.64 
z
" clip-path="url(#pb79292d020)" style="fill: #de8f05; fill-opacity: 0.75; stroke: #ffffff; stroke-width: 1.5; stroke-linejoin: miter"/>
   </g>
   <g id="patch_22">
    <path d="M 303.639638 205.493333 
L 367.716193 205.493333 
L 367.716193 196.106667 
L 303.639638 196.106667 
z
" clip-path="url(#pb79292d020)" style="fill: #de8f05; fill-opacity: 0.75; stroke: #ffffff; stroke-width: 1.5; stroke-linejoin: miter"/>
   </g>
   <g id="patch_23">
    <path d="M 63.352557 41.226667 
L 127.429112 41.226667 
L 127.429112 17.76 
L 63.352557 17.76 
z
" clip-path="url(#pb79292d020)" style="fill: #0173b2; fill-opacity: 0.75; stroke: #ffffff; stroke-width: 1.5; stroke-linejoin: miter"/>
   </g>
   <g id="patch_24">
    <path d="M 143.448251 55.306667 
L 207.524806 55.306667 
L 207.524806 50.613333 
L 143.448251 50.613333 
z
" clip-path="url(#pb79292d020)" style="fill: #0173b2; fill-opacity: 0.75; stroke: #ffffff; stroke-width: 1.5; stroke-linejoin: miter"/>
   </g>
   <g id="patch_25">
    <path d="M 223.543944 172.64 
L 287.620499 172.64 
L 287.620499 167.946667 
L 223.543944 167.946667 
z
" clip-path="url(#pb79292d020)" style="fill: #0173b2; fill-opacity: 0.75; stroke: #ffffff; stroke-width: 1.5; stroke-linejoin: miter"/>
   </g>
   <g id="patch_26">
    <path d="M 303.639638 196.106667 
L 367.716193 196.106667 
L 367.716193 186.72 
L 303.639638 186.72 
z
" clip-path="url(#pb79292d020)" style="fill: #0173b2; fill-opacity: 0.75; stroke: #ffffff; stroke-width: 1.5; stroke-linejoin: miter"/>
   </g>
   <g id="patch_27">
    <path d="M 48.134375 228.96 
L 48.134375 7.2 
" style="fill: none; stroke: #d3d3d3; stroke-width: 1.875; stroke-linejoin: miter; stroke-linecap: square"/>
   </g>
   <g id="patch_28">
    <path d="M 382.934375 228.96 
L 382.934375 7.2 
" style="fill: none; stroke: #d3d3d3; stroke-width: 1.875; stroke-linejoin: miter; stroke-linecap: square"/>
   </g>
   <g id="patch_29">
    <path d="M 48.134375 228.96 
L 382.934375 228.96 
" style="fill: none; stroke: #d3d3d3; stroke-width: 1.875; stroke-linejoin: miter; stroke-linecap: square"/>
   </g>
   <g id="patch_30">
    <path d="M 48.134375 7.2 
L 382.934375 7.2 
" style="fill: none; stroke: #d3d3d3; stroke-width: 1.875; stroke-linejoin: miter; stroke-linecap: square"/>
   </g>
   <g id="legend_1">
    <g id="patch_31">
     <path d="M 391.334375 146.510625 
L 574.31 146.510625 
Q 576.71 146.510625 576.71 144.110625 
L 576.71 15.6 
Q 576.71 13.2 574.31 13.2 
L 391.334375 13.2 
Q 388.934375 13.2 388.934375 15.6 
L 388.934375 144.110625 
Q 388.934375 146.510625 391.334375 146.510625 
z
" style="fill: #eaeaf2; opacity: 0.8; stroke: #cccccc; stroke-width: 1.5; stroke-linejoin: miter"/>
    </g>
    <g id="text_11">
     <!-- Workplace size -->
     <g style="fill: #262626" transform="translate(423.599375 31.325625) scale(0.18 -0.18)">
      <defs>
       <path id="SegoeUI-57" d="M 5900 4481 
L 4634 0 
L 4019 0 
L 3097 3275 
Q 3038 3484 3025 3731 
L 3013 3731 
Q 2994 3500 2931 3281 
L 2003 0 
L 1394 0 
L 81 4481 
L 659 4481 
L 1613 1044 
Q 1672 828 1688 594 
L 1703 594 
Q 1719 759 1800 1044 
L 2791 4481 
L 3294 4481 
L 4244 1019 
Q 4294 841 4319 600 
L 4331 600 
Q 4344 763 4416 1031 
L 5331 4481 
L 5900 4481 
z
" transform="scale(0.015625)"/>
       <path id="SegoeUI-7a" d="M 2750 3053 
L 856 438 
L 2731 438 
L 2731 0 
L 103 0 
L 103 159 
L 1997 2763 
L 281 2763 
L 281 3200 
L 2750 3200 
L 2750 3053 
z
" transform="scale(0.015625)"/>
      </defs>
      <use xlink:href="#SegoeUI-57"/>
      <use xlink:href="#SegoeUI-6f" x="91.033203"/>
      <use xlink:href="#SegoeUI-72" x="149.626953"/>
      <use xlink:href="#SegoeUI-6b" x="184.392578"/>
      <use xlink:href="#SegoeUI-70" x="234.099609"/>
      <use xlink:href="#SegoeUI-6c" x="292.888672"/>
      <use xlink:href="#SegoeUI-61" x="317.107422"/>
      <use xlink:href="#SegoeUI-63" x="367.986328"/>
      <use xlink:href="#SegoeUI-65" x="414.177734"/>
      <use xlink:href="#SegoeUI-20" x="466.472656"/>
      <use xlink:href="#SegoeUI-73" x="493.865234"/>
      <use xlink:href="#SegoeUI-69" x="536.296875"/>
      <use xlink:href="#SegoeUI-7a" x="560.515625"/>
      <use xlink:href="#SegoeUI-65" x="605.730469"/>
     </g>
    </g>
    <g id="patch_32">
     <path d="M 393.734375 50.349375 
L 417.734375 50.349375 
L 417.734375 41.949375 
L 393.734375 41.949375 
z
" style="fill: #0173b2; fill-opacity: 0.75; stroke: #ffffff; stroke-width: 1.5; stroke-linejoin: miter"/>
    </g>
    <g id="text_12">
     <!-- Less than 10 employees -->
     <g style="fill: #262626" transform="translate(427.334375 50.349375) scale(0.12 -0.12)">
      <defs>
       <path id="SegoeUI-4c" d="M 2913 0 
L 588 0 
L 588 4481 
L 1113 4481 
L 1113 475 
L 2913 475 
L 2913 0 
z
" transform="scale(0.015625)"/>
       <path id="SegoeUI-79" d="M 3066 3200 
L 1594 -513 
Q 1200 -1506 488 -1506 
Q 288 -1506 153 -1466 
L 153 -1006 
Q 319 -1063 456 -1063 
Q 844 -1063 1038 -600 
L 1294 6 
L 44 3200 
L 613 3200 
L 1478 738 
Q 1494 691 1544 494 
L 1563 494 
Q 1578 569 1625 731 
L 2534 3200 
L 3066 3200 
z
" transform="scale(0.015625)"/>
      </defs>
      <use xlink:href="#SegoeUI-4c"/>
      <use xlink:href="#SegoeUI-65" x="47.070312"/>
      <use xlink:href="#SegoeUI-73" x="99.365234"/>
      <use xlink:href="#SegoeUI-73" x="141.796875"/>
      <use xlink:href="#SegoeUI-20" x="184.228516"/>
      <use xlink:href="#SegoeUI-74" x="211.621094"/>
      <use xlink:href="#SegoeUI-68" x="245.507812"/>
      <use xlink:href="#SegoeUI-61" x="302.099609"/>
      <use xlink:href="#SegoeUI-6e" x="352.978516"/>
      <use xlink:href="#SegoeUI-20" x="409.570312"/>
      <use xlink:href="#SegoeUI-31" x="436.962891"/>
      <use xlink:href="#SegoeUI-30" x="490.869141"/>
      <use xlink:href="#SegoeUI-20" x="544.775391"/>
      <use xlink:href="#SegoeUI-65" x="572.167969"/>
      <use xlink:href="#SegoeUI-6d" x="624.462891"/>
      <use xlink:href="#SegoeUI-70" x="710.595703"/>
      <use xlink:href="#SegoeUI-6c" x="769.384766"/>
      <use xlink:href="#SegoeUI-6f" x="793.603516"/>
      <use xlink:href="#SegoeUI-79" x="852.197266"/>
      <use xlink:href="#SegoeUI-65" x="900.085938"/>
      <use xlink:href="#SegoeUI-65" x="952.380859"/>
      <use xlink:href="#SegoeUI-73" x="1004.675781"/>
     </g>
    </g>
    <g id="patch_33">
     <path d="M 393.734375 68.056875 
L 417.734375 68.056875 
L 417.734375 59.656875 
L 393.734375 59.656875 
z
" style="fill: #de8f05; fill-opacity: 0.75; stroke: #ffffff; stroke-width: 1.5; stroke-linejoin: miter"/>
    </g>
    <g id="text_13">
     <!-- 11-50 employees -->
     <g style="fill: #262626" transform="translate(427.334375 68.056875) scale(0.12 -0.12)">
      <defs>
       <path id="SegoeUI-2d" d="M 2156 1581 
L 450 1581 
L 450 1984 
L 2156 1984 
L 2156 1581 
z
" transform="scale(0.015625)"/>
       <path id="SegoeUI-35" d="M 3028 1369 
Q 3028 1041 2915 775 
Q 2803 509 2595 318 
Q 2388 128 2094 25 
Q 1800 -78 1441 -78 
Q 816 -78 513 109 
L 513 653 
Q 969 359 1447 359 
Q 1691 359 1886 431 
Q 2081 503 2218 631 
Q 2356 759 2429 940 
Q 2503 1122 2503 1338 
Q 2503 1775 2209 2023 
Q 1916 2272 1356 2272 
Q 1266 2272 1166 2269 
Q 1066 2266 966 2261 
Q 866 2256 770 2250 
Q 675 2244 597 2234 
L 750 4481 
L 2822 4481 
L 2822 4019 
L 1194 4019 
L 1103 2703 
Q 1203 2709 1315 2714 
Q 1428 2719 1516 2719 
Q 1872 2719 2153 2625 
Q 2434 2531 2629 2357 
Q 2825 2184 2926 1932 
Q 3028 1681 3028 1369 
z
" transform="scale(0.015625)"/>
      </defs>
      <use xlink:href="#SegoeUI-31"/>
      <use xlink:href="#SegoeUI-31" x="53.90625"/>
      <use xlink:href="#SegoeUI-2d" x="107.8125"/>
      <use xlink:href="#SegoeUI-35" x="147.802734"/>
      <use xlink:href="#SegoeUI-30" x="201.708984"/>
      <use xlink:href="#SegoeUI-20" x="255.615234"/>
      <use xlink:href="#SegoeUI-65" x="283.007812"/>
      <use xlink:href="#SegoeUI-6d" x="335.302734"/>
      <use xlink:href="#SegoeUI-70" x="421.435547"/>
      <use xlink:href="#SegoeUI-6c" x="480.224609"/>
      <use xlink:href="#SegoeUI-6f" x="504.443359"/>
      <use xlink:href="#SegoeUI-79" x="563.037109"/>
      <use xlink:href="#SegoeUI-65" x="610.925781"/>
      <use xlink:href="#SegoeUI-65" x="663.220703"/>
      <use xlink:href="#SegoeUI-73" x="715.515625"/>
     </g>
    </g>
    <g id="patch_34">
     <path d="M 393.734375 85.764375 
L 417.734375 85.764375 
L 417.734375 77.364375 
L 393.734375 77.364375 
z
" style="fill: #029e73; fill-opacity: 0.75; stroke: #ffffff; stroke-width: 1.5; stroke-linejoin: miter"/>
    </g>
    <g id="text_14">
     <!-- 51-200 employees -->
     <g style="fill: #262626" transform="translate(427.334375 85.764375) scale(0.12 -0.12)">
      <use xlink:href="#SegoeUI-35"/>
      <use xlink:href="#SegoeUI-31" x="53.90625"/>
      <use xlink:href="#SegoeUI-2d" x="107.8125"/>
      <use xlink:href="#SegoeUI-32" x="147.802734"/>
      <use xlink:href="#SegoeUI-30" x="201.708984"/>
      <use xlink:href="#SegoeUI-30" x="255.615234"/>
      <use xlink:href="#SegoeUI-20" x="309.521484"/>
      <use xlink:href="#SegoeUI-65" x="336.914062"/>
      <use xlink:href="#SegoeUI-6d" x="389.208984"/>
      <use xlink:href="#SegoeUI-70" x="475.341797"/>
      <use xlink:href="#SegoeUI-6c" x="534.130859"/>
      <use xlink:href="#SegoeUI-6f" x="558.349609"/>
      <use xlink:href="#SegoeUI-79" x="616.943359"/>
      <use xlink:href="#SegoeUI-65" x="664.832031"/>
      <use xlink:href="#SegoeUI-65" x="717.126953"/>
      <use xlink:href="#SegoeUI-73" x="769.421875"/>
     </g>
    </g>
    <g id="patch_35">
     <path d="M 393.734375 103.471875 
L 417.734375 103.471875 
L 417.734375 95.071875 
L 393.734375 95.071875 
z
" style="fill: #d55e00; fill-opacity: 0.75; stroke: #ffffff; stroke-width: 1.5; stroke-linejoin: miter"/>
    </g>
    <g id="text_15">
     <!-- 201-500 employees -->
     <g style="fill: #262626" transform="translate(427.334375 103.471875) scale(0.12 -0.12)">
      <use xlink:href="#SegoeUI-32"/>
      <use xlink:href="#SegoeUI-30" x="53.90625"/>
      <use xlink:href="#SegoeUI-31" x="107.8125"/>
      <use xlink:href="#SegoeUI-2d" x="161.71875"/>
      <use xlink:href="#SegoeUI-35" x="201.708984"/>
      <use xlink:href="#SegoeUI-30" x="255.615234"/>
      <use xlink:href="#SegoeUI-30" x="309.521484"/>
      <use xlink:href="#SegoeUI-20" x="363.427734"/>
      <use xlink:href="#SegoeUI-65" x="390.820312"/>
      <use xlink:href="#SegoeUI-6d" x="443.115234"/>
      <use xlink:href="#SegoeUI-70" x="529.248047"/>
      <use xlink:href="#SegoeUI-6c" x="588.037109"/>
      <use xlink:href="#SegoeUI-6f" x="612.255859"/>
      <use xlink:href="#SegoeUI-79" x="670.849609"/>
      <use xlink:href="#SegoeUI-65" x="718.738281"/>
      <use xlink:href="#SegoeUI-65" x="771.033203"/>
      <use xlink:href="#SegoeUI-73" x="823.328125"/>
     </g>
    </g>
    <g id="patch_36">
     <path d="M 393.734375 121.179375 
L 417.734375 121.179375 
L 417.734375 112.779375 
L 393.734375 112.779375 
z
" style="fill: #cc78bc; fill-opacity: 0.75; stroke: #ffffff; stroke-width: 1.5; stroke-linejoin: miter"/>
    </g>
    <g id="text_16">
     <!-- 501-1000 employees -->
     <g style="fill: #262626" transform="translate(427.334375 121.179375) scale(0.12 -0.12)">
      <use xlink:href="#SegoeUI-35"/>
      <use xlink:href="#SegoeUI-30" x="53.90625"/>
      <use xlink:href="#SegoeUI-31" x="107.8125"/>
      <use xlink:href="#SegoeUI-2d" x="161.71875"/>
      <use xlink:href="#SegoeUI-31" x="201.708984"/>
      <use xlink:href="#SegoeUI-30" x="255.615234"/>
      <use xlink:href="#SegoeUI-30" x="309.521484"/>
      <use xlink:href="#SegoeUI-30" x="363.427734"/>
      <use xlink:href="#SegoeUI-20" x="417.333984"/>
      <use xlink:href="#SegoeUI-65" x="444.726562"/>
      <use xlink:href="#SegoeUI-6d" x="497.021484"/>
      <use xlink:href="#SegoeUI-70" x="583.154297"/>
      <use xlink:href="#SegoeUI-6c" x="641.943359"/>
      <use xlink:href="#SegoeUI-6f" x="666.162109"/>
      <use xlink:href="#SegoeUI-79" x="724.755859"/>
      <use xlink:href="#SegoeUI-65" x="772.644531"/>
      <use xlink:href="#SegoeUI-65" x="824.939453"/>
      <use xlink:href="#SegoeUI-73" x="877.234375"/>
     </g>
    </g>
    <g id="patch_37">
     <path d="M 393.734375 138.886875 
L 417.734375 138.886875 
L 417.734375 130.486875 
L 393.734375 130.486875 
z
" style="fill: #ca9161; fill-opacity: 0.75; stroke: #ffffff; stroke-width: 1.5; stroke-linejoin: miter"/>
    </g>
    <g id="text_17">
     <!-- More than 1000 employees -->
     <g style="fill: #262626" transform="translate(427.334375 138.886875) scale(0.12 -0.12)">
      <use xlink:href="#SegoeUI-4d"/>
      <use xlink:href="#SegoeUI-6f" x="89.794922"/>
      <use xlink:href="#SegoeUI-72" x="148.388672"/>
      <use xlink:href="#SegoeUI-65" x="181.779297"/>
      <use xlink:href="#SegoeUI-20" x="234.074219"/>
      <use xlink:href="#SegoeUI-74" x="261.466797"/>
      <use xlink:href="#SegoeUI-68" x="295.353516"/>
      <use xlink:href="#SegoeUI-61" x="351.945312"/>
      <use xlink:href="#SegoeUI-6e" x="402.824219"/>
      <use xlink:href="#SegoeUI-20" x="459.416016"/>
      <use xlink:href="#SegoeUI-31" x="486.808594"/>
      <use xlink:href="#SegoeUI-30" x="540.714844"/>
      <use xlink:href="#SegoeUI-30" x="594.621094"/>
      <use xlink:href="#SegoeUI-30" x="648.527344"/>
      <use xlink:href="#SegoeUI-20" x="702.433594"/>
      <use xlink:href="#SegoeUI-65" x="729.826172"/>
      <use xlink:href="#SegoeUI-6d" x="782.121094"/>
      <use xlink:href="#SegoeUI-70" x="868.253906"/>
      <use xlink:href="#SegoeUI-6c" x="927.042969"/>
      <use xlink:href="#SegoeUI-6f" x="951.261719"/>
      <use xlink:href="#SegoeUI-79" x="1009.855469"/>
      <use xlink:href="#SegoeUI-65" x="1057.744141"/>
      <use xlink:href="#SegoeUI-65" x="1110.039062"/>
      <use xlink:href="#SegoeUI-73" x="1162.333984"/>
     </g>
    </g>
   </g>
  </g>
 </g>
 <defs>
  <clipPath id="pb79292d020">
   <rect x="48.134375" y="7.2" width="334.8" height="221.76"/>
  </clipPath>
 </defs>
</svg>
